<?xml version="1.0" encoding="UTF-8"?>
<svg id="_레이어_2" data-name="레이어_2" xmlns="http://www.w3.org/2000/svg" viewBox="0 0 56.69 56.69">
  <defs>
    <style>
      .cls-1 {
        fill: #bec1df;
      }

      .cls-2 {
        fill: #1f3cb3;
      }

      .cls-3 {
        fill: #e0e0f8;
      }
    </style>
  </defs>
  <g id="_레이어_1-2" data-name="레이어_1">
    <g>
      <path class="cls-3" d="M7.82,7.81c0-1.55,0-3.09,0-4.64C7.83,1.18,9,.01,11,0c2.42,0,4.85,0,7.27,0,11.7,0,23.4,0,35.1,0,.74,0,1.45.08,2.07.53.71.52,1.15,1.21,1.22,2.1.02.25.03.5.03.74,0,14.05,0,28.1,0,42.14,0,.86-.12,1.67-.72,2.34-.59.66-1.33,1-2.22,1-1.62,0-3.24,0-4.87,0-.31.24-.69.2-1.05.2-3.11,0-6.22,0-9.33,0-8.99,0-17.97,0-26.96,0-.31,0-.61,0-.92,0-1.7-.09-2.92-1.31-3.01-3.01-.01-.23,0-.46,0-.69,0-12.12,0-24.23,0-36.35,0-.41-.07-.85.2-1.22Z"/>
      <path class="cls-1" d="M7.82,7.81c0,.29.02.57.02.86,0,12.35,0,24.69,0,37.04,0,2,1.15,3.15,3.15,3.15,12.35,0,24.69,0,37.04,0,.29,0,.57.01.86.02,0,1.56-.01,3.13-.02,4.69-.01,1.91-1.18,3.12-3.1,3.12-14.22,0-28.43,0-42.65,0-1.92,0-3.11-1.2-3.11-3.11,0-14.22,0-28.43,0-42.65,0-1.92,1.21-3.09,3.12-3.1,1.56,0,3.13-.01,4.69-.02Z"/>
      <path class="cls-2" d="M30.3,32.01c0-1.7-.02-3.4.01-5.1,0-.44-.12-.53-.54-.53-3.36.02-6.72.02-10.08,0-1.47,0-2.43-1.26-1.99-2.57.27-.82.99-1.32,1.93-1.33,3.34,0,6.68-.01,10.02.01.52,0,.66-.13.66-.66-.02-3.36-.02-6.72,0-10.08,0-1.01.71-1.83,1.65-1.97.97-.14,1.88.44,2.17,1.38.09.28.07.57.07.85,0,3.28.01,6.57-.01,9.85,0,.51.14.63.63.63,3.38-.02,6.76-.02,10.14,0,1.04,0,1.85.75,1.94,1.73.09,1.03-.58,1.93-1.59,2.13-.22.04-.46.04-.68.04-3.26,0-6.53.02-9.79-.01-.54,0-.65.16-.64.67.02,3.34.02,6.68,0,10.02,0,1.43-1.27,2.36-2.57,1.92-.81-.27-1.32-1.01-1.33-1.94,0-1.68,0-3.36,0-5.04Z"/>
    </g>
  </g>
</svg>