<svg width="95" height="60" viewBox="0 0 95 60" fill="none" xmlns="http://www.w3.org/2000/svg">
<rect x="0.5" y="0.5" width="94" height="59" rx="4.5" stroke="#9747FF" stroke-dasharray="10 5"/>
<circle cx="30" cy="30" r="9.33333" transform="rotate(-180 30 30)" stroke="#718EBF" stroke-width="1.33333"/>
<path d="M30.3536 26.6464C30.1583 26.4512 29.8417 26.4512 29.6464 26.6464L26.4645 29.8284C26.2692 30.0237 26.2692 30.3403 26.4645 30.5355C26.6597 30.7308 26.9763 30.7308 27.1716 30.5355L30 27.7071L32.8284 30.5355C33.0237 30.7308 33.3403 30.7308 33.5355 30.5355C33.7308 30.3403 33.7308 30.0237 33.5355 29.8284L30.3536 26.6464ZM29.5 27L29.5 34L30.5 34L30.5 27L29.5 27Z" fill="#718EBF"/>
<circle cx="65" cy="30" r="9.33333" transform="rotate(-180 65 30)" stroke="#718EBF" stroke-width="1.33333"/>
<path d="M64.6464 33.3536C64.8417 33.5488 65.1583 33.5488 65.3536 33.3536L68.5355 30.1716C68.7308 29.9763 68.7308 29.6597 68.5355 29.4645C68.3403 29.2692 68.0237 29.2692 67.8284 29.4645L65 32.2929L62.1716 29.4645C61.9763 29.2692 61.6597 29.2692 61.4645 29.4645C61.2692 29.6597 61.2692 29.9763 61.4645 30.1716L64.6464 33.3536ZM64.5 26L64.5 33L65.5 33L65.5 26L64.5 26Z" fill="#718EBF"/>
</svg>
