<svg width="20" height="20" viewBox="0 0 20 20" fill="none" xmlns="http://www.w3.org/2000/svg">
<path d="M9.97998 19.9984C6.92014 19.9984 3.8603 19.9976 0.800455 20C0.569936 20 0.357211 19.9725 0.190185 19.7938C0.0805874 19.6765 0.0102182 19.5426 0.00374752 19.3797C0.000916576 19.3057 0.00010773 19.2317 0.00010773 19.1573C0.00010773 13.0519 0.00010773 6.94617 0.00010773 0.840817C0.00010773 0.75347 -0.00150993 0.664911 0.00779173 0.578373C0.0393365 0.287623 0.28765 0.0393327 0.578024 0.00819538C0.664975 -0.00110539 0.753138 0.000107719 0.840493 0.000107719C6.94643 0.000107719 13.0528 0.000107719 19.1587 0.000107719C19.2461 0.000107719 19.3346 -0.00150978 19.4212 0.00779099C19.7115 0.0393327 19.9599 0.287219 19.9918 0.577969C20.0015 0.664911 19.9999 0.753066 19.9999 0.840412C19.9999 6.94576 19.9999 13.0515 19.9999 19.1569C19.9999 19.2442 20.0015 19.3328 19.9918 19.4193C19.9595 19.7109 19.7128 19.9579 19.4216 19.9895C19.3282 19.9996 19.2331 19.9976 19.1389 19.9976C16.0859 19.9976 13.033 19.9976 9.97958 19.9976L9.97998 19.9984ZM18.6237 10.0195C18.6237 7.30364 18.6237 4.58741 18.6237 1.87158C18.6237 1.46356 18.5359 1.37662 18.1238 1.37662C12.7114 1.37662 7.29908 1.37662 1.88673 1.37662C1.46087 1.37662 1.37675 1.45952 1.37635 1.88129C1.37635 7.29313 1.37635 12.705 1.37635 18.1168C1.37635 18.5382 1.46128 18.6223 1.88592 18.6223C7.2914 18.6223 12.6969 18.6223 18.1028 18.6223C18.5424 18.6223 18.6233 18.5422 18.6233 18.1071C18.6233 15.4115 18.6233 12.7155 18.6233 10.0199L18.6237 10.0195Z" fill="#804C4C"/>
<path d="M18.6237 10.0195C18.6237 12.7151 18.6237 15.4111 18.6237 18.1067C18.6237 18.5418 18.5428 18.6215 18.1032 18.6219C12.6977 18.6219 7.29222 18.6219 1.88634 18.6219C1.4617 18.6219 1.37677 18.5378 1.37677 18.1164C1.37677 12.7046 1.37677 7.29272 1.37677 1.88089C1.37677 1.45952 1.46089 1.37622 1.88715 1.37622C7.2995 1.37622 12.7119 1.37622 18.1242 1.37622C18.5363 1.37622 18.6241 1.46316 18.6241 1.87118C18.6241 4.58701 18.6241 7.30324 18.6241 10.0191L18.6237 10.0195ZM14.8185 8.62152C14.6098 8.62152 14.4007 8.61909 14.192 8.62233C13.9292 8.62637 13.8014 8.74607 13.8002 9.00164C13.7969 9.66846 13.7965 10.3353 13.8002 11.0021C13.8014 11.2484 13.9288 11.375 14.1771 11.3758C15.0729 11.379 15.9691 11.379 16.8648 11.3758C17.114 11.375 17.241 11.2496 17.2422 11.0029C17.2458 10.3361 17.2458 9.66927 17.2422 9.00245C17.241 8.74526 17.1148 8.62597 16.8515 8.62193C16.6428 8.61869 16.4337 8.62112 16.2251 8.62112C16.1231 8.16619 15.9128 7.94823 15.5614 7.93326C15.163 7.91628 14.9253 8.13586 14.8181 8.62112L14.8185 8.62152ZM5.87352 14.1272C5.86219 14.0819 5.85047 14.0366 5.83995 13.9913C5.7441 13.576 5.31906 13.3455 4.92394 13.4959C4.63437 13.6059 4.51345 13.8405 4.46452 14.1268C4.26271 14.1272 4.0605 14.1223 3.8591 14.1296C3.58369 14.1393 3.45023 14.2744 3.44902 14.5449C3.44659 15.1976 3.44659 15.8502 3.44902 16.5025C3.45023 16.7548 3.57722 16.9045 3.82675 16.9065C4.72173 16.9146 5.61631 16.915 6.51129 16.9065C6.76041 16.9041 6.88699 16.7524 6.8878 16.5045C6.88942 15.8519 6.88983 15.1992 6.8878 14.5469C6.88699 14.2756 6.75434 14.1397 6.47974 14.1296C6.27834 14.1223 6.07613 14.1276 5.87433 14.1272H5.87352ZM16.2251 14.1365C16.2133 14.0839 16.2028 14.0313 16.1903 13.9792C16.0851 13.5352 15.5857 13.3156 15.1865 13.5372C14.9532 13.6666 14.8577 13.8813 14.8181 14.1308C14.6094 14.1324 14.4003 14.1296 14.192 14.1373C13.9211 14.147 13.8006 14.2719 13.7997 14.5433C13.7973 15.1968 13.7973 15.8498 13.7997 16.5033C13.801 16.7706 13.9267 16.902 14.1981 16.9033C15.0805 16.9077 15.963 16.9077 16.8454 16.9033C17.1168 16.902 17.2422 16.771 17.2434 16.5033C17.2462 15.8498 17.2462 15.1968 17.2434 14.5433C17.2422 14.2699 17.1237 14.1462 16.8519 14.1373C16.6432 14.1304 16.4341 14.1365 16.2255 14.1365H16.2251ZM9.30583 5.87213C9.09028 5.87213 8.87472 5.8693 8.65916 5.87173C8.39589 5.87456 8.2689 5.989 8.26647 6.25144C8.26041 6.90492 8.26041 7.5584 8.26647 8.21188C8.2689 8.48565 8.41287 8.62152 8.68302 8.62233C9.559 8.62476 10.435 8.62435 11.3109 8.62233C11.592 8.62152 11.7324 8.48525 11.7348 8.19813C11.74 7.55153 11.7396 6.90452 11.7348 6.25791C11.7332 6.01164 11.5864 5.87415 11.3417 5.87173C11.1261 5.8693 10.9106 5.87173 10.695 5.87213C10.6509 5.435 10.38 5.16527 9.99011 5.17094C9.60915 5.17619 9.34789 5.44389 9.30583 5.87213ZM4.12885 8.95918C3.91976 8.95958 3.71108 8.95635 3.5024 8.96161C3.23265 8.96848 3.09798 9.09343 3.09596 9.3579C3.0907 10.0183 3.0907 10.6786 3.09596 11.3386C3.09798 11.5921 3.23346 11.726 3.48906 11.7272C4.37838 11.732 5.2681 11.7316 6.15742 11.7272C6.41261 11.726 6.5485 11.5921 6.55092 11.339C6.55699 10.6786 6.55658 10.0183 6.55133 9.3583C6.5493 9.09384 6.41423 8.96848 6.14488 8.96161C5.9362 8.95635 5.72712 8.95958 5.51844 8.95918C5.46263 8.53458 5.1856 8.26445 4.81353 8.27214C4.4443 8.27941 4.18223 8.54267 4.12885 8.95918ZM5.51884 3.44463C5.46546 3.01275 5.20622 2.75637 4.82364 2.75637C4.44147 2.75637 4.18061 3.01477 4.12844 3.44463C3.80491 3.44463 3.48178 3.44301 3.15824 3.44584C2.88243 3.44827 2.75867 3.56716 2.75746 3.83648C2.75463 4.49643 2.75463 5.15678 2.75746 5.81673C2.75867 6.07513 2.88364 6.19887 3.1457 6.19928C4.26393 6.2017 5.38255 6.2017 6.50077 6.19928C6.76284 6.19887 6.88821 6.07513 6.88942 5.81673C6.89266 5.15678 6.89266 4.49643 6.88942 3.83648C6.88821 3.56675 6.76446 3.44827 6.48864 3.44584C6.1651 3.44301 5.84197 3.44463 5.51844 3.44463H5.51884ZM14.482 3.44463C14.1585 3.44463 13.8353 3.44301 13.5118 3.44584C13.2368 3.44827 13.1118 3.56716 13.1106 3.83607C13.1078 4.49643 13.1078 5.15678 13.1106 5.81673C13.1118 6.07473 13.2376 6.19928 13.4989 6.19968C14.6175 6.2017 15.7357 6.20211 16.8543 6.19968C17.1156 6.19928 17.2418 6.07513 17.243 5.81714C17.2462 5.15678 17.2462 4.49643 17.243 3.83648C17.2418 3.56716 17.1172 3.44827 16.8418 3.44584C16.5183 3.44301 16.1951 3.44463 15.8716 3.44463C15.8186 3.01356 15.5594 2.75678 15.1764 2.75678C14.7942 2.75678 14.533 3.01558 14.4816 3.44463H14.482ZM9.64271 12.4223C9.31958 12.4227 8.99645 12.4223 8.67332 12.4239C8.41409 12.4255 8.26728 12.5606 8.26566 12.8154C8.26121 13.4616 8.26041 14.1078 8.26566 14.754C8.26809 15.0407 8.40883 15.1745 8.69152 15.1749C9.79558 15.1765 10.8997 15.1765 12.0033 15.1749C12.2747 15.1745 12.4187 15.0407 12.4215 14.7677C12.428 14.115 12.4267 13.462 12.4223 12.8089C12.4207 12.5638 12.2731 12.4272 12.0284 12.4243C11.6988 12.4207 11.3688 12.4195 11.0392 12.417C10.97 11.9318 10.6546 11.6697 10.221 11.7377C9.91287 11.7858 9.72724 12.0054 9.64312 12.4223H9.64271Z" fill="#F6DBBE"/>
<path d="M11.0391 12.4167C11.3687 12.4191 11.6988 12.4199 12.0284 12.4239C12.2734 12.4268 12.4206 12.5635 12.4223 12.8085C12.4271 13.4612 12.4283 14.1143 12.4215 14.7673C12.4186 15.0403 12.2747 15.1741 12.0033 15.1745C10.8992 15.1762 9.79515 15.1762 8.69149 15.1745C8.4088 15.1745 8.26806 15.0403 8.26563 14.7536C8.26038 14.1074 8.26078 13.4612 8.26563 12.815C8.26725 12.5602 8.41446 12.4252 8.67329 12.4235C8.99642 12.4215 9.31955 12.4223 9.64268 12.4219C9.65279 12.4676 9.66291 12.5129 9.67261 12.5586C9.76846 13.0046 10.253 13.2351 10.6586 13.0289C10.9101 12.9011 11.0056 12.6787 11.0387 12.4163L11.0391 12.4167Z" fill="#FEFEFE"/>
<path d="M15.8716 3.44461C16.1951 3.44461 16.5183 3.443 16.8418 3.44583C17.1168 3.44825 17.2418 3.56714 17.243 3.83646C17.2458 4.49681 17.2462 5.15717 17.243 5.81712C17.2418 6.07552 17.116 6.19926 16.8543 6.19966C15.7357 6.20209 14.6175 6.20209 13.4989 6.19966C13.238 6.19926 13.1118 6.07471 13.1106 5.81671C13.1074 5.15636 13.1078 4.496 13.1106 3.83605C13.1118 3.56714 13.2364 3.44825 13.5118 3.44583C13.8353 3.443 14.1585 3.44461 14.482 3.44461C14.537 3.85991 14.8043 4.12883 15.1675 4.13368C15.5472 4.13894 15.8134 3.87851 15.872 3.44461H15.8716Z" fill="#39B44A"/>
<path d="M5.51881 3.44461C5.84234 3.44461 6.16548 3.443 6.48901 3.44583C6.76483 3.44825 6.88858 3.56714 6.88979 3.83646C6.89262 4.49641 6.89303 5.15676 6.88979 5.81671C6.88858 6.07511 6.76321 6.19845 6.50114 6.19926C5.38292 6.20168 4.2643 6.20168 3.14607 6.19926C2.88442 6.19885 2.75904 6.07511 2.75783 5.81671C2.7546 5.15676 2.755 4.49641 2.75783 3.83646C2.75904 3.56714 2.8828 3.44825 3.15861 3.44583C3.48215 3.443 3.80528 3.44461 4.12882 3.44461C4.18382 3.86921 4.45033 4.13327 4.82401 4.13327C5.19851 4.13327 5.4634 3.87083 5.51921 3.44461H5.51881Z" fill="#E74646"/>
<path d="M5.5184 8.95918C5.72748 8.95958 5.93616 8.95634 6.14485 8.9616C6.41419 8.96848 6.54927 9.09383 6.55129 9.3583C6.55654 10.0187 6.55695 10.679 6.55088 11.339C6.54846 11.5921 6.41257 11.726 6.15738 11.7272C5.26806 11.7316 4.37834 11.7316 3.48902 11.7272C3.23342 11.726 3.09835 11.5921 3.09592 11.3386C3.09026 10.6782 3.09026 10.0178 3.09592 9.3579C3.09794 9.09383 3.23262 8.96848 3.50236 8.9616C3.71104 8.95634 3.92013 8.95998 4.12921 8.95918C4.17855 9.39267 4.43496 9.64622 4.8236 9.64662C5.21225 9.64662 5.46865 9.39308 5.5184 8.95958V8.95918Z" fill="#299DD3"/>
<path d="M10.6946 5.87214C10.9101 5.87214 11.1257 5.8693 11.3412 5.87173C11.5859 5.87456 11.7323 6.01165 11.7343 6.25791C11.7392 6.90452 11.7396 7.55153 11.7343 8.19814C11.7319 8.48525 11.5916 8.62193 11.3105 8.62233C10.4345 8.62435 9.55855 8.62435 8.68258 8.62233C8.41242 8.62152 8.26845 8.48565 8.26602 8.21189C8.25996 7.55841 8.25996 6.90493 8.26602 6.25145C8.26845 5.989 8.39503 5.87456 8.65872 5.87173C8.87427 5.8693 9.08983 5.87173 9.30538 5.87214C9.36322 6.28784 9.63216 6.55069 9.99977 6.55028C10.3678 6.55028 10.6351 6.28905 10.6946 5.87214Z" fill="#FEFDFD"/>
<path d="M16.2251 14.1365C16.4337 14.1365 16.6428 14.1304 16.8515 14.1373C17.1233 14.1462 17.2422 14.2699 17.243 14.5433C17.2454 15.1967 17.2454 15.8498 17.243 16.5033C17.2418 16.7706 17.1164 16.9016 16.845 16.9032C15.9626 16.9077 15.0801 16.9077 14.1977 16.9032C13.9263 16.902 13.8006 16.7702 13.7993 16.5033C13.7965 15.8498 13.7969 15.1967 13.7993 14.5433C13.8001 14.2719 13.9211 14.147 14.1916 14.1373C14.4003 14.1296 14.609 14.1324 14.8177 14.1308C14.9123 14.5736 15.104 14.7867 15.4376 14.8199C15.8562 14.8615 16.1199 14.6326 16.2242 14.1369L16.2251 14.1365Z" fill="#E74747"/>
<path d="M5.87348 14.1272C6.07528 14.1272 6.27749 14.1219 6.47889 14.1296C6.75349 14.1397 6.88614 14.2756 6.88695 14.5469C6.88938 15.1996 6.88897 15.8523 6.88695 16.5045C6.88614 16.7524 6.75997 16.9041 6.51044 16.9065C5.61586 16.915 4.72088 16.915 3.8259 16.9065C3.57637 16.9041 3.44938 16.7544 3.44817 16.5025C3.44534 15.8498 3.44534 15.1972 3.44817 14.5449C3.44938 14.2744 3.58244 14.1393 3.85825 14.1296C4.06006 14.1223 4.26186 14.1272 4.46367 14.1268C4.51179 14.4754 4.66588 14.7422 5.03794 14.813C5.46825 14.8951 5.76024 14.6492 5.87307 14.1272H5.87348Z" fill="#FEFDFD"/>
<path d="M16.2254 8.62154C16.4341 8.62154 16.6432 8.61911 16.8519 8.62235C17.1151 8.62639 17.2413 8.74528 17.2425 9.00287C17.2458 9.6697 17.2462 10.3365 17.2425 11.0033C17.2413 11.25 17.1143 11.3754 16.8652 11.3762C15.9694 11.379 15.0732 11.379 14.1774 11.3762C13.9291 11.3754 13.8017 11.2488 13.8005 11.0025C13.7969 10.3357 13.7969 9.66889 13.8005 9.00206C13.8017 8.74609 13.9295 8.62639 14.1924 8.62275C14.4011 8.61952 14.6102 8.62194 14.8189 8.62194C14.8298 8.67411 14.8399 8.72668 14.8524 8.77884C14.9289 9.09184 15.2047 9.31061 15.5217 9.31061C15.84 9.31061 16.1134 9.09305 16.1906 8.77844C16.2032 8.72668 16.2141 8.67411 16.2258 8.62194L16.2254 8.62154Z" fill="#269CD3"/>
<path d="M5.87352 14.1272C5.76068 14.6493 5.46869 14.8951 5.03839 14.813C4.66632 14.7423 4.51264 14.4754 4.46411 14.1268C4.51345 13.8409 4.63437 13.6064 4.92353 13.496C5.31865 13.3455 5.7437 13.576 5.83954 13.9913C5.85006 14.0366 5.86219 14.0819 5.87311 14.1272H5.87352Z" fill="#2B2F61"/>
<path d="M10.6946 5.87211C10.6356 6.28903 10.3678 6.55026 9.99981 6.55026C9.63219 6.55026 9.36325 6.28741 9.30542 5.87211C9.34748 5.44387 9.60873 5.17617 9.9897 5.17091C10.3796 5.16566 10.6505 5.43497 10.6946 5.87211Z" fill="#2B3061"/>
<path d="M16.2251 14.1365C16.1207 14.6323 15.857 14.8612 15.4385 14.8195C15.1048 14.7863 14.9131 14.5732 14.8185 14.1304C14.8581 13.8809 14.9536 13.6666 15.1869 13.5368C15.5865 13.3152 16.0859 13.5348 16.1907 13.9788C16.2032 14.031 16.2137 14.0839 16.2255 14.1361L16.2251 14.1365Z" fill="#2A2E60"/>
<path d="M11.0392 12.4166C11.006 12.6787 10.9106 12.9015 10.659 13.0293C10.2534 13.2351 9.7685 13.005 9.67305 12.559C9.66335 12.5133 9.65283 12.468 9.64313 12.4223C9.72765 12.0054 9.91288 11.7858 10.221 11.7377C10.655 11.6701 10.97 11.9318 11.0392 12.417V12.4166Z" fill="#2B3061"/>
<path d="M5.51881 3.4446C5.4626 3.87082 5.1977 4.13327 4.82362 4.13327C4.44993 4.13327 4.18382 3.86921 4.12842 3.4446C4.18018 3.01475 4.44144 2.75635 4.82362 2.75635C5.2062 2.75635 5.46543 3.01273 5.51881 3.4446Z" fill="#2A2E60"/>
<path d="M15.8716 3.44463C15.8129 3.87893 15.5468 4.13895 15.1671 4.13369C14.8039 4.12884 14.5366 3.85952 14.4816 3.44463C14.5329 3.01558 14.7942 2.75677 15.1764 2.75677C15.5589 2.75677 15.8186 3.01356 15.8716 3.44463Z" fill="#292F60"/>
<path d="M16.2255 8.6215C16.2137 8.67367 16.2032 8.72624 16.1903 8.778C16.113 9.09261 15.8396 9.31017 15.5214 9.31017C15.2043 9.31017 14.9281 9.0914 14.852 8.77841C14.8395 8.72664 14.8294 8.67407 14.8185 8.6215C14.9261 8.13625 15.1635 7.91667 15.5618 7.93365C15.9132 7.94861 16.1231 8.16658 16.2255 8.6215Z" fill="#292F61"/>
<path d="M5.51839 8.9592C5.46825 9.3931 5.21184 9.64665 4.8236 9.64624C4.43495 9.64624 4.17815 9.39229 4.12921 8.95879C4.18219 8.54228 4.44466 8.27903 4.81389 8.27175C5.18637 8.26447 5.46339 8.53419 5.5188 8.95879L5.51839 8.9592Z" fill="#292F61"/>
</svg>
