<svg width="20" height="20" viewBox="0 0 20 20" fill="none" xmlns="http://www.w3.org/2000/svg">
<g clip-path="url(#clip0_283_1804)">
<path d="M19.693 4.37262C19.6969 4.43746 19.7039 4.50192 19.7039 4.56676C19.7043 9.13004 19.7047 13.6929 19.7039 18.2562C19.7039 18.989 19.3332 19.4992 18.6867 19.666C18.5465 19.7023 18.4035 19.7043 18.2606 19.7043C12.7797 19.7047 7.29884 19.705 1.81759 19.7043C0.925792 19.7043 0.375011 19.1601 0.37462 18.2761C0.373058 13.6933 0.373839 9.1109 0.37462 4.52809C0.37462 4.47653 0.381652 4.42496 0.385558 4.37301C6.8215 4.37301 13.2574 4.37301 19.6934 4.37301L19.693 4.37262ZM9.02423 16.055C9.02423 15.7168 9.02345 15.3785 9.02423 15.0402C9.02462 14.8543 8.93009 14.7468 8.7504 14.7254C8.08985 14.6464 7.42618 14.6836 6.76485 14.7015C6.43946 14.7105 6.3672 14.8379 6.3672 15.1769C6.3672 15.7754 6.36642 16.3738 6.36759 16.9722C6.36798 17.2261 6.49142 17.375 6.73829 17.3785C7.38868 17.3871 8.03946 17.3867 8.68985 17.3785C8.91993 17.3757 9.02228 17.2484 9.02345 17.0109C9.02501 16.6922 9.02384 16.3734 9.02345 16.0547L9.02423 16.055ZM11.0539 16.0375C11.0539 16.3625 11.0527 16.6879 11.0543 17.0129C11.0555 17.2496 11.1586 17.3757 11.3899 17.3785C12.0402 17.3863 12.6906 17.3863 13.341 17.3785C13.566 17.3757 13.7074 17.2359 13.709 17.0297C13.7137 16.3793 13.7133 15.7289 13.709 15.0785C13.7078 14.8808 13.6203 14.7394 13.4035 14.7199C12.7234 14.6597 12.0418 14.6687 11.3621 14.7152C11.1176 14.732 11.0543 14.848 11.0539 15.1004C11.0535 15.4125 11.0539 15.7246 11.0539 16.0367V16.0375ZM1.71798 16.0371C1.71798 16.3558 1.7172 16.6742 1.71798 16.9929C1.71876 17.2379 1.8547 17.3804 2.09962 17.3816C2.73048 17.3843 3.36095 17.3843 3.99181 17.3816C4.22775 17.3804 4.37228 17.2398 4.37345 17.0074C4.37657 16.3574 4.37462 15.707 4.37423 15.0566C4.37423 14.8746 4.28321 14.7664 4.10626 14.7257C4.0047 14.7023 3.90392 14.6836 3.79884 14.6875C3.19571 14.7097 2.59103 14.6441 1.98946 14.725C1.80782 14.7496 1.7172 14.857 1.71798 15.0422C1.71915 15.3738 1.71798 15.7054 1.71798 16.0371ZM18.3598 16.0285C18.3598 15.7035 18.3578 15.3781 18.3606 15.0531C18.3621 14.8593 18.2711 14.7464 18.0801 14.7242C17.4195 14.648 16.7567 14.6851 16.0953 14.7019C15.8145 14.7089 15.7059 14.8347 15.7047 15.0453C15.7004 15.7086 15.7004 16.3718 15.7047 17.0347C15.7059 17.225 15.8492 17.3773 16.0352 17.3789C16.6984 17.3851 17.3617 17.3851 18.0246 17.3789C18.2188 17.3769 18.3574 17.2175 18.3586 17.023C18.3606 16.6914 18.359 16.3597 18.359 16.0281L18.3598 16.0285ZM11.0543 8.03629C11.0543 8.37418 11.0508 8.71246 11.0555 9.05035C11.0582 9.25074 11.1719 9.37184 11.368 9.37301C12.0309 9.3777 12.6942 9.37731 13.3574 9.37301C13.5578 9.37184 13.707 9.22731 13.7086 9.02887C13.7137 8.37223 13.7152 7.71559 13.7078 7.05895C13.7055 6.82731 13.5801 6.7191 13.3473 6.71832C12.6906 6.71676 12.034 6.71676 11.3774 6.71832C11.1633 6.71871 11.0559 6.82692 11.0547 7.04098C11.0524 7.37262 11.0543 7.70426 11.0543 8.03551V8.03629ZM9.02384 12.0703C9.02384 11.7257 9.02657 11.3812 9.02267 11.0367C9.02032 10.832 8.91134 10.707 8.71876 10.7054C8.04923 10.7 7.3797 10.7004 6.71017 10.7054C6.52071 10.707 6.3715 10.8519 6.36993 11.0394C6.36407 11.7023 6.36329 12.3656 6.37071 13.0285C6.37306 13.2429 6.484 13.3562 6.67814 13.3574C7.36056 13.3621 8.04337 13.3625 8.72579 13.3566C8.91056 13.355 9.02228 13.2281 9.02384 13.0449C9.02618 12.7199 9.02462 12.3949 9.02462 12.0699L9.02384 12.0703ZM9.02423 8.03395C9.02423 7.72223 9.02423 7.41012 9.02423 7.0984C9.02384 6.8234 8.92501 6.71949 8.65509 6.71871C8.01837 6.71715 7.38126 6.71715 6.74454 6.71871C6.48243 6.7191 6.3715 6.81989 6.36915 7.08043C6.36407 7.72379 6.36525 8.36715 6.36915 9.01051C6.37032 9.22379 6.51251 9.37184 6.7215 9.3734C7.3711 9.37809 8.0211 9.37887 8.6711 9.3734C8.9211 9.37106 9.02267 9.25817 9.02423 9.00934C9.02618 8.68434 9.02462 8.35934 9.02462 8.03473L9.02423 8.03395ZM1.71837 8.03512C1.71837 8.36051 1.71681 8.6859 1.71876 9.01129C1.72032 9.25309 1.81759 9.3691 2.05548 9.37184C2.71251 9.37926 3.36993 9.37731 4.02696 9.37301C4.21759 9.37184 4.36993 9.22926 4.37189 9.04254C4.37814 8.37887 4.37931 7.7152 4.3715 7.05153C4.36876 6.81559 4.25079 6.71949 4.00704 6.71871C3.3629 6.71715 2.71876 6.71676 2.07423 6.71871C1.82853 6.71949 1.72032 6.83043 1.71837 7.07848C1.71603 7.39723 1.71798 7.71637 1.71798 8.03512H1.71837ZM18.3598 8.04567C18.3598 7.72028 18.3617 7.39489 18.359 7.06949C18.357 6.83317 18.2469 6.71988 18.0137 6.7191C17.3629 6.71637 16.7121 6.71676 16.0617 6.7191C15.8231 6.71988 15.7082 6.82106 15.7059 7.0609C15.6988 7.71793 15.7004 8.37535 15.7055 9.03238C15.707 9.22184 15.8524 9.37106 16.0406 9.37262C16.7043 9.37809 17.368 9.38004 18.0317 9.37145C18.2602 9.36871 18.3574 9.25114 18.3594 9.02184C18.3621 8.69645 18.3602 8.37106 18.3602 8.04567H18.3598ZM3.03243 13.3597C3.35782 13.3597 3.68321 13.3613 4.0086 13.3593C4.25821 13.3578 4.37071 13.2566 4.37306 13.0058C4.37892 12.355 4.37814 11.7043 4.37306 11.0539C4.3715 10.8527 4.22657 10.707 4.02579 10.7054C3.37501 10.7007 2.72423 10.7 2.07384 10.7054C1.82228 10.7074 1.71954 10.8195 1.71876 11.0683C1.7172 11.7125 1.71681 12.3566 1.71876 13.0011C1.71954 13.2488 1.82892 13.3578 2.07579 13.3597C2.39454 13.3621 2.71368 13.3605 3.03243 13.3605V13.3597ZM12.3774 13.3597C12.6961 13.3597 13.0152 13.3609 13.334 13.3597C13.5906 13.3586 13.7074 13.2507 13.709 12.9925C13.7137 12.3547 13.7125 11.7172 13.7094 11.0793C13.7082 10.8461 13.5641 10.7054 13.3277 10.7043C12.6965 10.7015 12.0652 10.7007 11.434 10.7043C11.1527 10.7058 11.0543 10.8132 11.0539 11.1019C11.0531 11.7332 11.0531 12.3644 11.0539 12.9957C11.0539 13.2539 11.1582 13.3578 11.4203 13.3593C11.7391 13.3613 12.0582 13.3597 12.377 13.3597H12.3774ZM18.3598 12.0406C18.3598 11.7152 18.3613 11.3898 18.3594 11.0644C18.3578 10.8238 18.259 10.7086 18.0203 10.7058C17.3633 10.6984 16.7059 10.7004 16.0488 10.705C15.8582 10.7066 15.7078 10.8496 15.7063 11.0375C15.7004 11.7011 15.6988 12.3648 15.707 13.0285C15.7098 13.2578 15.8262 13.3582 16.0539 13.3589C16.7047 13.3613 17.3555 13.3613 18.0063 13.3589C18.2504 13.3582 18.3582 13.2461 18.3602 12.9972C18.3625 12.6785 18.3606 12.3593 18.3606 12.0406H18.3598Z" fill="#E0EEFE"/>
<path d="M19.693 4.37262C13.2571 4.37262 6.82111 4.37262 0.385177 4.37262C0.385177 3.88044 0.365255 3.38708 0.389864 2.89606C0.421505 2.27106 0.976583 1.74215 1.60393 1.71676C1.96643 1.70192 2.3301 1.71169 2.69299 1.71051C2.69611 1.93708 2.69182 2.16403 2.70393 2.3902C2.72424 2.76911 3.0301 3.05387 3.39143 3.04176C3.75432 3.02965 4.02229 2.75075 4.03283 2.37028C4.03908 2.15036 4.04065 1.93005 4.04455 1.71012C4.70744 1.71012 5.37072 1.71012 6.03361 1.71012C6.03713 1.91715 6.04104 2.12419 6.04416 2.33161C6.05041 2.74958 6.32346 3.04294 6.70549 3.04255C7.08322 3.04215 7.36877 2.74059 7.37658 2.33239C7.38049 2.12536 7.38244 1.91794 7.38518 1.7109C8.04572 1.7109 8.70588 1.71051 9.36643 1.71012C9.36916 1.93044 9.36955 2.15036 9.37463 2.37067C9.38283 2.74723 9.67619 3.04215 10.0391 3.04215C10.4016 3.04215 10.6953 2.74684 10.7035 2.37067C10.7086 2.15075 10.709 1.93044 10.7117 1.71012C11.3723 1.71012 12.0324 1.71051 12.693 1.7109C12.6961 1.93747 12.6918 2.16442 12.7039 2.39059C12.7242 2.7695 13.0301 3.05426 13.3914 3.04215C13.7543 3.03005 14.0223 2.75114 14.0328 2.37067C14.0391 2.15075 14.0406 1.93044 14.0446 1.71051C14.7074 1.71051 15.3707 1.71051 16.0336 1.71051C16.0371 1.91755 16.041 2.12458 16.0442 2.332C16.0504 2.74997 16.3235 3.04333 16.7055 3.04294C17.0832 3.04255 17.3688 2.74098 17.3766 2.33278C17.3805 2.12575 17.3824 1.91833 17.3852 1.7113C17.7289 1.71208 18.0727 1.70505 18.416 1.71481C19.1113 1.73395 19.666 2.26442 19.693 2.95505C19.7117 3.42731 19.6942 3.90075 19.693 4.3734V4.37262Z" fill="#CD4B7B"/>
<path d="M7.38519 1.71014C7.38246 1.91717 7.3805 2.12459 7.3766 2.33162C7.36879 2.73982 7.08324 3.04139 6.70551 3.04178C6.32308 3.04217 6.05043 2.74881 6.04418 2.33084C6.04105 2.12381 6.03715 1.91678 6.03363 1.70935C6.03636 1.48943 6.03676 1.26912 6.04261 1.04959C6.05355 0.658574 6.32543 0.379667 6.69652 0.374589C7.07308 0.369121 7.36058 0.653495 7.37465 1.05037C7.38246 1.27029 7.38207 1.49021 7.38519 1.71014Z" fill="#DFECFC"/>
<path d="M17.3852 1.71014C17.3825 1.91717 17.3805 2.12459 17.3766 2.33162C17.3688 2.73982 17.0832 3.04139 16.7055 3.04178C16.3231 3.04217 16.0504 2.74881 16.0442 2.33084C16.0411 2.12381 16.0371 1.91678 16.0336 1.70935C16.0364 1.48943 16.0368 1.26912 16.0426 1.04959C16.0536 0.658574 16.3254 0.379667 16.6965 0.374589C17.0731 0.369121 17.3606 0.653495 17.3746 1.05037C17.3825 1.27029 17.3821 1.49021 17.3852 1.71014Z" fill="#DFECFC"/>
<path d="M4.04456 1.70981C4.04065 1.92973 4.03909 2.15004 4.03284 2.36996C4.02229 2.75043 3.75432 3.02934 3.39143 3.04145C3.0301 3.05355 2.72385 2.7684 2.70393 2.38988C2.69182 2.16371 2.69612 1.93676 2.69299 1.7102C2.69612 1.49691 2.69807 1.28324 2.70315 1.06996C2.71291 0.659414 2.99651 0.36918 3.38127 0.374649C3.7594 0.379727 4.02698 0.662539 4.03596 1.06918C4.04065 1.28285 4.04182 1.49613 4.04495 1.70981H4.04456Z" fill="#DFECFC"/>
<path d="M14.0446 1.70981C14.0406 1.92973 14.0391 2.15004 14.0328 2.36996C14.0223 2.75043 13.7543 3.02934 13.3914 3.04145C13.0301 3.05355 12.7239 2.7684 12.7039 2.38988C12.6918 2.16371 12.6961 1.93676 12.693 1.7102C12.6961 1.49691 12.6981 1.28324 12.7031 1.06996C12.7129 0.659414 12.9965 0.36918 13.3813 0.374649C13.7594 0.379727 14.027 0.662539 14.036 1.06918C14.0406 1.28285 14.0418 1.49613 14.0449 1.70981H14.0446Z" fill="#DFECFC"/>
<path d="M10.7117 1.70935C10.709 1.92966 10.7086 2.14958 10.7035 2.3699C10.6949 2.74607 10.4012 3.04138 10.0391 3.04138C9.67616 3.04138 9.38319 2.74607 9.3746 2.3699C9.36991 2.14998 9.36913 1.92966 9.36639 1.70935C9.36874 1.48826 9.36952 1.26716 9.37421 1.04568C9.38202 0.658569 9.66405 0.375366 10.0391 0.375366C10.4137 0.375366 10.6961 0.65896 10.7039 1.04568C10.7086 1.26677 10.7094 1.48787 10.7117 1.70935Z" fill="#DFEDFD"/>
<path d="M9.02425 16.0551C9.02425 16.3738 9.02542 16.6926 9.02386 17.0113C9.02269 17.2488 8.92034 17.3758 8.69027 17.3789C8.03987 17.3871 7.38909 17.3875 6.7387 17.3789C6.49183 17.3758 6.36839 17.2269 6.368 16.9727C6.36644 16.3742 6.36761 15.7758 6.36761 15.1773C6.36761 14.8383 6.43988 14.7109 6.76527 14.7019C7.42659 14.684 8.09027 14.6469 8.75081 14.7258C8.9305 14.7473 9.02542 14.8543 9.02464 15.0406C9.02347 15.3789 9.02464 15.7172 9.02464 16.0555L9.02425 16.0551Z" fill="#BFDAEF"/>
<path d="M11.0539 16.0375C11.0539 15.7253 11.0539 15.4132 11.0539 15.1011C11.0539 14.8488 11.1172 14.7328 11.3621 14.716C12.0418 14.6691 12.7231 14.6605 13.4035 14.7207C13.6207 14.7398 13.7078 14.8816 13.709 15.0792C13.7133 15.7296 13.7137 16.38 13.709 17.0304C13.7075 17.2367 13.566 17.3765 13.341 17.3792C12.6907 17.3871 12.0403 17.3875 11.3899 17.3792C11.1586 17.3765 11.0559 17.2503 11.0543 17.0136C11.0524 16.6886 11.0539 16.3632 11.0539 16.0382V16.0375Z" fill="#BFDAEF"/>
<path d="M1.71836 16.0371C1.71836 15.7054 1.71914 15.3738 1.71836 15.0422C1.71757 14.857 1.8082 14.7496 1.98984 14.725C2.5914 14.6441 3.19648 14.7097 3.79921 14.6875C3.90468 14.6836 4.00546 14.7023 4.10664 14.7257C4.28359 14.7664 4.37461 14.8746 4.37461 15.0566C4.37461 15.707 4.37695 16.357 4.37382 17.0074C4.37265 17.2398 4.22812 17.3804 3.99218 17.3816C3.36132 17.3843 2.73086 17.3843 2.1 17.3816C1.85507 17.3804 1.71914 17.2379 1.71836 16.9929C1.71718 16.6742 1.71836 16.3558 1.71836 16.0371Z" fill="#BFDAEF"/>
<path d="M18.3598 16.0285C18.3598 16.3601 18.3613 16.6918 18.3594 17.0234C18.3582 17.2179 18.2195 17.3773 18.0254 17.3793C17.3621 17.3855 16.6988 17.3855 16.0359 17.3793C15.8496 17.3777 15.7067 17.225 15.7055 17.0351C15.7008 16.3718 15.7008 15.7086 15.7055 15.0457C15.707 14.8351 15.8152 14.7093 16.0961 14.7023C16.757 14.6855 17.4203 14.6488 18.0809 14.7246C18.2719 14.7465 18.3629 14.8593 18.3613 15.0535C18.3586 15.3785 18.3606 15.7035 18.3606 16.0289L18.3598 16.0285Z" fill="#BFDAEF"/>
<path d="M11.0543 8.03632C11.0543 7.70468 11.0527 7.37304 11.0547 7.04179C11.0563 6.82811 11.1637 6.71991 11.3774 6.71913C12.034 6.71757 12.6906 6.71757 13.3473 6.71913C13.5801 6.71952 13.7055 6.82772 13.7078 7.05975C13.7149 7.71639 13.7137 8.37303 13.7086 9.02968C13.707 9.22811 13.5578 9.37225 13.3574 9.37382C12.6945 9.37811 12.0313 9.37811 11.368 9.37382C11.1719 9.37264 11.0582 9.25155 11.0555 9.05116C11.0508 8.71327 11.0543 8.37499 11.0543 8.0371V8.03632Z" fill="#BEDAEF"/>
<path d="M9.02424 12.0703C9.02424 12.3953 9.0262 12.7203 9.02346 13.0453C9.02229 13.2285 8.91018 13.3554 8.72542 13.357C8.04299 13.3625 7.36057 13.3621 6.67776 13.3578C6.48401 13.3566 6.37307 13.2429 6.37034 13.0289C6.36292 12.366 6.36409 11.7027 6.36956 11.0398C6.37112 10.8519 6.52034 10.707 6.70979 10.7058C7.37932 10.7008 8.04885 10.7008 8.71838 10.7058C8.91096 10.7074 9.01995 10.8324 9.02229 11.0371C9.0262 11.3816 9.02346 11.7261 9.02346 12.0707L9.02424 12.0703Z" fill="#BEDAEF"/>
<path d="M9.02424 8.03397C9.02424 8.35897 9.0258 8.68397 9.02385 9.00857C9.02228 9.2574 8.92111 9.37029 8.67072 9.37264C8.02111 9.3785 7.37111 9.37772 6.72111 9.37264C6.51213 9.37107 6.36994 9.22303 6.36877 9.00975C6.36486 8.36639 6.36408 7.72303 6.36877 7.07967C6.37072 6.81912 6.48205 6.71834 6.74416 6.71795C7.38088 6.71678 8.01799 6.71639 8.65471 6.71795C8.92463 6.71873 9.02346 6.82264 9.02385 7.09764C9.02424 7.40936 9.02385 7.72147 9.02385 8.03318L9.02424 8.03397Z" fill="#BEDAEF"/>
<path d="M1.71837 8.03514C1.71837 7.71639 1.7168 7.39725 1.71876 7.0785C1.72071 6.83045 1.82891 6.71951 2.07462 6.71873C2.71876 6.71678 3.3629 6.71717 4.00743 6.71873C4.25118 6.71912 4.36876 6.81521 4.37188 7.05154C4.38008 7.71521 4.37852 8.37889 4.37227 9.04256C4.37071 9.22889 4.21836 9.37146 4.02735 9.37303C3.37032 9.37771 2.7129 9.37967 2.05587 9.37185C1.81797 9.36912 1.72071 9.2531 1.71915 9.01131C1.71719 8.68592 1.71876 8.36053 1.71876 8.03514H1.71837Z" fill="#BEDAEF"/>
<path d="M18.3598 8.04571C18.3598 8.3711 18.3617 8.69649 18.359 9.02188C18.357 9.25118 18.2598 9.36836 18.0312 9.37149C17.3676 9.38008 16.7039 9.37813 16.0402 9.37266C15.8523 9.3711 15.7066 9.22188 15.7051 9.03243C15.7 8.37539 15.6988 7.71797 15.7055 7.06094C15.7078 6.8211 15.8226 6.71993 16.0613 6.71914C16.7121 6.71719 17.3629 6.7168 18.0133 6.71914C18.2465 6.71993 18.3566 6.8336 18.3586 7.06953C18.3613 7.39493 18.3594 7.72032 18.3594 8.04571H18.3598Z" fill="#BEDAEF"/>
<path d="M3.03242 13.3598C2.71367 13.3598 2.39453 13.3617 2.07578 13.359C1.82891 13.357 1.71953 13.248 1.71875 13.0004C1.7168 12.3562 1.7168 11.7121 1.71875 11.0676C1.71953 10.8191 1.82227 10.707 2.07383 10.7047C2.72461 10.6992 3.37539 10.7 4.02578 10.7047C4.22617 10.7062 4.37148 10.8523 4.37305 11.0531C4.37773 11.7039 4.37852 12.3547 4.37305 13.0051C4.3707 13.2559 4.2582 13.357 4.00859 13.3586C3.6832 13.3605 3.35781 13.359 3.03242 13.359V13.3598Z" fill="#BEDAEF"/>
<path d="M12.3773 13.3597C12.0586 13.3597 11.7395 13.3613 11.4207 13.3593C11.1586 13.3578 11.0543 13.2535 11.0543 12.9957C11.0535 12.3644 11.0535 11.7332 11.0543 11.1019C11.0543 10.8136 11.1531 10.7058 11.4344 10.7043C12.0656 10.7007 12.6969 10.7015 13.3281 10.7043C13.5641 10.7054 13.7086 10.8461 13.7098 11.0793C13.7129 11.7171 13.7141 12.355 13.7094 12.9925C13.7074 13.2507 13.591 13.3586 13.3344 13.3597C13.0156 13.3613 12.6965 13.3597 12.3777 13.3597H12.3773Z" fill="#BEDAEF"/>
<path d="M18.3597 12.0406C18.3597 12.3594 18.3613 12.6785 18.3594 12.9972C18.3578 13.2461 18.2496 13.3582 18.0054 13.359C17.3547 13.3613 16.7039 13.3613 16.0531 13.359C15.8254 13.3582 15.709 13.2578 15.7062 13.0285C15.698 12.3648 15.6996 11.7012 15.7054 11.0375C15.707 10.85 15.8574 10.7066 16.048 10.7051C16.7051 10.7004 17.3625 10.6988 18.0195 10.7058C18.2582 10.7086 18.3566 10.8238 18.3586 11.0644C18.3609 11.3898 18.359 11.7152 18.359 12.0406H18.3597Z" fill="#BEDAEF"/>
</g>
<defs>
<clipPath id="clip0_283_1804">
<rect width="20" height="20" fill="white"/>
</clipPath>
</defs>
</svg>
