<svg width="100" height="168" viewBox="0 0 100 168" fill="none" xmlns="http://www.w3.org/2000/svg">
<rect x="0.5" y="0.5" width="99" height="167" rx="4.5" stroke="#9747FF" stroke-dasharray="10 5"/>
<g filter="url(#filter0_b_307_7991)">
<rect x="20" y="88" width="60" height="60" rx="30" fill="#4B4DED"/>
</g>
<path d="M50.6185 127.824H43.2452C39.5585 127.824 38.3335 125.374 38.3335 122.912V113.089C38.3335 109.402 39.5585 108.177 43.2452 108.177H50.6185C54.3052 108.177 55.5302 109.402 55.5302 113.089V122.912C55.5302 126.599 54.2935 127.824 50.6185 127.824Z" stroke="white" stroke-width="2.25" stroke-linecap="round" stroke-linejoin="round"/>
<path d="M58.7726 123.95L55.5293 121.675V114.313L58.7726 112.038C60.3593 110.93 61.666 111.607 61.666 113.555V122.445C61.666 124.393 60.3593 125.07 58.7726 123.95Z" stroke="white" stroke-width="2.25" stroke-linecap="round" stroke-linejoin="round"/>
<path d="M49.416 116.833C50.3825 116.833 51.166 116.05 51.166 115.083C51.166 114.117 50.3825 113.333 49.416 113.333C48.4495 113.333 47.666 114.117 47.666 115.083C47.666 116.05 48.4495 116.833 49.416 116.833Z" stroke="white" stroke-width="2.25" stroke-linecap="round" stroke-linejoin="round"/>
<g filter="url(#filter1_b_307_7991)">
<rect x="20" y="20" width="60" height="60" rx="30" fill="#E54242"/>
</g>
<path d="M50.6185 59.8233H43.2452C39.5585 59.8233 38.3335 57.3733 38.3335 54.9116V45.0883C38.3335 41.4016 39.5585 40.1766 43.2452 40.1766H50.6185C54.3052 40.1766 55.5302 41.4016 55.5302 45.0883V54.9116C55.5302 58.5983 54.2935 59.8233 50.6185 59.8233Z" stroke="white" stroke-width="2.25" stroke-linecap="round" stroke-linejoin="round"/>
<path d="M58.7726 55.9502L55.5293 53.6752V46.3135L58.7726 44.0385C60.3593 42.9302 61.666 43.6068 61.666 45.5552V54.4452C61.666 56.3935 60.3593 57.0702 58.7726 55.9502Z" stroke="white" stroke-width="2.25" stroke-linecap="round" stroke-linejoin="round"/>
<path d="M49.416 48.8333C50.3825 48.8333 51.166 48.0498 51.166 47.0833C51.166 46.1168 50.3825 45.3333 49.416 45.3333C48.4495 45.3333 47.666 46.1168 47.666 47.0833C47.666 48.0498 48.4495 48.8333 49.416 48.8333Z" stroke="white" stroke-width="2.25" stroke-linecap="round" stroke-linejoin="round"/>
<defs>
<filter id="filter0_b_307_7991" x="9.5" y="77.5" width="81" height="81" filterUnits="userSpaceOnUse" color-interpolation-filters="sRGB">
<feFlood flood-opacity="0" result="BackgroundImageFix"/>
<feGaussianBlur in="BackgroundImageFix" stdDeviation="5.25"/>
<feComposite in2="SourceAlpha" operator="in" result="effect1_backgroundBlur_307_7991"/>
<feBlend mode="normal" in="SourceGraphic" in2="effect1_backgroundBlur_307_7991" result="shape"/>
</filter>
<filter id="filter1_b_307_7991" x="9.5" y="9.5" width="81" height="81" filterUnits="userSpaceOnUse" color-interpolation-filters="sRGB">
<feFlood flood-opacity="0" result="BackgroundImageFix"/>
<feGaussianBlur in="BackgroundImageFix" stdDeviation="5.25"/>
<feComposite in2="SourceAlpha" operator="in" result="effect1_backgroundBlur_307_7991"/>
<feBlend mode="normal" in="SourceGraphic" in2="effect1_backgroundBlur_307_7991" result="shape"/>
</filter>
</defs>
</svg>
