<svg width="20" height="20" viewBox="0 0 20 20" fill="none" xmlns="http://www.w3.org/2000/svg">
<rect x="1.66667" y="1.66667" width="16.6667" height="16.6667" rx="8.33333" fill="#FFEAD5"/>
<rect x="1.66667" y="1.66667" width="16.6667" height="16.6667" rx="8.33333" stroke="#FFF6ED" stroke-width="3.33333"/>
<g clip-path="url(#clip0_293_5034)">
<path d="M10.1493 9.03425V10.3676M10.1493 11.7009H10.1526M9.5793 7.32091L6.75597 12.0342C6.69775 12.1351 6.66695 12.2493 6.66663 12.3658C6.6663 12.4822 6.69646 12.5966 6.75411 12.6978C6.81175 12.7989 6.89487 12.8832 6.9952 12.9422C7.09553 13.0012 7.20957 13.033 7.32597 13.0342H12.9726C13.089 13.033 13.2031 13.0012 13.3034 12.9422C13.4037 12.8832 13.4868 12.7989 13.5445 12.6978C13.6021 12.5966 13.6323 12.4822 13.632 12.3658C13.6316 12.2493 13.6008 12.1351 13.5426 12.0342L10.7193 7.32091C10.6599 7.22295 10.5762 7.14195 10.4764 7.08574C10.3765 7.02953 10.2639 7 10.1493 7C10.0347 7 9.92208 7.02953 9.82223 7.08574C9.72239 7.14195 9.63872 7.22295 9.5793 7.32091Z" stroke="#EC4A0A" stroke-width="0.666667" stroke-linecap="round" stroke-linejoin="round"/>
</g>
<defs>
<clipPath id="clip0_293_5034">
<rect width="8" height="8" fill="white" transform="translate(6 6)"/>
</clipPath>
</defs>
</svg>
