<svg width="24" height="24" viewBox="0 0 24 24" fill="none" xmlns="http://www.w3.org/2000/svg">
<rect x="2" y="2" width="20" height="20" rx="10" fill="#FFEAD5"/>
<rect x="2" y="2" width="20" height="20" rx="10" stroke="#FFF6ED" stroke-width="3.33333"/>
<g clip-path="url(#clip0_293_5034)">
<path d="M12.1867 10.7928V12.4595M12.1867 14.1261H12.1908M11.4742 8.65114L7.94499 14.5428C7.87222 14.6688 7.83372 14.8117 7.83332 14.9572C7.83291 15.1027 7.87061 15.2458 7.94267 15.3722C8.01472 15.4986 8.11862 15.604 8.24403 15.6777C8.36944 15.7515 8.51199 15.7912 8.65749 15.7928H15.7158C15.8613 15.7912 16.0039 15.7515 16.1293 15.6777C16.2547 15.604 16.3586 15.4986 16.4306 15.3722C16.5027 15.2458 16.5404 15.1027 16.54 14.9572C16.5396 14.8117 16.5011 14.6688 16.4283 14.5428L12.8992 8.65114C12.8249 8.52869 12.7203 8.42744 12.5955 8.35718C12.4707 8.28691 12.3299 8.25 12.1867 8.25C12.0434 8.25 11.9026 8.28691 11.7778 8.35718C11.653 8.42744 11.5484 8.52869 11.4742 8.65114Z" stroke="#EC4A0A" stroke-width="0.833333" stroke-linecap="round" stroke-linejoin="round"/>
</g>
<defs>
<clipPath id="clip0_293_5034">
<rect width="10" height="10" fill="white" transform="translate(7 7)"/>
</clipPath>
</defs>
</svg>
