<svg width="20" height="20" viewBox="0 0 20 20" fill="none" xmlns="http://www.w3.org/2000/svg">
<g clip-path="url(#clip0_283_1807)">
<path d="M13.7653 20C13.8054 19.9285 13.7387 19.9337 13.7073 19.9285C12.348 19.6997 11.2408 19.0362 10.3552 17.9886C10.3469 17.9786 10.3338 17.9731 10.3227 17.9659C10.2834 17.9051 10.2468 17.8428 10.2051 17.7836C9.20558 16.3629 8.90417 14.8087 9.35609 13.1293C10.0443 10.5723 12.5231 8.89856 15.1556 9.18341C15.7806 9.25095 16.3676 9.43847 16.9414 9.68082C17.5442 10.0038 18.099 10.39 18.5628 10.8989C19.2745 11.6796 19.7232 12.5894 19.9162 13.6271C19.9258 13.678 19.9186 13.7336 19.9579 13.7761C19.9623 13.7809 19.9714 13.7888 19.9726 13.788C19.9821 13.7809 19.9905 13.7717 19.9992 13.763V15.3919C19.9909 15.3827 19.9833 15.3732 19.9742 15.3653C19.973 15.3641 19.9635 15.3716 19.9587 15.3764C19.917 15.4177 19.925 15.4737 19.9154 15.5246C19.7371 16.486 19.3396 17.3454 18.7022 18.0879C17.8592 19.07 16.7969 19.677 15.5253 19.9186C15.4753 19.9281 15.3851 19.8912 15.3927 20.0008H13.7645L13.7653 20ZM14.5754 9.82981C11.9767 9.82663 9.84057 11.9494 9.83382 14.5429C9.82667 17.1821 11.9429 19.3183 14.569 19.3235C17.1773 19.3286 19.3198 17.1991 19.3225 14.5997C19.3253 11.9641 17.2043 9.83338 14.5754 9.82981Z" fill="#4395A8"/>
<path d="M16.9418 9.68082C16.368 9.43848 15.7806 9.25095 15.156 9.18342C12.5235 8.89856 10.0447 10.5723 9.35647 13.1293C8.90455 14.8087 9.20596 16.3629 10.2055 17.7836C10.2472 17.8428 10.2837 17.9051 10.323 17.9659C7.3403 17.9667 4.35756 17.9715 1.37441 17.9667C0.614729 17.9655 0.0516174 17.4077 0.0111115 16.6501C0.00793457 16.5905 0.00793457 16.5309 0.00793457 16.4717C0.00793457 12.4023 0.00793457 8.33282 0.00793457 4.26377C0.00793457 4.19821 0.0150827 4.13226 0.0190538 4.06671C0.0984772 4.06671 0.177901 4.0679 0.256927 4.0679C5.81736 4.0683 11.3782 4.0691 16.9386 4.06949C16.9414 4.58478 16.9462 5.10046 16.9462 5.61575C16.9462 6.97091 16.943 8.32606 16.9414 9.68122L16.9418 9.68082ZM3.06176 13.8881C2.74447 13.8881 2.42677 13.883 2.10948 13.8893C1.64763 13.8985 1.37481 14.1789 1.37124 14.6382C1.37005 14.7971 1.38196 14.9568 1.36885 15.1146C1.31961 15.7149 1.75048 15.9528 2.19208 15.9449C2.72104 15.9354 3.25 15.9441 3.77935 15.9417C3.9112 15.9413 4.04542 15.9425 4.17449 15.9195C4.52792 15.8567 4.74157 15.5993 4.74991 15.2409C4.75388 15.0558 4.7515 14.8702 4.7511 14.6851C4.74951 14.171 4.48622 13.8985 3.97474 13.8893C3.67054 13.8838 3.36635 13.8881 3.06216 13.8885L3.06176 13.8881ZM8.47725 5.77268C8.1401 5.77268 7.80255 5.76831 7.46539 5.77387C7.07106 5.78023 6.80181 6.03529 6.78275 6.42662C6.77163 6.65744 6.77163 6.88986 6.78275 7.12108C6.80102 7.4989 7.06192 7.78416 7.4364 7.7929C8.13056 7.80919 8.82512 7.80601 9.51928 7.79449C9.83539 7.78932 10.0967 7.56326 10.1455 7.2796C10.1984 6.9721 10.2091 6.66022 10.159 6.35073C10.1015 5.99119 9.85326 5.77824 9.4891 5.77347C9.15195 5.7687 8.8144 5.77268 8.47725 5.77268ZM13.9039 5.77228C13.5734 5.77228 13.2427 5.77228 12.9122 5.77228C12.8991 5.77228 12.8856 5.77228 12.8725 5.77268C12.4877 5.7846 12.2284 6.03727 12.2157 6.42344C12.2082 6.64791 12.2109 6.87317 12.2141 7.09804C12.2201 7.50049 12.4711 7.78376 12.8753 7.7933C13.556 7.80919 14.237 7.80879 14.9177 7.79449C15.3251 7.78614 15.5848 7.49493 15.5912 7.08532C15.5944 6.87357 15.5952 6.66181 15.5912 6.45045C15.5829 6.048 15.3192 5.78142 14.9153 5.77427C14.5782 5.76831 14.241 5.77307 13.9039 5.77268V5.77228ZM3.06057 11.8572C3.39772 11.8572 3.73488 11.8619 4.07203 11.856C4.45445 11.8492 4.72727 11.593 4.74594 11.2148C4.75825 10.9641 4.75904 10.7118 4.74475 10.4611C4.72568 10.1214 4.45326 9.84173 4.11333 9.83577C3.41282 9.82305 2.7119 9.82226 2.01139 9.83577C1.63135 9.84292 1.38117 10.1226 1.37243 10.508C1.36766 10.7261 1.36806 10.9446 1.37203 11.1627C1.37918 11.5934 1.6377 11.8516 2.06897 11.8572C2.39937 11.8612 2.73017 11.858 3.06057 11.8572ZM3.04866 5.77307C2.70476 5.77307 2.36125 5.76791 2.01735 5.77466C1.64604 5.78181 1.38315 6.04522 1.37283 6.4147C1.36647 6.63956 1.36846 6.86443 1.37163 7.0893C1.37719 7.50923 1.62301 7.78535 2.04197 7.79409C2.72263 7.80839 3.40368 7.80879 4.08434 7.7933C4.4755 7.78456 4.74117 7.48579 4.74911 7.09406C4.75348 6.88271 4.75428 6.67055 4.74872 6.45919C4.7372 6.04403 4.47272 5.77943 4.06012 5.77307C3.72296 5.76791 3.38581 5.77188 3.04866 5.77268V5.77307Z" fill="#E0EEFE"/>
<path d="M16.939 4.06873C11.3786 4.06833 5.81775 4.06794 0.257314 4.06714C0.177891 4.06714 0.0984673 4.06635 0.019441 4.06595C-1.76874e-05 3.55821 -0.0143139 3.04849 0.0246036 2.54194C0.0722576 1.92058 0.623059 1.39139 1.24614 1.36676C1.73419 1.34729 2.22344 1.35921 2.71229 1.35722C2.71507 1.57454 2.71706 1.79186 2.72063 2.00918C2.72778 2.41283 3.0141 2.71119 3.39454 2.71238C3.7714 2.71318 4.06487 2.41124 4.07361 2.01037C4.07837 1.79305 4.07877 1.57573 4.08115 1.35842C4.75268 1.35842 5.4242 1.35842 6.09573 1.35842C6.09851 1.58249 6.09732 1.80656 6.10486 2.03023C6.11797 2.41839 6.41382 2.71318 6.78393 2.71238C7.15762 2.71159 7.44592 2.41998 7.45665 2.02865C7.4626 1.80497 7.4634 1.5809 7.46657 1.35683C8.13731 1.35802 8.80843 1.35881 9.47916 1.36001C9.48353 1.57057 9.48671 1.78113 9.49306 1.9913C9.50537 2.41441 9.78693 2.71318 10.1725 2.71318C10.5573 2.71318 10.8405 2.41362 10.8528 1.9913C10.8591 1.78074 10.8611 1.57017 10.8651 1.35961C11.5362 1.35881 12.2074 1.35802 12.8781 1.35762C12.8809 1.57494 12.8829 1.79226 12.8864 2.00958C12.8936 2.41322 13.1799 2.71159 13.5603 2.71278C13.9372 2.71357 14.2307 2.41163 14.2394 2.01077C14.2442 1.79345 14.2446 1.57613 14.2469 1.35881C14.683 1.35881 15.1186 1.35484 15.5547 1.35921C16.3791 1.36755 16.9414 1.93409 16.9454 2.76204C16.9477 3.19787 16.941 3.6337 16.9382 4.06953L16.939 4.06873Z" fill="#4394A7"/>
<path d="M10.8655 1.3588C10.8615 1.56936 10.8595 1.77993 10.8532 1.99049C10.8409 2.41321 10.5577 2.71237 10.1729 2.71237C9.78772 2.71237 9.50576 2.414 9.49345 1.99049C9.4875 1.77993 9.48432 1.56976 9.47955 1.3592C9.48432 1.14863 9.48869 0.938069 9.49345 0.727506C9.50338 0.290089 9.78255 -0.00509807 10.1821 6.67101e-05C10.5724 0.00523149 10.8436 0.299226 10.8532 0.727108C10.8579 0.937672 10.8611 1.14824 10.8655 1.3588Z" fill="#DCEBFB"/>
<path d="M4.08157 1.358C4.07919 1.57532 4.07839 1.79263 4.07402 2.00995C4.06529 2.41082 3.77182 2.71276 3.39495 2.71196C3.01452 2.71117 2.7282 2.41241 2.72105 2.00876C2.71747 1.79144 2.71549 1.57412 2.71271 1.35681C2.71549 1.13194 2.71668 0.907074 2.72144 0.682208C2.72939 0.287698 3.01452 0.000854492 3.39575 0.000854492C3.7746 0.000854492 4.0637 0.289685 4.07323 0.683002C4.07879 0.907869 4.07879 1.13274 4.08117 1.358H4.08157Z" fill="#DFEDFD"/>
<path d="M14.2478 1.358C14.2454 1.57532 14.2446 1.79263 14.2402 2.00995C14.2315 2.41082 13.938 2.71276 13.5612 2.71196C13.1807 2.71117 12.8944 2.41241 12.8872 2.00876C12.8837 1.79144 12.8817 1.57412 12.8789 1.35681C12.8817 1.13194 12.8829 0.907074 12.8876 0.682208C12.896 0.287698 13.1811 0.00125178 13.5623 0.000854492C13.9412 0.000854492 14.2303 0.289685 14.2398 0.683002C14.2454 0.907869 14.2454 1.13274 14.2478 1.358Z" fill="#DFEDFD"/>
<path d="M7.46698 1.35641C7.4638 1.58048 7.4634 1.80416 7.45705 2.02823C7.44633 2.41956 7.15802 2.71117 6.78433 2.71197C6.41422 2.71276 6.11837 2.41837 6.10526 2.02982C6.09772 1.80614 6.09891 1.58207 6.09613 1.358C6.09891 1.13989 6.1001 0.921378 6.10447 0.703266C6.11202 0.294454 6.39556 0.00125341 6.78235 0.000856119C7.17033 6.15377e-05 7.4503 0.290481 7.45784 0.701677C7.46182 0.919789 7.4638 1.1383 7.46658 1.35641H7.46698Z" fill="#DFEDFD"/>
<path d="M14.5753 9.82984C17.2046 9.83302 19.3252 11.9641 19.3225 14.5997C19.3197 17.1992 17.1772 19.3283 14.569 19.3235C11.9428 19.3183 9.82661 17.1821 9.83376 14.5429C9.84051 11.9494 11.9766 9.82666 14.5753 9.82984ZM15.1936 14.2394C15.0999 14.15 15.0062 14.061 14.9129 13.9716C14.9145 13.5103 14.9184 13.0491 14.9161 12.5878C14.9149 12.351 14.7826 12.2088 14.5789 12.2084C14.3744 12.2084 14.2429 12.3499 14.2422 12.5866C14.2402 13.0479 14.2437 13.5091 14.2453 13.9704C14.21 14.0002 14.1742 14.0288 14.1397 14.0594C13.9189 14.2561 13.8466 14.5409 13.9483 14.8119C14.0539 15.0931 14.2787 15.2338 14.5908 15.2413C14.8613 15.2481 15.0217 15.0741 15.1952 14.9136C15.4331 14.9136 15.671 14.9183 15.9085 14.9136C16.1273 14.9088 16.269 14.7701 16.2686 14.5747C16.2682 14.3784 16.1269 14.2429 15.9069 14.239C15.669 14.2346 15.4315 14.239 15.1936 14.239V14.2394ZM12.521 12.1798C12.5151 11.9657 12.1561 11.6129 11.9512 11.6097C11.8209 11.6077 11.7217 11.6625 11.6569 11.7742C11.593 11.885 11.5874 12.0054 11.6581 12.1111C11.7534 12.2537 11.8753 12.3769 12.0187 12.471C12.1251 12.5409 12.2447 12.5322 12.3555 12.4667C12.4678 12.4003 12.5127 12.295 12.5207 12.1798H12.521ZM12.5135 16.9858C12.5107 16.8587 12.4623 16.755 12.3507 16.6895C12.2327 16.6203 12.1088 16.6175 11.9973 16.6958C11.8678 16.7868 11.7554 16.9 11.6633 17.0279C11.5835 17.1384 11.5862 17.2643 11.653 17.3819C11.7161 17.494 11.817 17.548 11.9468 17.546C12.1529 17.5428 12.5087 17.1912 12.5135 16.9858ZM17.5434 11.9339C17.5398 11.804 17.481 11.7062 17.3667 11.647C17.2535 11.5886 17.134 11.5875 17.0295 11.6609C16.9005 11.7523 16.7885 11.866 16.6947 11.9935C16.6133 12.1043 16.6149 12.2279 16.6824 12.3471C16.7464 12.4599 16.85 12.5147 16.9763 12.5163C17.1907 12.5187 17.5478 12.1476 17.5434 11.9339ZM16.9711 16.6386C16.8615 16.6454 16.7563 16.6906 16.6908 16.8031C16.6221 16.9211 16.6185 17.045 16.6967 17.1567C16.7873 17.2862 16.9012 17.3986 17.0291 17.4908C17.1391 17.5702 17.265 17.5687 17.3833 17.5015C17.5029 17.4336 17.5549 17.3251 17.5462 17.1877C17.5335 16.9886 17.1832 16.6446 16.9711 16.6382V16.6386ZM14.9173 11.0146C14.9173 10.6761 14.8073 10.5104 14.5817 10.508C14.3541 10.5056 14.2406 10.6717 14.2402 11.0074C14.2402 11.3606 14.3526 11.5294 14.5845 11.5243C14.8104 11.5195 14.9173 11.3558 14.9173 11.0146ZM11.0283 14.2378C10.6749 14.2378 10.5073 14.3494 10.5116 14.5818C10.516 14.8071 10.6808 14.9152 11.0203 14.9152C11.3595 14.9152 11.5247 14.8059 11.5279 14.5798C11.531 14.3522 11.3638 14.2382 11.0283 14.2378ZM18.1387 14.9152C18.4758 14.9152 18.643 14.8039 18.645 14.5783C18.647 14.3518 18.479 14.2378 18.1434 14.2378C17.7908 14.2378 17.6212 14.3514 17.6276 14.583C17.6335 14.8087 17.7975 14.9148 18.1387 14.9148V14.9152ZM14.9165 18.1479C14.9165 18.0883 14.9196 18.0287 14.9157 17.9695C14.9026 17.7693 14.7576 17.6251 14.5753 17.6263C14.3919 17.6275 14.2525 17.7717 14.241 17.9743C14.2378 18.0335 14.2398 18.0931 14.2398 18.1527C14.2398 18.4765 14.349 18.6386 14.5702 18.6441C14.7981 18.6497 14.9169 18.48 14.9165 18.1479Z" fill="#FDFEFE"/>
<path d="M3.06178 13.8882C3.36598 13.8882 3.67017 13.8838 3.97436 13.889C4.48585 13.8981 4.74913 14.1707 4.75072 14.6847C4.75112 14.8699 4.7539 15.0554 4.74953 15.2406C4.74159 15.5993 4.52754 15.8564 4.17411 15.9191C4.04505 15.9422 3.91082 15.941 3.77898 15.9414C3.25002 15.9438 2.72066 15.9346 2.1917 15.9446C1.75011 15.9525 1.31924 15.7145 1.36848 15.1142C1.38158 14.9565 1.36967 14.7968 1.37086 14.6379C1.37443 14.1786 1.64725 13.8981 2.1091 13.889C2.4264 13.8826 2.74409 13.8878 3.06139 13.8878L3.06178 13.8882Z" fill="#B0CCDD"/>
<path d="M8.47725 5.7727C8.8144 5.7727 9.15195 5.76912 9.48911 5.77349C9.85326 5.77826 10.1015 5.99121 10.159 6.35076C10.2087 6.66025 10.1984 6.97172 10.1455 7.27962C10.0967 7.56289 9.83539 7.78895 9.51929 7.79451C8.82513 7.80603 8.13057 7.80921 7.43641 7.79292C7.06193 7.78418 6.80102 7.49893 6.78275 7.1211C6.77163 6.89028 6.77163 6.65747 6.78275 6.42664C6.80182 6.03531 7.07106 5.78025 7.4654 5.77389C7.80255 5.76873 8.1401 5.7727 8.47725 5.7727Z" fill="#B0CBDC"/>
<path d="M13.9038 5.77228C14.241 5.77228 14.5782 5.76752 14.9153 5.77387C15.3188 5.78103 15.5829 6.04761 15.5912 6.45006C15.5956 6.66142 15.5948 6.87318 15.5912 7.08493C15.5848 7.49454 15.3251 7.78575 14.9177 7.7941C14.237 7.808 13.5556 7.8088 12.8753 7.7929C12.4714 7.78337 12.2201 7.5001 12.2141 7.09765C12.2109 6.87278 12.2082 6.64791 12.2157 6.42305C12.2284 6.03688 12.4873 5.7842 12.8725 5.77228C12.8856 5.77189 12.8991 5.77189 12.9122 5.77189C13.2426 5.77189 13.5734 5.77189 13.9038 5.77189V5.77228Z" fill="#B0CBDC"/>
<path d="M3.06055 11.8576C2.73015 11.8576 2.39935 11.8612 2.06895 11.8572C1.63808 11.852 1.37956 11.5934 1.37201 11.1627C1.36844 10.9446 1.36764 10.7261 1.37241 10.508C1.38114 10.1226 1.63133 9.84292 2.01137 9.83577C2.71188 9.82266 3.41279 9.82345 4.11331 9.83577C4.45364 9.84173 4.72566 10.1214 4.74472 10.4611C4.75902 10.7114 4.75823 10.9641 4.74592 11.2148C4.72725 11.5926 4.45443 11.8492 4.07201 11.856C3.73486 11.862 3.3977 11.8572 3.06055 11.8576Z" fill="#AFCBDC"/>
<path d="M3.04867 5.77272C3.38582 5.77272 3.72297 5.76835 4.06013 5.77352C4.47273 5.77948 4.73761 6.04447 4.74873 6.45964C4.75468 6.671 4.75349 6.88275 4.74912 7.09451C4.74118 7.48624 4.47551 7.7846 4.08435 7.79374C3.40369 7.80923 2.72264 7.80884 2.04198 7.79453C1.62302 7.78579 1.3772 7.50968 1.37164 7.08974C1.36886 6.86487 1.36688 6.64001 1.37284 6.41514C1.38316 6.04566 1.64605 5.78226 2.01736 5.77511C2.36086 5.76835 2.70477 5.77352 3.04867 5.77352V5.77272Z" fill="#B0CBDC"/>
<path d="M15.1952 14.9139C15.0217 15.0744 14.8613 15.248 14.5908 15.2417C14.2787 15.2341 14.0535 15.0935 13.9483 14.8122C13.8466 14.5409 13.9189 14.2564 14.1397 14.0598C14.1743 14.0292 14.21 14.0002 14.2449 13.9708C14.4677 13.881 14.6901 13.881 14.9129 13.9719C15.0066 14.0613 15.1003 14.1503 15.1937 14.2397C15.2635 14.4646 15.2584 14.6895 15.1952 14.9143V14.9139Z" fill="#BFDAEF"/>
<path d="M14.9125 13.9716C14.6901 13.881 14.4674 13.881 14.2446 13.9704C14.2434 13.5092 14.2394 13.0479 14.2414 12.5867C14.2426 12.3499 14.3736 12.2084 14.5781 12.2084C14.7819 12.2084 14.9141 12.3511 14.9153 12.5878C14.9177 13.0491 14.9137 13.5104 14.9121 13.9716H14.9125Z" fill="#E2C84D"/>
<path d="M15.1953 14.914C15.2588 14.6887 15.2636 14.4638 15.1937 14.2394C15.4315 14.2394 15.6694 14.235 15.9069 14.2394C16.1273 14.2433 16.2683 14.3788 16.2687 14.5751C16.2691 14.7705 16.1273 14.9092 15.9085 14.914C15.671 14.9191 15.4331 14.9148 15.1953 14.914Z" fill="#4596A9"/>
<path d="M12.5211 12.1798C12.5131 12.295 12.4682 12.4003 12.3559 12.4666C12.2451 12.5322 12.1255 12.5409 12.0191 12.471C11.8757 12.3768 11.7538 12.2537 11.6585 12.1111C11.5878 12.005 11.5934 11.885 11.6573 11.7741C11.7217 11.6625 11.8213 11.6077 11.9516 11.6097C12.1565 11.6128 12.5155 11.9656 12.5214 12.1798H12.5211Z" fill="#4898AA"/>
<path d="M12.5135 16.9858C12.5088 17.1916 12.1525 17.5428 11.9468 17.546C11.817 17.548 11.7161 17.494 11.653 17.3819C11.5863 17.2639 11.5835 17.1384 11.6633 17.0279C11.7558 16.9 11.8682 16.7868 11.9973 16.6958C12.1093 16.6172 12.2328 16.6203 12.3507 16.6895C12.4627 16.755 12.5111 16.8587 12.5135 16.9858Z" fill="#4898AA"/>
<path d="M17.5434 11.9339C17.5478 12.1476 17.1908 12.5183 16.9763 12.5163C16.85 12.5151 16.7468 12.4603 16.6825 12.3471C16.6149 12.2279 16.6134 12.1043 16.6948 11.9935C16.7885 11.866 16.9001 11.7523 17.0295 11.661C17.134 11.5871 17.2535 11.5882 17.3667 11.647C17.4811 11.7062 17.5398 11.804 17.5434 11.9339Z" fill="#4898AA"/>
<path d="M16.9712 16.6386C17.1832 16.645 17.5335 16.989 17.5462 17.1881C17.555 17.3255 17.5029 17.434 17.3834 17.5019C17.2655 17.5691 17.1396 17.5707 17.0292 17.4912C16.9013 17.399 16.7873 17.2866 16.6968 17.1571C16.6186 17.045 16.6217 16.9215 16.6908 16.8035C16.7563 16.6911 16.8616 16.6458 16.9712 16.639V16.6386Z" fill="#4898AA"/>
<path d="M14.9173 11.0146C14.9173 11.3558 14.8108 11.5195 14.5845 11.5243C14.3526 11.5295 14.2402 11.3606 14.2402 11.0074C14.2402 10.6713 14.3537 10.5052 14.5817 10.508C14.8077 10.5104 14.9173 10.6765 14.9173 11.0146Z" fill="#4596A9"/>
<path d="M11.0283 14.2378C11.3643 14.2378 11.5311 14.3522 11.5279 14.5799C11.5247 14.8063 11.3599 14.9152 11.0204 14.9152C10.6805 14.9152 10.516 14.8071 10.5117 14.5818C10.5073 14.3494 10.6749 14.2378 11.0283 14.2378Z" fill="#4596A9"/>
<path d="M18.1387 14.9151C17.7976 14.9151 17.6336 14.8087 17.6276 14.5834C17.6213 14.3514 17.7912 14.2378 18.1435 14.2382C18.479 14.2382 18.647 14.3522 18.645 14.5786C18.643 14.8043 18.4759 14.9155 18.1387 14.9155V14.9151Z" fill="#4596A9"/>
<path d="M14.9169 18.1479C14.9169 18.48 14.7981 18.6496 14.5706 18.6441C14.3498 18.6385 14.2406 18.476 14.2402 18.1526C14.2402 18.093 14.2382 18.0335 14.2414 17.9743C14.2529 17.772 14.3923 17.6278 14.5757 17.6262C14.758 17.625 14.9026 17.7696 14.9161 17.9695C14.92 18.0287 14.9169 18.0883 14.9169 18.1479Z" fill="#4596A9"/>
</g>
<defs>
<clipPath id="clip0_283_1807">
<rect width="20" height="20" fill="white"/>
</clipPath>
</defs>
</svg>
