<svg width="20" height="20" viewBox="0 0 20 20" fill="none" xmlns="http://www.w3.org/2000/svg">
<g clip-path="url(#clip0_283_1806)">
<path d="M2.13956e-05 9.98701C0.0113391 4.4632 4.48426 -0.00288889 10.0024 -5.96917e-05C15.5328 0.00276951 20.0105 4.48745 20 10.0121C19.9895 15.5359 15.5146 20.004 9.9976 19.9999C4.4689 19.9959 -0.0112963 15.5088 2.13956e-05 9.98701ZM1.0271 9.97367C1.05095 14.9955 5.03236 18.9083 9.88361 18.9649C14.9725 19.0243 18.9184 14.9668 18.9661 10.107C19.0158 5.02459 14.9572 1.05523 10.0574 1.03462C5.02508 1.0136 1.07318 5.02985 1.0271 9.97367Z" fill="#3D9CDB"/>
<path d="M1.0271 9.97368C1.07318 5.02986 5.02508 1.01361 10.0574 1.03463C14.9568 1.05484 19.0158 5.02461 18.9661 10.1071C18.9184 14.9668 14.9725 19.0243 9.88361 18.9649C5.03276 18.9083 1.05095 14.9955 1.0271 9.97368ZM10.0041 1.7201C5.45111 1.71566 1.72435 5.43848 1.7199 9.9955C1.71546 14.5481 5.43817 18.2749 9.99557 18.2802C14.5481 18.2855 18.2761 14.561 18.2801 10.004C18.2842 5.44979 14.5627 1.72495 10.0037 1.7201H10.0041Z" fill="#3788CC"/>
<path d="M10.0041 1.7201C14.5631 1.72454 18.2846 5.44979 18.2806 10.004C18.2765 14.561 14.5486 18.2855 9.99601 18.2802C5.43861 18.2749 1.71589 14.5485 1.72034 9.9955C1.72479 5.43847 5.45155 1.71565 10.0045 1.7201H10.0041ZM12.9317 10.396C12.7442 10.5549 12.7082 10.7169 12.8226 10.8835C12.9374 11.05 13.1379 11.0779 13.3372 10.9481C13.6573 10.7388 13.9774 10.5286 14.2927 10.312C14.5514 10.1341 14.551 9.86536 14.2927 9.68792C13.977 9.47169 13.6577 9.26112 13.3372 9.05216C13.1444 8.92606 12.9511 8.94789 12.8339 9.09945C12.705 9.26637 12.7385 9.43896 12.9317 9.60386C12.9301 9.61598 12.9346 9.62487 12.9451 9.63094C12.8756 9.66731 12.8004 9.65276 12.7276 9.65276C12.0231 9.65438 11.319 9.65397 10.6144 9.65438C10.5251 9.56506 10.4358 9.47533 10.346 9.38601V6.02775C10.6011 6.23145 10.7737 6.25085 10.9228 6.11182C11.0732 5.97198 11.0659 5.80344 10.899 5.55204C10.7094 5.2667 10.5211 4.98014 10.3283 4.69682C10.1383 4.41753 9.86424 4.41551 9.67588 4.69237C9.47176 4.99227 9.27167 5.29499 9.072 5.59771C8.92851 5.81475 8.93821 5.98653 9.08817 6.12152C9.2066 6.22822 9.46569 6.25005 9.60433 6.05079C9.60797 6.04554 9.62859 6.0516 9.65526 6.05321C9.65526 7.16186 9.65526 8.2709 9.65526 9.37954C9.60636 9.42481 9.55543 9.46806 9.50894 9.51534C9.25146 9.77805 9.24378 10.1911 9.48994 10.4631C9.73489 10.7339 10.15 10.7667 10.4342 10.533C10.5009 10.4785 10.5546 10.4082 10.6144 10.3451C11.2721 10.3451 11.9293 10.3443 12.587 10.3475C12.7062 10.3479 12.8283 10.3233 12.9451 10.3694C12.935 10.375 12.9305 10.3839 12.9321 10.3956L12.9317 10.396ZM9.64071 3.11045C9.65001 3.24382 9.62374 3.37962 9.66456 3.51098C9.71509 3.67386 9.81169 3.77773 9.9956 3.78016C10.1787 3.78218 10.2967 3.68639 10.3299 3.51947C10.3844 3.2418 10.3816 2.95848 10.3287 2.6796C10.2951 2.50298 10.1633 2.41083 9.9956 2.41365C9.82826 2.41648 9.71185 2.51551 9.66658 2.68889C9.6302 2.82874 9.65001 2.96979 9.64112 3.11004L9.64071 3.11045ZM3.09948 10.3597C3.23328 10.3504 3.36868 10.3762 3.50045 10.3386C3.67264 10.2893 3.78138 10.1887 3.77976 9.9955C3.77814 9.81201 3.67709 9.69722 3.51056 9.66812C3.23247 9.61962 2.94912 9.61679 2.67062 9.67418C2.50288 9.70854 2.41557 9.83666 2.41355 9.99429C2.41153 10.162 2.50611 10.2812 2.67871 10.3306C2.81816 10.3706 2.95923 10.3512 3.09948 10.3593V10.3597ZM16.8917 10.3601C17.0324 10.3496 17.1799 10.3726 17.3262 10.3297C17.4908 10.2821 17.5825 10.1673 17.587 10.0096C17.5914 9.84191 17.5017 9.70854 17.3258 9.67297C17.0473 9.61679 16.764 9.6176 16.4859 9.66893C16.3194 9.69965 16.2207 9.81605 16.2207 9.99954C16.2207 10.183 16.3222 10.2817 16.4851 10.3342C16.6165 10.3762 16.7523 10.3504 16.8921 10.3601H16.8917ZM10.3598 16.8967C10.3501 16.7569 10.3812 16.6073 10.3287 16.4639C10.2729 16.3111 10.173 16.2189 9.99924 16.2193C9.82584 16.2197 9.70821 16.3091 9.67547 16.4667C9.61525 16.7573 9.61484 17.0535 9.67992 17.3449C9.71509 17.5034 9.84322 17.5826 9.99156 17.5862C10.15 17.5899 10.2701 17.5054 10.3246 17.3437C10.3735 17.199 10.3537 17.0511 10.3598 16.8971V16.8967ZM5.71145 5.34632C5.70781 5.33136 5.7066 5.29499 5.69083 5.2671C5.52026 4.97044 5.28016 4.73562 4.99075 4.56223C4.87313 4.4915 4.72398 4.53757 4.62495 4.65114C4.52794 4.7627 4.49601 4.90537 4.57604 5.025C4.74823 5.28246 4.96003 5.51365 5.22923 5.67046C5.44063 5.79374 5.71589 5.6062 5.71145 5.34592V5.34632ZM14.6464 5.71209C14.6633 5.70846 14.7001 5.70846 14.728 5.6931C15.0279 5.52618 15.2595 5.28286 15.4366 4.99631C15.5089 4.87869 15.4649 4.73036 15.3537 4.62932C15.2438 4.52949 15.0995 4.49473 14.9806 4.57395C14.7175 4.74936 14.4786 4.96317 14.3242 5.24245C14.2114 5.44615 14.3974 5.71169 14.6464 5.7125V5.71209ZM5.71185 14.6374C5.71872 14.3775 5.42002 14.1977 5.19528 14.3452C4.95357 14.504 4.7551 14.7182 4.58534 14.9535C4.50813 15.0606 4.5243 15.1859 4.58817 15.2974C4.65405 15.4126 4.76076 15.4611 4.89253 15.4575C5.11565 15.4514 5.70579 14.8609 5.71145 14.637L5.71185 14.6374ZM14.6221 14.2878C14.3788 14.2955 14.2066 14.5723 14.3355 14.7829C14.494 15.0424 14.7155 15.2566 14.9701 15.4199C15.1823 15.5557 15.4503 15.3839 15.4584 15.1309C15.4665 14.8896 14.8618 14.2805 14.6217 14.2878H14.6221Z" fill="#FEFEFE"/>
<path d="M9.65523 9.38V6.05326C9.62855 6.05165 9.60834 6.04559 9.6043 6.05084C9.46566 6.2501 9.20656 6.22827 9.08813 6.12157C8.93817 5.98658 8.92847 5.81521 9.07196 5.59776C9.27204 5.29504 9.47172 4.99232 9.67584 4.69242C9.8642 4.41556 10.1383 4.41758 10.3282 4.69687C10.521 4.98019 10.709 5.26675 10.899 5.55209C11.0663 5.80349 11.0732 5.97162 10.9228 6.11187C10.7737 6.2509 10.6015 6.2315 10.346 6.0278C10.346 7.16191 10.346 8.27378 10.346 9.38606C10.1164 9.28865 9.88643 9.29512 9.65523 9.3804V9.38Z" fill="#213C52"/>
<path d="M10.614 9.65443C11.3185 9.65443 12.0226 9.65443 12.7272 9.65282C12.7999 9.65282 12.8751 9.66737 12.9446 9.63099C12.9475 9.62695 12.9527 9.62008 12.9523 9.61968C12.9458 9.61361 12.9386 9.60876 12.9313 9.60351C12.7381 9.43861 12.7049 9.26603 12.8335 9.0991C12.9507 8.94754 13.1439 8.92571 13.3367 9.05182C13.6572 9.26077 13.9766 9.47134 14.2922 9.68758C14.5509 9.86501 14.5513 10.1338 14.2922 10.3116C13.977 10.5283 13.6572 10.7384 13.3367 10.9478C13.1374 11.0779 12.9369 11.0496 12.8222 10.8831C12.7074 10.717 12.7437 10.5549 12.9309 10.3961C12.9353 10.3961 12.9442 10.3957 12.9442 10.3949C12.945 10.3864 12.9442 10.3783 12.9442 10.3698C12.8274 10.3237 12.7053 10.3484 12.5861 10.348C11.9285 10.3448 11.2712 10.346 10.6136 10.3456C10.709 10.1152 10.7094 9.88481 10.6136 9.65443H10.614Z" fill="#223D53"/>
<path d="M10.614 9.65442C10.7102 9.8848 10.7094 10.1152 10.614 10.3456C10.5542 10.4086 10.5004 10.4789 10.4338 10.5335C10.1496 10.7671 9.73448 10.7344 9.48953 10.4636C9.24337 10.1916 9.25146 9.7785 9.50853 9.51579C9.55501 9.4681 9.60594 9.42526 9.65485 9.37999C9.88565 9.29471 10.116 9.28865 10.3456 9.38605C10.435 9.47537 10.5243 9.5651 10.614 9.65442Z" fill="#519BCE"/>
<path d="M9.64066 3.11008C9.64956 2.96984 9.62975 2.82919 9.66613 2.68894C9.7114 2.51515 9.82781 2.41612 9.99515 2.4137C10.1625 2.41087 10.2947 2.50342 10.3282 2.67964C10.3812 2.95852 10.384 3.24184 10.3294 3.51951C10.2967 3.68643 10.1783 3.78222 9.99515 3.7802C9.81164 3.77818 9.71463 3.6739 9.66411 3.51102C9.62328 3.37926 9.64956 3.24387 9.64026 3.11008H9.64066Z" fill="#BFCDD2"/>
<path d="M3.09948 10.3597C2.95922 10.3516 2.81815 10.371 2.6787 10.331C2.50611 10.2813 2.41152 10.1625 2.41354 9.99472C2.41557 9.83709 2.50287 9.70897 2.67062 9.67462C2.94911 9.61723 3.23246 9.61965 3.51055 9.66856C3.67709 9.69766 3.77814 9.81244 3.77975 9.99593C3.78137 10.1891 3.67264 10.2898 3.50045 10.3391C3.36868 10.3767 3.23287 10.3508 3.09907 10.3601L3.09948 10.3597Z" fill="#BFCDD2"/>
<path d="M16.8917 10.3601C16.7519 10.3504 16.6161 10.3767 16.4847 10.3342C16.3218 10.2821 16.2203 10.1831 16.2203 9.99959C16.2203 9.8165 16.319 9.6997 16.4855 9.66898C16.7636 9.61765 17.0469 9.61684 17.3254 9.67302C17.5017 9.70859 17.591 9.84197 17.5865 10.0097C17.5825 10.1673 17.4903 10.2817 17.3258 10.3298C17.1795 10.3722 17.032 10.3492 16.8913 10.3601H16.8917Z" fill="#BFCDD2"/>
<path d="M10.3598 16.8967C10.3537 17.0507 10.3731 17.199 10.3246 17.3433C10.27 17.505 10.15 17.5899 9.99154 17.5858C9.8432 17.5822 9.71507 17.503 9.6799 17.3446C9.61482 17.0531 9.61523 16.7569 9.67545 16.4663C9.70819 16.3087 9.82582 16.2197 9.99922 16.2189C10.1726 16.2185 10.2725 16.3103 10.3286 16.4635C10.3812 16.6069 10.3501 16.7565 10.3598 16.8963V16.8967Z" fill="#BFCDD2"/>
<path d="M5.71143 5.34632C5.71588 5.60661 5.44021 5.79374 5.22921 5.67087C4.96001 5.51405 4.74862 5.28287 4.57602 5.02541C4.49599 4.90577 4.52752 4.7631 4.62493 4.65155C4.72396 4.53798 4.87271 4.4919 4.99073 4.56263C5.28014 4.73602 5.52024 4.97085 5.69081 5.26751C5.70698 5.2954 5.70779 5.33177 5.71143 5.34672V5.34632Z" fill="#BECDD2"/>
<path d="M14.6463 5.71214C14.3974 5.71133 14.2114 5.44619 14.3242 5.24208C14.4786 4.9628 14.7175 4.749 14.9806 4.57359C15.0995 4.49437 15.2438 4.52913 15.3537 4.62896C15.4649 4.73 15.5093 4.87874 15.4366 4.99594C15.2595 5.2825 15.0279 5.52581 14.728 5.69274C14.7001 5.70809 14.6633 5.70809 14.6463 5.71173V5.71214Z" fill="#BECDD2"/>
<path d="M5.71183 14.6374C5.70617 14.8613 5.11604 15.4514 4.89292 15.4579C4.76074 15.4615 4.65443 15.413 4.58855 15.2978C4.52469 15.1859 4.50852 15.0606 4.58572 14.9539C4.75508 14.7187 4.95395 14.5044 5.19566 14.3456C5.4204 14.1981 5.71911 14.3779 5.71224 14.6378L5.71183 14.6374Z" fill="#BECDD2"/>
<path d="M14.6221 14.2879C14.8618 14.2802 15.4665 14.8897 15.4588 15.131C15.4503 15.3844 15.1827 15.5557 14.9705 15.4199C14.7159 15.2571 14.4944 15.0424 14.3359 14.783C14.207 14.572 14.3792 14.2951 14.6225 14.2879H14.6221Z" fill="#BECDD2"/>
<path d="M12.9317 9.60345C12.939 9.60871 12.9463 9.61356 12.9527 9.61962C12.9531 9.62003 12.9479 9.6273 12.9451 9.63094C12.9349 9.62447 12.9305 9.61558 12.9317 9.60345Z" fill="#519BCE"/>
<path d="M12.9451 10.3698C12.9451 10.3783 12.9463 10.3868 12.9451 10.3948C12.9451 10.3957 12.9362 10.3961 12.9317 10.3961C12.9305 10.3843 12.9346 10.3754 12.9451 10.3694V10.3698Z" fill="#519BCE"/>
</g>
<defs>
<clipPath id="clip0_283_1806">
<rect width="20" height="20" fill="white"/>
</clipPath>
</defs>
</svg>
