<svg width="20" height="20" viewBox="0 0 20 20" fill="none" xmlns="http://www.w3.org/2000/svg">
<path d="M20 9.99111C20.0089 15.5119 15.5325 19.9939 10.0032 20C4.48486 20.0065 -0.00202025 15.5203 6.82419e-07 9.99798C0.00202162 4.4732 4.4885 -0.00968399 10.0069 1.57109e-05C15.5317 0.00971541 19.9911 4.46835 20 9.99111ZM9.99029 18.6089C14.7399 18.6562 18.5865 14.7379 18.6185 10.0606C18.6512 5.27261 14.7306 1.40364 10.0509 1.38142C5.27868 1.35838 1.3896 5.26736 1.38111 9.9802C1.37262 14.7367 5.27222 18.6441 9.99029 18.6093V18.6089Z" fill="#FDDD22"/>
<path d="M9.9903 18.6089C5.27223 18.6441 1.37263 14.7367 1.38112 9.9798C1.38961 5.26737 5.27869 1.35839 10.0509 1.38102C14.7306 1.40365 18.6508 5.27222 18.6185 10.0602C18.5866 14.7375 14.7403 18.6558 9.9903 18.6085V18.6089ZM9.31289 12.1129C9.31289 12.4629 9.30763 12.8133 9.31491 13.1633C9.31854 13.3395 9.2563 13.369 9.09584 13.3185C8.67548 13.1864 8.30606 12.9794 8.01585 12.6424C7.89985 12.5078 7.74868 12.4072 7.5765 12.4346C7.18565 12.4969 6.7948 12.5721 6.41325 12.6763C6.09758 12.7628 5.9747 13.1124 6.10404 13.4091C6.3126 13.8868 6.66142 14.2489 7.0559 14.567C7.66744 15.06 8.38447 15.3215 9.15202 15.4484C9.28702 15.4706 9.31652 15.5264 9.3145 15.6452C9.30965 15.9144 9.31086 16.184 9.31369 16.4531C9.31652 16.7134 9.47173 16.888 9.73041 16.9058C9.91149 16.9183 10.0946 16.9191 10.2753 16.9054C10.5517 16.884 10.6823 16.7344 10.6867 16.456C10.6895 16.2539 10.6875 16.0518 10.6875 15.8501C10.6875 15.4803 10.6891 15.4872 11.044 15.4129C12.0403 15.2035 12.9114 14.7763 13.5476 13.949C14.0423 13.306 14.2177 12.5765 14.1009 11.7819C13.9461 10.7275 13.2472 10.1156 12.3427 9.68235C11.8738 9.45764 11.3827 9.29436 10.8791 9.16826C10.7397 9.13351 10.6831 9.06278 10.6847 8.91324C10.6916 8.22658 10.6867 7.53952 10.6883 6.85286C10.6887 6.63462 10.7085 6.62694 10.9268 6.68918C11.3468 6.80881 11.6988 7.03271 11.9866 7.35927C12.1042 7.49264 12.2546 7.59247 12.4271 7.56458C12.818 7.50194 13.2088 7.42676 13.5904 7.32209C13.9053 7.23519 14.0273 6.88439 13.8948 6.58774C13.683 6.11326 13.3362 5.74952 12.9417 5.43024C12.3358 4.94 11.6248 4.68094 10.865 4.55403C10.7094 4.52817 10.6827 4.46391 10.6859 4.33054C10.6924 4.06137 10.6916 3.7918 10.6863 3.52263C10.6811 3.25387 10.5254 3.09867 10.2579 3.09019C10.1099 3.08534 9.96161 3.08857 9.81327 3.08897C9.4786 3.09059 9.31491 3.25144 9.31329 3.58083C9.31208 3.84353 9.30965 4.10623 9.3141 4.36853C9.31612 4.4825 9.27974 4.52978 9.15768 4.54999C8.8125 4.60617 8.47177 4.68579 8.146 4.81835C7.26446 5.17684 6.5341 5.71072 6.12385 6.59986C5.61053 7.7121 5.83485 9.15088 6.99043 9.93373C7.64117 10.3747 8.36992 10.6265 9.11645 10.8358C9.27327 10.8799 9.31935 10.951 9.31571 11.1025C9.30763 11.4392 9.31329 11.7759 9.31329 12.1125L9.31289 12.1129Z" fill="#F8BF21"/>
<path d="M9.31287 12.1129C9.31287 11.7763 9.30721 11.4396 9.31529 11.103C9.31893 10.9514 9.27285 10.8803 9.11603 10.8362C8.3699 10.6269 7.64075 10.3751 6.99001 9.93414C5.83444 9.1513 5.61052 7.71251 6.12343 6.60027C6.53368 5.71154 7.26405 5.17725 8.14558 4.81876C8.47135 4.6862 8.81208 4.60658 9.15726 4.5504C9.27932 4.5306 9.3157 4.48291 9.31368 4.36894C9.30923 4.10624 9.31166 3.84394 9.31287 3.58124C9.31449 3.25186 9.47818 3.09141 9.81285 3.08939C9.96119 3.08858 10.1091 3.08575 10.2575 3.0906C10.525 3.09949 10.6806 3.25428 10.6859 3.52304C10.6911 3.79221 10.6916 4.06178 10.6855 4.33095C10.6823 4.46391 10.7093 4.52817 10.8645 4.55444C11.6244 4.68135 12.3354 4.94041 12.9413 5.43065C13.3357 5.74993 13.6825 6.11367 13.8943 6.58815C14.0269 6.8852 13.9048 7.23601 13.59 7.3225C13.2088 7.42758 12.8176 7.50235 12.4267 7.56499C12.2541 7.59288 12.1038 7.49305 11.9862 7.35968C11.6984 7.03312 11.3459 6.80963 10.9264 6.68959C10.7081 6.62735 10.6883 6.63503 10.6879 6.85327C10.6867 7.53993 10.6911 8.22699 10.6843 8.91365C10.6827 9.06319 10.7392 9.13351 10.8787 9.16867C11.3823 9.29477 11.8734 9.45845 12.3423 9.68276C13.2468 10.1156 13.9457 10.7275 14.1005 11.7823C14.2173 12.5765 14.0415 13.306 13.5471 13.9494C12.9109 14.7767 12.0399 15.2039 11.0436 15.4133C10.6887 15.4876 10.6871 15.4808 10.6871 15.8506C10.6871 16.0526 10.6895 16.2547 10.6863 16.4564C10.6823 16.7348 10.5513 16.8844 10.2748 16.9058C10.0942 16.9199 9.91066 16.9187 9.72999 16.9062C9.47171 16.8884 9.3161 16.7138 9.31327 16.4536C9.31044 16.1844 9.30923 15.9148 9.31408 15.6456C9.3161 15.5268 9.2866 15.4715 9.1516 15.4488C8.38405 15.3219 7.66742 15.0604 7.05548 14.5674C6.661 14.2493 6.31178 13.8872 6.10362 13.4095C5.97428 13.1124 6.09716 12.7628 6.41283 12.6767C6.79438 12.5725 7.18523 12.4973 7.57608 12.435C7.74826 12.4076 7.89943 12.5082 8.01543 12.6428C8.30564 12.9798 8.67506 13.1868 9.09542 13.3189C9.25588 13.3695 9.31812 13.34 9.31449 13.1637C9.30721 12.8137 9.31247 12.4633 9.31247 12.1133L9.31287 12.1129ZM10.6875 12.3122C10.6875 12.6012 10.6907 12.8897 10.6863 13.1787C10.6843 13.3238 10.7295 13.3763 10.8791 13.3254C11.2461 13.2001 11.5836 13.0344 11.8504 12.7406C12.1685 12.3902 12.1337 11.9735 11.7453 11.7043C11.483 11.5229 11.1806 11.4279 10.8823 11.3248C10.7388 11.2751 10.6835 11.3155 10.6859 11.4667C10.6907 11.7488 10.6871 12.0309 10.6871 12.313L10.6875 12.3122ZM9.31287 7.6927C9.31287 7.40373 9.30842 7.11517 9.31449 6.8262C9.31812 6.6613 9.25628 6.62695 9.10633 6.67949C8.74741 6.80518 8.41598 6.96846 8.15285 7.25662C7.82708 7.61349 7.86426 8.03381 8.26845 8.30378C8.52673 8.47636 8.82461 8.56689 9.11361 8.67439C9.27488 8.73461 9.31732 8.67076 9.31449 8.51879C9.30883 8.24357 9.31287 7.96793 9.31287 7.6927Z" fill="#FEDE22"/>
<path d="M10.6875 12.3121C10.6875 12.03 10.6907 11.7479 10.6863 11.4658C10.6839 11.3147 10.7388 11.2743 10.8827 11.324C11.181 11.4274 11.4834 11.522 11.7457 11.7035C12.1341 11.9727 12.1689 12.3897 11.8508 12.7397C11.584 13.034 11.2461 13.1997 10.8795 13.3245C10.7299 13.3755 10.6847 13.3229 10.6867 13.1778C10.6911 12.8893 10.6879 12.6003 10.6879 12.3113L10.6875 12.3121Z" fill="#F8BF21"/>
<path d="M9.31291 7.69269C9.31291 7.96792 9.30887 8.24355 9.31453 8.51878C9.31776 8.67075 9.27492 8.7346 9.11365 8.67438C8.82465 8.56647 8.52677 8.47635 8.26849 8.30377C7.86431 8.0338 7.82712 7.61348 8.1529 7.25661C8.41602 6.96845 8.74705 6.80517 9.10637 6.67948C9.25633 6.62694 9.31817 6.66129 9.31453 6.82619C9.30806 7.11475 9.31291 7.40372 9.31291 7.69269Z" fill="#F8BF21"/>
</svg>
