<svg width="20" height="20" viewBox="0 0 20 20" fill="none" xmlns="http://www.w3.org/2000/svg">
<g clip-path="url(#clip0_283_1805)">
<path d="M18.1661 7.25099C18.0396 8.44144 17.914 9.63229 17.7867 10.8227C17.6582 12.0265 17.528 13.2303 17.3987 14.4341C17.3478 14.9089 17.2973 15.3837 17.2464 15.8585C15.4731 15.8581 13.6999 15.8573 11.9266 15.8569C12.7579 14.9643 12.9793 13.9415 12.5473 12.7987C12.0523 11.4895 11.1863 10.4259 10.2463 9.41691C10.0996 9.25932 9.89635 9.26901 9.74521 9.43105C8.86909 10.3698 8.07299 11.3662 7.55249 12.5539C7.29345 13.1446 7.1702 13.7568 7.29749 14.403C7.40903 14.9691 7.6915 15.4411 8.08107 15.8565C6.30782 15.8569 4.53457 15.8577 2.76091 15.8581C2.51925 13.5907 2.27759 11.3234 2.03553 9.05646C1.97127 8.45437 1.90621 7.85268 1.84155 7.25099C1.93046 7.19078 2.03674 7.21341 2.13373 7.19321C2.63564 7.08936 2.96701 6.76123 3.25029 6.36604C3.99427 7.10592 4.73865 7.84581 5.48262 8.5857C5.63537 8.73764 5.78409 8.89362 5.93967 9.04232C6.42137 9.50177 7.13666 9.35993 7.37589 8.74047C7.98813 7.15603 8.58662 5.56594 9.19077 3.97827C9.66318 4.16617 10.1429 4.19729 10.6322 4.04737C10.6892 4.03 10.7515 4.02959 10.8109 4.02111C11.1083 4.70442 11.3504 5.40915 11.6195 6.10338C11.9468 6.94914 12.2661 7.79813 12.5906 8.6451C12.8751 9.38822 13.573 9.53652 14.1375 8.97322C14.9619 8.15009 15.7843 7.32534 16.6079 6.50141C16.6552 6.45413 16.7065 6.41129 16.7562 6.36604C16.9198 6.5499 17.0544 6.75558 17.2569 6.90873C17.5297 7.11481 17.8428 7.18997 18.1653 7.25059L18.1661 7.25099Z" fill="#E0AB4D"/>
<path d="M17.697 17.9307C18.137 18.0838 18.2825 18.2879 18.2833 18.7538C18.2833 18.9357 18.2882 19.1175 18.2821 19.2989C18.2684 19.7042 17.9972 19.9774 17.5947 19.998C17.541 20.0008 17.4872 20 17.4331 20C12.4803 20 7.52704 20 2.57422 20C2.4057 20 2.23759 20.0033 2.08443 19.9132C1.84883 19.775 1.73406 19.5664 1.72639 19.2981C1.72113 19.1167 1.72477 18.9349 1.72517 18.753C1.72598 18.2875 1.87227 18.0826 2.31154 17.9303C2.37863 17.9275 2.44571 17.9226 2.5132 17.9226C7.50723 17.9226 12.5013 17.9226 17.4957 17.9226C17.5628 17.9226 17.6299 17.9275 17.6974 17.9303L17.697 17.9307Z" fill="#B48037"/>
<path d="M17.697 17.9307C17.6299 17.9278 17.5628 17.923 17.4953 17.923C12.5013 17.923 7.50726 17.923 2.51281 17.923C2.44573 17.923 2.37865 17.9278 2.31116 17.9307C1.9422 17.841 1.73368 17.59 1.7256 17.2195C1.72115 17.0182 1.72317 16.817 1.72479 16.6158C1.72924 16.147 2.0105 15.8674 2.47927 15.8629C2.57303 15.8621 2.66718 15.8601 2.76094 15.8585C4.53419 15.8581 6.30744 15.8573 8.0811 15.8569C8.64201 16.3519 9.28778 16.6343 10.0443 16.6234C10.7697 16.6129 11.3892 16.3329 11.9271 15.8573C13.7003 15.8577 15.4736 15.8585 17.2468 15.8589C17.3608 15.8605 17.4751 15.8601 17.5891 15.8637C17.9762 15.8767 18.2619 16.1486 18.2801 16.5357C18.2914 16.777 18.2935 17.0194 18.2797 17.2603C18.2583 17.6272 18.0445 17.8401 17.697 17.9307Z" fill="#C89441"/>
<path d="M10.8117 4.02152C10.7519 4.03001 10.69 4.03041 10.6331 4.04779C10.1437 4.1977 9.66439 4.16659 9.19158 3.97869C8.53247 3.66067 8.10694 3.1596 7.96994 2.42941C7.76344 1.32705 8.49772 0.26268 9.62075 0.0380063C10.7078 -0.179394 11.8098 0.556453 12.0264 1.64467C12.2103 2.56801 11.7904 3.45781 10.9632 3.90353C10.9074 3.93343 10.8282 3.93868 10.8117 4.02112V4.02152Z" fill="#F5BA5B"/>
<path d="M3.25112 6.36647C2.96743 6.76167 2.63606 7.08979 2.13455 7.19364C2.03716 7.21384 1.93128 7.19121 1.84238 7.25142C1.02203 7.2397 0.417473 6.88815 0.112367 6.10987C-0.168896 5.39261 0.09499 4.57271 0.725004 4.11933C1.34289 3.67442 2.18749 3.69261 2.79164 4.16418C3.39781 4.63696 3.61523 5.46494 3.32103 6.18018C3.29557 6.2416 3.27456 6.30464 3.25152 6.36728L3.25112 6.36647Z" fill="#F5BA5B"/>
<path d="M18.1662 7.251C17.8437 7.19038 17.5305 7.11522 17.2577 6.90914C17.0553 6.75639 16.9207 6.5503 16.757 6.36644C16.6099 5.99468 16.5097 5.6209 16.5841 5.21034C16.734 4.38156 17.5111 3.74794 18.3432 3.79684C19.2706 3.85139 19.9596 4.54238 19.9984 5.45643C20.0352 6.32644 19.4015 7.09663 18.5472 7.21665C18.4212 7.23443 18.2935 7.23968 18.1662 7.25059V7.251Z" fill="#F5BA5B"/>
<path d="M11.9271 15.8569C11.3892 16.3329 10.7701 16.6125 10.0443 16.623C9.28778 16.6339 8.64201 16.3519 8.0811 15.8565C7.69153 15.4411 7.40906 14.9687 7.29752 14.403C7.17023 13.7568 7.29348 13.1446 7.55252 12.5539C8.07342 11.3662 8.86952 10.3698 9.74524 9.43106C9.89638 9.26902 10.0996 9.25932 10.2463 9.41691C11.1863 10.4259 12.0523 11.4895 12.5474 12.7987C12.9794 13.9415 12.7575 14.9643 11.9266 15.8569H11.9271ZM8.28154 13.8126C8.27548 13.9468 8.40075 14.1056 8.57856 14.127C8.77133 14.1504 8.91398 14.0522 8.96045 13.851C9.00127 13.6744 9.03117 13.4962 9.10027 13.3261C9.34557 12.7216 9.70847 12.189 10.0956 11.6705C10.2577 11.4535 10.2544 11.2454 10.0908 11.1153C9.92669 10.9844 9.72261 11.028 9.5545 11.2446C9.17423 11.7348 8.83194 12.25 8.56523 12.8117C8.42338 13.1107 8.31306 13.421 8.28113 13.813L8.28154 13.8126Z" fill="#2E629A"/>
<path d="M8.28156 13.8126C8.31348 13.4207 8.4238 13.1103 8.56565 12.8113C8.83236 12.2496 9.17424 11.734 9.55492 11.2442C9.72303 11.0277 9.92711 10.9844 10.0912 11.1149C10.2548 11.2455 10.2581 11.4532 10.096 11.6702C9.70889 12.189 9.34599 12.7216 9.10069 13.3257C9.03159 13.4958 9.00169 13.674 8.96087 13.8506C8.9144 14.0515 8.77175 14.1501 8.57898 14.1266C8.40117 14.1048 8.2759 13.9464 8.28196 13.8122L8.28156 13.8126Z" fill="#4A94FC"/>
</g>
<defs>
<clipPath id="clip0_283_1805">
<rect width="20" height="20" fill="white"/>
</clipPath>
</defs>
</svg>
