<svg width="20" height="20" viewBox="0 0 20 20" fill="none" xmlns="http://www.w3.org/2000/svg">
<g clip-path="url(#clip0_1238_14111)">
<path d="M20 7.64026V7.88273L19.8645 8.12642L15.2953 12.8096L16.3672 19.3779C16.4281 19.8385 15.9973 20.1458 15.5988 19.9296L10.0168 16.8523L4.40156 19.9296C4.00469 20.1458 3.57266 19.8397 3.6332 19.3779L4.70508 12.8096L0.135547 8.12642L0 7.92321V7.64026C0.101562 7.40142 0.171484 7.31399 0.421094 7.2476L6.71914 6.28741L9.56289 0.25952C9.76211 -0.0873944 10.2406 -0.0849657 10.4375 0.25952L13.2809 6.28782L19.5793 7.2476C19.8289 7.31439 19.8988 7.40142 20.0004 7.64026H20ZM10.0387 0.933513C9.93672 0.914893 9.97851 0.948896 9.95742 0.990995C9.02695 2.86158 8.21836 4.80139 7.28633 6.67157C7.23047 6.80475 7.11914 6.88368 6.9918 6.93266L0.859375 7.88273C2.20859 9.24043 3.52539 10.6329 4.86211 12.0044C5.13672 12.2862 5.42344 12.376 5.38594 12.8666L4.33555 19.154L9.84219 16.1435H10.1574L15.6641 19.154L14.6141 12.8666C14.5871 12.389 14.7957 12.3578 15.0598 12.0854C16.4184 10.6831 17.7691 9.2716 19.1406 7.88314L13.0082 6.93307C12.9547 6.91121 12.9008 6.88571 12.8539 6.85008C12.6891 6.72419 12.2789 5.77291 12.1539 5.51384C11.4457 4.04643 10.757 2.56081 10.0699 1.08248C10.0484 1.03593 10.0383 0.985328 10.0387 0.933918V0.933513Z" fill="black"/>
<path d="M10.0387 0.933482C10.0383 0.984892 10.0484 1.0359 10.0699 1.08204C10.757 2.56038 11.4461 4.04559 12.1539 5.5134C12.2789 5.77247 12.6891 6.72376 12.8539 6.84965C12.9004 6.88527 12.9543 6.91077 13.0082 6.93263L19.1406 7.8827C17.7691 9.27117 16.4184 10.6827 15.0598 12.0849C14.7957 12.3574 14.5875 12.3885 14.6141 12.8662L15.6641 19.1536L10.1574 16.1431H9.84219L4.33555 19.1536L5.38594 12.8662C5.42305 12.3756 5.13633 12.2857 4.86211 12.004C3.52539 10.6329 2.2082 9.2404 0.859375 7.8823L6.9918 6.93223C7.11914 6.88325 7.23008 6.80431 7.28633 6.67113C8.21836 4.80055 9.02695 2.86114 9.95742 0.990559C9.97813 0.94846 9.93672 0.914457 10.0387 0.933077V0.933482Z" fill="white"/>
</g>
<defs>
<clipPath id="clip0_1238_14111">
<rect width="20" height="20" fill="white"/>
</clipPath>
</defs>
</svg>
