<svg width="20" height="20" viewBox="0 0 20 20" fill="none" xmlns="http://www.w3.org/2000/svg">
<path d="M14.8955 2.70175C15.3201 2.70175 15.7482 2.77544 16.1727 2.92281C18.2955 3.65965 19.2955 5.99298 19.1833 7.91579C18.9833 11.3193 14.8043 15.1368 12.0394 16.8737C11.3061 17.3333 10.6254 17.6982 9.9622 17.9825C8.87098 17.5193 7.74817 16.8561 6.54115 15.9614C4.36922 14.3544 1.76922 11.7474 0.986765 9.26316C0.446414 7.54737 0.688519 5.80702 1.65343 4.49474C2.46747 3.38596 3.70957 2.72281 4.97624 2.72281C6.58676 2.72281 8.09203 3.75439 9.21483 5.63158C9.21483 5.6386 9.21834 5.64561 9.22185 5.65263C9.24641 5.72982 9.28852 5.87719 9.43238 6.01053C9.56922 6.13684 9.74817 6.20351 9.94817 6.20351C10.1727 6.20351 10.3727 6.11579 10.5166 5.95789C10.5762 5.89123 10.6219 5.81404 10.6534 5.73333C11.4183 4.25614 12.9236 2.70175 14.8955 2.70175ZM14.8955 2C12.7797 2 10.9727 3.54386 10.0008 5.47018C10.0008 5.49474 9.97273 5.50175 9.94817 5.50175C9.93062 5.50175 9.91308 5.50175 9.90957 5.49474C9.90255 5.48772 9.87448 5.36491 9.8429 5.31579C8.46045 2.98596 6.65694 2.02807 4.97273 2.02807C1.8008 2.02807 -0.953586 5.4386 0.316589 9.47719C1.1622 12.1614 3.90255 14.8842 6.12361 16.5298C7.30957 17.407 8.59027 18.2 9.96571 18.7439C10.8219 18.4 11.6359 17.9579 12.4113 17.4702C15.3762 15.607 19.664 11.6772 19.8815 7.95789C20.0219 5.57193 18.7271 3.06667 16.4008 2.25965C15.885 2.0807 15.3797 2 14.892 2L14.8955 2Z" fill="#040000"/>
</svg>
