<svg width="20" height="20" viewBox="0 0 20 20" fill="none" xmlns="http://www.w3.org/2000/svg">
<path d="M11.9571 9.89534C14.7235 9.89534 16.9739 7.67581 16.9739 4.94767C16.9739 2.21954 14.7235 0 11.9571 0C9.1906 0 6.93988 2.21954 6.93988 4.94767C6.93988 7.67581 9.1906 9.89534 11.9571 9.89534ZM11.3629 2.03946V1.90508C11.3629 1.58125 11.6287 1.31914 11.9571 1.31914C12.2851 1.31914 12.5512 1.58125 12.5512 1.90508V2.04024C13.2583 2.18985 13.7903 2.81095 13.7903 3.55236C13.7903 3.87579 13.5241 4.13829 13.1961 4.13829C12.8677 4.13829 12.6019 3.87579 12.6019 3.55236C12.6019 3.34571 12.4312 3.17735 12.2217 3.17735H11.6889C11.4794 3.17735 11.3086 3.34571 11.3086 3.55236C11.3086 3.67071 11.3661 3.78322 11.4627 3.85353L11.9571 4.21447L13.1581 5.09103C13.5526 5.37892 13.7903 5.83947 13.7935 6.32385V6.32932C13.7962 6.7426 13.6358 7.13244 13.3411 7.42659C13.1224 7.64495 12.8491 7.79143 12.5512 7.85315V7.99026C12.5512 8.31409 12.2851 8.5762 11.9571 8.5762C11.6287 8.5762 11.3629 8.31409 11.3629 7.99026V7.8551C11.0729 7.79417 10.8064 7.65354 10.5909 7.44338C10.2926 7.15315 10.127 6.76565 10.1246 6.35236C10.1227 6.02892 10.3869 5.76486 10.7149 5.76291H10.7188C11.0452 5.76291 11.311 6.02307 11.313 6.34533C11.3138 6.54756 11.4788 6.71799 11.6952 6.71799C12.0235 6.71604 11.9013 6.71674 12.2272 6.71486C12.4381 6.71322 12.6067 6.54443 12.6051 6.33713V6.33166C12.6043 6.21447 12.5469 6.10275 12.451 6.03283L11.9571 5.67228L10.7557 4.79572C10.358 4.50509 10.1203 4.04025 10.1203 3.55236C10.1203 2.80938 10.6539 2.1879 11.3629 2.03946Z" fill="#396AFF"/>
<path d="M3.82804 12.7108C3.67574 12.4504 3.33742 12.3598 3.07174 12.5109L0.276837 14.1019C0.0121929 14.253 -0.0785965 14.5868 0.0741849 14.8481L2.93073 19.7271C3.08363 19.988 3.42191 20.0776 3.68703 19.927L6.48193 18.3355C6.74697 18.1848 6.83741 17.8511 6.68459 17.5897L3.82804 12.7108Z" fill="#396AFF"/>
<path d="M19.8424 11.7367C19.5735 11.3684 19.053 11.2852 18.6798 11.5504C17.5477 12.3547 15.3738 13.8992 15.2011 14.0223C15.1215 14.0891 15.0379 14.1496 14.9508 14.2031C14.609 14.4152 14.2124 14.5285 13.7985 14.5285H10.9524C10.6244 14.5285 10.3582 14.2664 10.3582 13.9426C10.3582 13.6184 10.6248 13.3566 10.9524 13.3566H13.9962C14.4434 13.3566 14.8015 12.9895 14.7828 12.5477C14.7654 12.1285 14.4026 11.8035 13.9771 11.8035H11.6603C11.5034 11.6398 11.3315 11.4898 11.1473 11.3559C10.5139 10.8953 9.73119 10.623 8.88391 10.623C7.37748 10.623 5.87858 11.559 5.25708 12.8082L7.68764 16.9594H12.2469C13.1421 16.9594 14.0239 16.7336 14.7999 16.2934C15.0688 16.141 15.3568 15.9578 15.669 15.7367C16.9769 14.8102 19.6511 12.8852 19.6531 12.884C20.027 12.6191 20.1118 12.1051 19.8424 11.7367Z" fill="#396AFF"/>
</svg>
