<svg width="20" height="20" viewBox="0 0 20 20" fill="none" xmlns="http://www.w3.org/2000/svg">
<g clip-path="url(#clip0_283_1799)">
<path d="M12.7207 1.71599C14.055 1.71404 15.3894 1.70818 16.7238 1.71326C17.1105 1.71482 17.3714 2.00701 17.3742 2.41912C17.3785 3.07029 17.375 3.72107 17.3757 4.37224C17.3757 4.45037 17.3808 4.5281 17.3835 4.60623C17.3835 5.68826 17.3828 6.77068 17.3828 7.85271C17.3468 7.88982 17.3148 7.93162 17.2746 7.96326C16.0031 8.97263 14.73 9.98044 13.4589 10.9902C12.6812 11.6082 11.9062 12.2293 11.1296 12.8488C11.0296 12.8449 10.9671 12.7746 10.8972 12.7179C10.3398 12.2644 9.79917 12.2551 9.22925 12.6844C9.14331 12.7492 9.07144 12.8441 8.94878 12.848C8.93042 12.8297 8.91401 12.809 8.8937 12.7929C7.18472 11.4367 5.47417 10.0816 3.76636 8.72341C3.4062 8.43709 3.02769 8.17263 2.69487 7.85232C2.69487 6.77068 2.69448 5.68865 2.69409 4.60701C2.69683 3.89919 2.69956 3.19138 2.70229 2.48357C2.70425 1.96169 2.95659 1.70896 3.4812 1.70935C4.77339 1.71013 6.06597 1.71287 7.35815 1.71482C9.14526 1.71482 10.9328 1.71521 12.7199 1.7156L12.7207 1.71599ZM10.0601 7.38123C8.33628 7.38123 6.61206 7.38123 4.88823 7.38123C4.81675 7.38123 4.74487 7.37966 4.67378 7.38435C4.53706 7.39334 4.44019 7.46287 4.39526 7.59295C4.35073 7.72146 4.38511 7.83513 4.47729 7.93435C4.58237 8.04763 4.71792 8.04646 4.85659 8.04646C8.31128 8.04568 11.7656 8.04607 15.2203 8.04568C15.2789 8.04568 15.3382 8.04841 15.3957 8.04021C15.5742 8.01443 15.7054 7.86209 15.7023 7.69138C15.6988 7.51052 15.5738 7.39373 15.3699 7.38279C15.305 7.37927 15.2398 7.38123 15.1746 7.38123C13.4699 7.38123 11.7656 7.38123 10.0609 7.38123H10.0601ZM10.0386 4.02615C11.757 4.02615 13.4757 4.02615 15.1941 4.02615C15.2656 4.02615 15.3378 4.02888 15.4089 4.02224C15.5726 4.0074 15.6746 3.91482 15.6972 3.75349C15.7195 3.59373 15.6453 3.47576 15.5015 3.40544C15.4179 3.36443 15.3261 3.36091 15.2343 3.36091C11.771 3.3613 8.30815 3.3613 4.84487 3.36091C4.74604 3.36091 4.64761 3.36482 4.56011 3.41326C4.42026 3.4906 4.35308 3.61287 4.38394 3.77146C4.41323 3.92263 4.51323 4.00857 4.66831 4.02185C4.7394 4.02771 4.81128 4.02576 4.88315 4.02576C6.60151 4.02576 8.32026 4.02576 10.0386 4.02576V4.02615ZM10.0589 5.38748C8.33394 5.38748 6.60894 5.38748 4.88354 5.38748C4.81831 5.38748 4.75308 5.38591 4.68823 5.38943C4.51597 5.39919 4.40425 5.48865 4.38081 5.65974C4.35776 5.8281 4.43862 5.94802 4.59409 6.01521C4.67339 6.04959 4.75815 6.05232 4.84331 6.05232C8.30659 6.05232 11.7695 6.05232 15.2328 6.05232C15.3179 6.05232 15.4027 6.04959 15.482 6.0156C15.6378 5.9488 15.7187 5.82888 15.6964 5.66091C15.6738 5.48982 15.5625 5.39959 15.3898 5.38982C15.325 5.3863 15.2597 5.38787 15.1945 5.38787C13.4824 5.38787 11.7703 5.38787 10.0582 5.38787L10.0589 5.38748ZM10.0539 9.37498C9.88472 9.37498 9.71558 9.37498 9.54644 9.37498C8.7269 9.37498 7.90737 9.3738 7.08784 9.37615C6.83433 9.37693 6.69839 9.51834 6.71987 9.74568C6.73862 9.9449 6.86597 10.0386 7.12651 10.039C9.0648 10.0398 11.0031 10.039 12.9414 10.039C12.9867 10.039 13.0328 10.041 13.0777 10.0351C13.2503 10.0121 13.3554 9.89177 13.3593 9.71677C13.3644 9.49763 13.2339 9.37615 12.9804 9.37576C12.0046 9.3742 11.0292 9.37498 10.0535 9.37498H10.0539Z" fill="#CBAB91"/>
<path d="M8.94885 12.8481C9.07151 12.8442 9.14338 12.7492 9.22932 12.6844C9.79924 12.2555 10.3399 12.2649 10.8973 12.718C10.9672 12.775 11.0301 12.8449 11.1297 12.8489C11.1403 12.9211 11.1965 12.9547 11.2481 12.9953C11.5086 13.1992 11.7676 13.4055 12.027 13.611C13.2008 14.543 14.3746 15.4754 15.5485 16.4074C16.5903 17.2344 17.6301 18.0641 18.6762 18.886C18.9094 19.0692 19.1188 19.286 19.3891 19.4203C19.2106 19.6403 18.9598 19.6922 18.6981 19.718C18.6528 19.7223 18.6071 19.7192 18.5614 19.7192C12.8797 19.7192 7.19807 19.7192 1.51643 19.7192C1.20471 19.7192 0.908618 19.6758 0.689087 19.4199C0.734399 19.3961 0.785181 19.3789 0.824634 19.3477C1.75198 18.6164 2.67932 17.8848 3.60471 17.1508C5.30784 15.8 7.01057 14.4489 8.71057 13.0938C8.79807 13.0239 8.91799 12.9758 8.94885 12.8477V12.8481Z" fill="#C0D1DF"/>
<path d="M8.94883 12.8481C8.91797 12.9762 8.79844 13.0246 8.71055 13.0942C7.01055 14.4492 5.30781 15.8004 3.60469 17.1512C2.6793 17.8852 1.75195 18.6168 0.824609 19.3481C0.785156 19.3793 0.734375 19.3965 0.689062 19.4203C0.499609 19.2617 0.40625 19.0539 0.383203 18.8125C0.374609 18.7223 0.373828 18.6309 0.373828 18.5399C0.373438 14.6121 0.373438 10.684 0.373828 6.75626C0.373828 6.55509 0.366797 6.35197 0.480469 6.17072C0.546094 6.18282 0.6 6.21798 0.651172 6.25861C1.09648 6.61212 1.53828 6.96915 1.98828 7.31681C2.22227 7.49767 2.43242 7.71056 2.69531 7.85275C3.02813 8.17306 3.40664 8.43751 3.7668 8.72384C5.47461 10.082 7.18477 11.4367 8.89414 12.7934C8.91445 12.8094 8.93086 12.8297 8.94922 12.8485L8.94883 12.8481Z" fill="#CFDFEE"/>
<path d="M19.3895 19.4203C19.1192 19.2859 18.9098 19.0691 18.6766 18.8859C17.6305 18.0644 16.5907 17.2347 15.5489 16.4074C14.375 15.4754 13.2012 14.5429 12.0274 13.6109C11.7684 13.4051 11.509 13.1992 11.2485 12.9953C11.1969 12.9547 11.1407 12.9211 11.1301 12.8488C11.9063 12.2293 12.6817 11.6078 13.4594 10.9902C14.7305 9.98044 16.0036 8.97263 17.275 7.96326C17.3149 7.93162 17.3473 7.88982 17.3833 7.85271C17.4125 7.84021 17.4469 7.83318 17.4711 7.81404C17.9317 7.4488 18.3864 7.07615 18.8528 6.71873C19.0973 6.53162 19.3125 6.30271 19.5981 6.17029C19.6969 6.32615 19.7043 6.50232 19.7043 6.67771C19.7051 10.664 19.7047 14.65 19.7051 18.6363C19.7051 18.9406 19.6321 19.214 19.3899 19.4203H19.3895Z" fill="#CFDFEE"/>
<path d="M12.7207 1.71602C10.9336 1.71602 9.14612 1.71563 7.35901 1.71524C7.96409 1.3379 8.55862 0.942584 9.17737 0.589068C9.73323 0.27149 10.3293 0.266802 10.8864 0.582818C11.511 0.937115 12.1106 1.33633 12.7207 1.71563V1.71602Z" fill="#E6F0FB"/>
<path d="M19.5973 6.17069C19.3121 6.30311 19.0969 6.53202 18.852 6.71913C18.3852 7.07616 17.9309 7.44921 17.4703 7.81444C17.4461 7.83358 17.4121 7.84022 17.3824 7.85311C17.3824 6.77108 17.3832 5.68866 17.3836 4.60663C18.0133 4.99608 18.6438 5.38397 19.2719 5.77616C19.4219 5.86991 19.5406 5.99686 19.5973 6.17069Z" fill="#E7F2FD"/>
<path d="M2.69531 7.85273C2.43242 7.71016 2.22227 7.49727 1.98828 7.3168C1.53867 6.96953 1.09648 6.61211 0.651172 6.25859C0.6 6.21797 0.546484 6.18281 0.480469 6.1707C0.539062 5.9875 0.66875 5.85937 0.824219 5.76211C1.4457 5.37383 2.0707 4.9918 2.69453 4.60742C2.69453 5.68906 2.69492 6.77109 2.69531 7.85273Z" fill="#E7F2FD"/>
<path d="M10.0601 7.38128C11.7648 7.38128 13.4691 7.38128 15.1738 7.38128C15.2391 7.38128 15.3039 7.37933 15.3691 7.38284C15.573 7.39339 15.698 7.51057 15.7016 7.69143C15.7051 7.86214 15.5734 8.01448 15.3949 8.04026C15.3375 8.04847 15.2781 8.04573 15.2195 8.04573C11.7648 8.04573 8.31054 8.04573 4.85585 8.04651C4.71718 8.04651 4.58163 8.04768 4.47656 7.9344C4.38476 7.83518 4.34999 7.7219 4.39452 7.593C4.43945 7.46331 4.53632 7.39378 4.67304 7.3844C4.74413 7.37972 4.81601 7.38128 4.88749 7.38128C6.61132 7.38128 8.33554 7.38128 10.0594 7.38128H10.0601Z" fill="#A58C79"/>
<path d="M10.0387 4.02617C8.3203 4.02617 6.60155 4.02617 4.88319 4.02617C4.81171 4.02617 4.73983 4.02852 4.66835 4.02227C4.51327 4.00898 4.41327 3.92305 4.38397 3.77187C4.35311 3.61289 4.4203 3.49102 4.56015 3.41367C4.64765 3.36523 4.74608 3.36133 4.84491 3.36133C8.30819 3.36172 11.7711 3.36172 15.2344 3.36133C15.3266 3.36133 15.418 3.36484 15.5016 3.40586C15.6453 3.47617 15.7195 3.59414 15.6973 3.75391C15.6746 3.91523 15.5726 4.00781 15.409 4.02266C15.3379 4.02891 15.266 4.02656 15.1941 4.02656C13.4758 4.02656 11.757 4.02656 10.0387 4.02656V4.02617Z" fill="#A58C79"/>
<path d="M10.059 5.38752C11.7711 5.38752 13.4833 5.38752 15.1954 5.38752C15.2606 5.38752 15.3258 5.38595 15.3907 5.38947C15.5633 5.39924 15.6747 5.48947 15.6973 5.66056C15.7196 5.82853 15.6391 5.94884 15.4829 6.01525C15.4032 6.04924 15.3188 6.05197 15.2336 6.05197C11.7704 6.05197 8.30748 6.05197 4.8442 6.05197C4.75904 6.05197 4.67427 6.04923 4.59498 6.01486C4.43912 5.94767 4.35865 5.82775 4.3817 5.65939C4.40513 5.4883 4.51685 5.39884 4.68912 5.38908C4.75396 5.38556 4.8192 5.38713 4.88443 5.38713C6.60943 5.38713 8.33443 5.38713 10.0598 5.38713L10.059 5.38752Z" fill="#A58C79"/>
<path d="M10.0539 9.37499C11.0297 9.37499 12.0051 9.37421 12.9809 9.37577C13.2344 9.37616 13.3649 9.49764 13.3598 9.71678C13.3555 9.89178 13.2508 10.0117 13.0782 10.0351C13.0332 10.041 12.9871 10.0391 12.9418 10.0391C11.0035 10.0391 9.06527 10.0394 7.12699 10.0391C6.86605 10.0391 6.73871 9.9453 6.72035 9.74569C6.69886 9.51835 6.83519 9.37694 7.08832 9.37616C7.90785 9.37382 8.72738 9.37499 9.54691 9.37499C9.71605 9.37499 9.88519 9.37499 10.0543 9.37499H10.0539Z" fill="#A48C79"/>
</g>
<defs>
<clipPath id="clip0_283_1799">
<rect width="20" height="20" fill="white"/>
</clipPath>
</defs>
</svg>
