<svg width="20" height="20" viewBox="0 0 20 20" fill="none" xmlns="http://www.w3.org/2000/svg">
<path d="M17.1924 10.9995C17.0478 10.5291 16.7167 10.2738 16.2476 10.157C15.1948 9.89476 14.1445 9.62202 13.0933 9.35332C13.3313 9.1133 13.612 8.92541 13.8768 8.71853C14.2704 8.41144 14.4702 8.02152 14.4686 7.51886C14.4633 5.58904 14.4657 3.65922 14.4653 1.72981C14.6144 1.71284 14.7501 1.66677 14.8829 1.59081C15.2716 1.36857 15.2671 0.351537 14.8829 0.130513C14.709 0.0303049 14.534 0 14.3419 0C11.1965 0.000808132 8.05069 0.000404066 4.90531 0.000808132C4.84438 0.000808132 4.78346 0.000808132 4.72294 0.00565692C4.37038 0.0343456 4.121 0.27234 4.08444 0.622665C4.07185 0.742673 4.07429 0.864701 4.07672 0.985517C4.08566 1.41908 4.3123 1.66677 4.74893 1.72415C4.76112 1.7395 4.7733 1.75486 4.7859 1.77021C4.78224 1.79688 4.77533 1.82315 4.77533 1.84981C4.77533 3.76589 4.77452 5.68238 4.77615 7.59846C4.77615 8.05424 4.97923 8.41144 5.33341 8.69024C5.60879 8.90723 5.88377 9.12421 6.15916 9.34119C6.12829 9.35453 6.09864 9.37271 6.06655 9.38079C5.03244 9.64061 3.99752 9.89719 2.96382 10.1594C2.51094 10.2742 2.1726 10.5199 2.05603 10.9991C1.93418 11.3898 2.01379 11.7482 2.26845 12.0561C3.0747 13.0299 3.8907 13.996 4.70263 14.965C4.69207 15.0652 4.67867 15.1654 4.67176 15.2656C4.63114 15.8753 4.58931 16.4851 4.55397 17.0952C4.51945 17.6852 4.48005 18.2755 4.46543 18.8662C4.45609 19.2453 4.63196 19.5475 4.9508 19.7616C5.33179 20.0368 5.73958 20.0413 6.16159 19.8752C7.31471 19.4214 8.46701 18.9664 9.61972 18.5119C10.0438 18.6804 10.4674 18.8501 10.8923 19.0174C11.6412 19.3127 12.3898 19.6097 13.1408 19.9002C13.5657 20.0647 13.9682 20.0352 14.3272 19.7281C14.6237 19.5083 14.7744 19.2073 14.7736 18.8468C14.7724 18.4848 14.7383 18.1224 14.7159 17.7603C14.6583 16.8285 14.5994 15.8968 14.5413 14.965C15.3719 13.9738 16.2102 12.9887 17.0291 11.9878C17.2602 11.7054 17.3203 11.3583 17.1928 10.9987L17.1924 10.9995Z" fill="#010000"/>
<path d="M6.15957 9.34162C5.88419 9.12463 5.60921 8.90725 5.33383 8.69067C4.97965 8.41186 4.77697 8.05467 4.77657 7.59888C4.77494 5.6828 4.77535 3.76632 4.77575 1.85024C4.77575 1.82357 4.78266 1.7973 4.78631 1.77064C4.78753 1.75528 4.78835 1.74033 4.78956 1.72498C5.81758 1.72578 6.84519 1.72619 7.8732 1.727C7.87442 3.43781 7.87483 5.14862 7.87767 6.85944C7.87767 6.95076 7.85127 7.04895 7.92194 7.13016C7.85818 7.23967 7.79806 7.35159 7.73023 7.45867C7.35899 8.04699 6.98572 8.6345 6.61286 9.22201C6.46867 9.28747 6.31554 9.31858 6.15998 9.34202L6.15957 9.34162Z" fill="#9F3C4F"/>
<path d="M14.4658 1.7298C14.4658 3.65961 14.4637 5.58943 14.469 7.51885C14.4702 8.0215 14.2708 8.41143 13.8772 8.71852C13.6124 8.9254 13.3318 9.11329 13.0937 9.3533C12.9536 9.323 12.8135 9.29269 12.6734 9.26239C12.5547 9.07652 12.4353 8.89105 12.3175 8.70438C11.9971 8.19566 11.6774 7.68613 11.3574 7.17701C11.3602 7.06952 11.3655 6.96204 11.3655 6.85416C11.3671 5.14496 11.3679 3.43576 11.3691 1.72656C12.4012 1.72777 13.4337 1.72858 14.4658 1.7298Z" fill="#9F3C4F"/>
<path d="M14.4658 1.72981C13.4337 1.72859 12.4012 1.72779 11.3691 1.72657C10.2038 1.72657 9.03853 1.72657 7.87282 1.72657C6.84481 1.72577 5.8172 1.72536 4.78918 1.72455C4.77578 1.7197 4.76278 1.7193 4.74938 1.72374C4.31274 1.66637 4.0861 1.41868 4.07716 0.985112C4.07473 0.864297 4.0727 0.742269 4.08488 0.622261C4.12144 0.271936 4.37082 0.0343456 4.72338 0.00525286C4.7839 0.000404066 4.84483 0.000404066 4.90575 0.000404066C8.05113 0.000404066 11.1965 0.000808132 14.3419 0C14.5336 0 14.7091 0.0303049 14.8829 0.130513C15.2671 0.351537 15.2716 1.36857 14.8829 1.59081C14.7501 1.66677 14.6144 1.71284 14.4654 1.72981H14.4658Z" fill="#F8C45C"/>
<path d="M14.3276 19.7289C13.969 20.036 13.5665 20.0655 13.1412 19.901C12.3902 19.6105 11.6416 19.3135 10.8926 19.0182C10.4682 18.8509 10.0446 18.6812 9.62011 18.5127C9.6193 17.3017 9.61849 16.0907 9.61768 14.8801C9.70135 14.8749 9.77568 14.9052 9.85163 14.9347C10.3285 15.1213 10.8065 15.3056 11.2842 15.4907C11.3585 15.586 11.4365 15.6785 11.506 15.7771C12.2797 16.8766 13.0482 17.9797 13.828 19.0747C13.9868 19.2978 14.1128 19.5475 14.3272 19.7293L14.3276 19.7289Z" fill="#F3A951"/>
<path d="M9.61808 14.8797C9.6189 16.0907 9.61971 17.3017 9.62052 18.5123C8.46781 18.9668 7.31551 19.4218 6.16239 19.8756C5.74038 20.0416 5.33259 20.0368 4.9516 19.762C5.00968 19.5923 5.13925 19.4679 5.23876 19.3256C5.85939 18.4371 6.49139 17.5562 7.10877 16.6653C7.38049 16.2733 7.68228 15.9016 7.91867 15.4858C8.16481 15.4397 8.38495 15.3213 8.61891 15.2413C8.9544 15.127 9.2635 14.9407 9.61808 14.8801V14.8797Z" fill="#F8C45C"/>
<path d="M4.7035 14.9654C3.89157 13.9964 3.07557 13.0303 2.26933 12.0565C2.01425 11.7486 1.93464 11.3902 2.0569 10.9995C3.2027 11.3102 4.34851 11.6221 5.49472 11.9316C5.96303 12.0581 6.42485 12.2104 6.90291 12.2997C6.90616 12.3656 6.95409 12.4048 6.99227 12.4509C7.34076 12.8711 7.68804 13.2921 8.03531 13.7132C7.70713 13.8356 7.37813 13.9572 7.05035 14.0809C6.26807 14.3754 5.48578 14.6708 4.7035 14.9658V14.9654Z" fill="#F7C45C"/>
<path d="M17.1923 10.9995C17.3199 11.3591 17.2598 11.7062 17.0286 11.9886C16.2102 12.9895 15.3719 13.9746 14.5409 14.9658C14.4893 14.9508 14.4361 14.9391 14.3861 14.9201C13.4682 14.569 12.5494 14.2186 11.6335 13.8623C11.4991 13.8101 11.3366 13.8065 11.2432 13.6699C11.4101 13.4699 11.5827 13.2739 11.7432 13.0687C11.9438 12.8117 12.1834 12.5846 12.3451 12.2977C12.4113 12.2868 12.4795 12.282 12.5437 12.2646C13.3902 12.0339 14.2362 11.8007 15.0827 11.57C15.7858 11.3785 16.4893 11.1894 17.1927 10.9995H17.1923Z" fill="#F3A951"/>
<path d="M4.70351 14.9654C5.48579 14.6704 6.26807 14.375 7.05036 14.0805C7.37854 13.9568 7.70713 13.8352 8.03532 13.7128C8.03248 13.7928 8.03166 13.8728 8.02598 13.9524C7.99064 14.4635 7.95449 14.9743 7.91834 15.4854C7.68195 15.9012 7.38017 16.2729 7.10844 16.6649C6.49106 17.5558 5.85906 18.4367 5.23843 19.3252C5.13892 19.4675 5.00935 19.5919 4.95127 19.7616C4.63243 19.5475 4.45615 19.2452 4.4659 18.8662C4.48052 18.2755 4.51992 17.6855 4.55444 17.0952C4.59019 16.4851 4.63202 15.8753 4.67223 15.2656C4.67873 15.165 4.69254 15.0652 4.7031 14.965L4.70351 14.9654Z" fill="#F3A951"/>
<path d="M11.2432 13.67C11.3371 13.8065 11.4991 13.8102 11.6336 13.8623C12.5499 14.2187 13.4682 14.569 14.3862 14.9201C14.4361 14.9391 14.4893 14.9508 14.5409 14.9658C14.5994 15.8976 14.6583 16.8294 14.7156 17.7611C14.7379 18.1232 14.772 18.4852 14.7733 18.8477C14.7745 19.2081 14.6238 19.5095 14.3269 19.7289C14.1124 19.5471 13.9865 19.297 13.8277 19.0743C13.0478 17.9793 12.2794 16.8762 11.5056 15.7768C11.4362 15.6782 11.3578 15.5856 11.2838 15.4903C11.2956 15.46 11.3192 15.4285 11.3167 15.399C11.2822 14.9266 11.2416 14.4547 11.2087 13.9823C11.2014 13.8781 11.1758 13.7677 11.2424 13.6696L11.2432 13.67Z" fill="#F8C45C"/>
<path d="M6.90247 12.2994C6.42441 12.2101 5.96259 12.0577 5.49428 11.9313C4.34807 11.6217 3.20226 11.3098 2.05646 10.9991C2.17262 10.5199 2.51096 10.2746 2.96425 10.1594C3.99795 9.89719 5.03287 9.64061 6.06698 9.3808C6.09907 9.37272 6.12872 9.35453 6.15958 9.3412C6.31474 9.31776 6.46827 9.28665 6.61246 9.22119C6.62587 9.29554 6.6608 9.35857 6.70791 9.41797C7.12139 9.93679 7.53772 10.4528 7.94429 10.9769C8.16931 11.2666 8.42357 11.5349 8.60879 11.8549C8.04624 12.027 7.47314 12.1575 6.90287 12.2994H6.90247Z" fill="#F3A951"/>
<path d="M17.1924 10.9994C16.4889 11.1898 15.7854 11.3785 15.0823 11.57C14.2359 11.8007 13.3898 12.0339 12.5434 12.2646C12.4788 12.282 12.411 12.2868 12.3448 12.2977C11.783 12.1603 11.2213 12.0233 10.6604 11.8831C10.6336 11.8763 10.6145 11.8399 10.5917 11.8169C10.6324 11.7817 10.6795 11.7522 10.7124 11.711C11.043 11.2968 11.3683 10.8786 11.7006 10.4661C12.0239 10.0644 12.322 9.64219 12.6725 9.26196C12.8127 9.29227 12.9528 9.32257 13.0929 9.35288C14.1441 9.62118 15.1945 9.89392 16.2472 10.1566C16.7164 10.2733 17.0478 10.5291 17.192 10.999L17.1924 10.9994Z" fill="#F8C45C"/>
<path d="M4.74937 1.72376C4.76277 1.71931 4.77618 1.71931 4.78917 1.72457C4.78795 1.73992 4.78714 1.75487 4.78592 1.77023C4.77374 1.75487 4.76155 1.73952 4.74896 1.72416L4.74937 1.72376Z" fill="#C64C5D"/>
<path d="M7.87281 1.7266C9.03811 1.7266 10.2038 1.7266 11.3691 1.7266C11.3679 3.4358 11.3671 5.145 11.3655 6.8542C11.3655 6.96168 11.3602 7.06916 11.3573 7.17704C11.0958 6.77944 10.8443 6.37538 10.5702 5.98667C10.3435 5.66584 10.0214 5.503 9.61934 5.51916C9.06045 5.52846 8.72495 5.85373 8.46338 6.30467C8.29888 6.58872 8.10351 6.855 7.92155 7.12936C7.85088 7.04855 7.87768 6.94996 7.87728 6.85864C7.87484 5.14783 7.87403 3.43701 7.87281 1.7262V1.7266Z" fill="#C64C5D"/>
<path d="M7.92117 7.12973C8.10272 6.85537 8.2985 6.58909 8.463 6.30503C8.72416 5.8541 9.06007 5.52882 9.61896 5.51953C9.61977 7.13256 9.62058 8.74559 9.62139 10.3582C9.38297 10.7247 9.1478 11.0936 8.9041 11.4565C8.8123 11.5934 8.75991 11.7611 8.60881 11.8553C8.4236 11.5353 8.16934 11.2674 7.94432 10.9772C7.53774 10.4532 7.12142 9.93718 6.70794 9.41836C6.66082 9.35937 6.62589 9.29593 6.61249 9.22158C6.98495 8.63407 7.35822 8.04656 7.72986 7.45824C7.79769 7.35116 7.8578 7.23923 7.92157 7.12973H7.92117Z" fill="#F8C45D"/>
<path d="M9.62097 10.3579C9.62015 8.74483 9.61934 7.1318 9.61853 5.51917C10.021 5.50342 10.3431 5.66585 10.5694 5.98668C10.8435 6.37539 11.0954 6.77946 11.3565 7.17706C11.6766 7.68618 11.9962 8.1953 12.3167 8.70443C12.4341 8.8911 12.5539 9.07657 12.6725 9.26244C12.322 9.64267 12.0239 10.0645 11.7006 10.4666C11.3683 10.8791 11.043 11.2973 10.7123 11.7115C10.6794 11.7527 10.6323 11.7822 10.5917 11.8173C10.5109 11.7519 10.469 11.6586 10.4138 11.5745C10.1494 11.1688 9.88498 10.7635 9.62056 10.3583L9.62097 10.3579Z" fill="#F3A951"/>
<path d="M9.62096 10.3578C9.88538 10.7631 10.1498 11.1684 10.4142 11.5741C10.469 11.6581 10.5113 11.7515 10.5921 11.8169C10.6149 11.8396 10.6339 11.8763 10.6608 11.8832C11.2217 12.0234 11.7834 12.1604 12.3451 12.2978C12.1835 12.5847 11.9438 12.8117 11.7436 13.0687C11.5832 13.274 11.4105 13.47 11.2436 13.67C11.177 13.7682 11.2026 13.8785 11.2099 13.9827C11.2428 14.4551 11.2834 14.927 11.3179 15.3994C11.32 15.4289 11.2964 15.4604 11.285 15.4907C10.8074 15.3056 10.3293 15.1214 9.85248 14.9347C9.77653 14.9048 9.7022 14.8749 9.61852 14.8802C9.26353 14.9408 8.95444 15.127 8.61935 15.2414C8.38539 15.3214 8.16525 15.4398 7.91911 15.4858C7.95526 14.9747 7.99141 14.464 8.02675 13.9528C8.03243 13.8732 8.03284 13.7928 8.03609 13.7132C7.68841 13.2922 7.34113 12.8711 6.99304 12.4509C6.95486 12.4048 6.90694 12.3657 6.90369 12.2998C7.47395 12.1584 8.04746 12.0274 8.6096 11.8553C8.76069 11.7612 8.81309 11.5935 8.90489 11.4565C9.14859 11.0932 9.38376 10.7247 9.62218 10.3583L9.62096 10.3578Z" fill="#FED27A"/>
</svg>
