<svg width="20" height="20" viewBox="0 0 20 20" fill="none" xmlns="http://www.w3.org/2000/svg">
<g clip-path="url(#clip0_283_1803)">
<path d="M16.3632 15.6672C15.3933 14.3293 14.0285 13.532 12.5496 12.8965C11.7429 12.55 10.905 12.2945 10.0527 12.0859C10.0089 12.0754 9.96323 12.073 9.91831 12.0668C9.40737 11.9187 8.88472 11.8273 8.35854 11.7539C8.33589 11.7429 8.31401 11.7242 8.29058 11.7218C7.82847 11.6773 7.36909 11.607 6.90776 11.5531C6.28472 11.4804 5.65933 11.4562 5.03589 11.4051C5.03667 9.38591 5.03784 7.36677 5.03862 5.34763C5.53081 5.30935 6.02339 5.27849 6.5144 5.23162C8.8605 5.0074 11.1492 4.5531 13.2871 3.5113C14.1617 3.08513 14.9722 2.56208 15.675 1.8824C15.9281 1.63748 16.1523 1.36873 16.3531 1.08044C16.3585 1.16443 16.3687 1.24841 16.3687 1.3324C16.3695 6.02576 16.3695 10.7195 16.3691 15.4129C16.3691 15.4972 16.3652 15.582 16.3628 15.6664L16.3632 15.6672Z" fill="#E7ECF3"/>
<path d="M5.03589 11.4055C5.65972 11.457 6.28511 11.4813 6.90776 11.5535C7.36909 11.607 7.82808 11.6773 8.29058 11.7223C8.31401 11.7246 8.33589 11.7434 8.35854 11.7543C8.64878 12.7367 8.93901 13.7191 9.22925 14.7016C9.60503 15.9781 9.9812 17.2547 10.3558 18.5316C10.5488 19.1895 10.1765 19.6988 9.49526 19.7035C8.79878 19.7082 8.1019 19.7074 7.40542 19.7035C6.94175 19.7008 6.64878 19.5023 6.51987 19.0848C5.7269 16.5172 4.93901 13.9477 4.14917 11.3789C4.44448 11.3879 4.74019 11.3965 5.03589 11.4055Z" fill="#C8DBEA"/>
<path d="M16.3633 15.6672C16.3656 15.5828 16.3695 15.498 16.3695 15.4136C16.3695 10.7203 16.3695 6.02653 16.3691 1.33317C16.3691 1.24919 16.3586 1.1652 16.3535 1.08122C16.4207 0.290205 17.1535 0.271845 17.6695 0.452314C17.9547 0.551923 18.0438 0.824189 18.0434 1.12185C18.041 2.79255 18.0422 4.46286 18.0426 6.13356C18.0426 6.21169 18.0457 6.28942 18.0473 6.36755C18.0496 7.70036 18.0516 9.03317 18.0539 10.366C18.05 10.4437 18.043 10.5215 18.043 10.5992C18.0422 12.2582 18.043 13.9176 18.0422 15.5765C18.0422 16.1258 17.7949 16.3711 17.2414 16.3699C17.1246 16.3699 17.0047 16.3769 16.8914 16.3539C16.5832 16.2918 16.4047 16.0511 16.3637 15.6676L16.3633 15.6672Z" fill="#269CD2"/>
<path d="M5.03588 11.4054C4.74018 11.3965 4.44487 11.3875 4.14916 11.3789C3.66362 11.3551 3.17534 11.4047 2.69291 11.2945C1.31987 10.9812 0.346821 9.73162 0.376899 8.30779C0.407368 6.88396 1.43276 5.67615 2.81909 5.42419C3.03823 5.38435 3.25854 5.37771 3.47885 5.37263C3.99838 5.3613 4.51831 5.35583 5.03823 5.34802C5.03745 7.36716 5.03627 9.3863 5.03549 11.4054H5.03588Z" fill="#269CD3"/>
<path d="M18.0535 10.3656C18.0511 9.03281 18.0492 7.7 18.0468 6.36719C18.8804 6.48281 19.3492 7.02148 19.6046 7.76602C19.9124 8.66367 19.4753 9.73086 18.6445 10.1945C18.4609 10.2969 18.2675 10.3672 18.0535 10.3656Z" fill="#1382B8"/>
<path d="M9.22959 14.7012C8.93936 13.7188 8.64912 12.7363 8.35889 11.7539C8.88506 11.827 9.40732 11.9188 9.91865 12.0668C10.105 12.693 10.2933 13.3184 10.4772 13.9453C10.6112 14.4016 10.3874 14.6973 9.91006 14.7008C9.68311 14.7023 9.45654 14.7008 9.22959 14.7008V14.7012Z" fill="#1483B9"/>
</g>
<defs>
<clipPath id="clip0_283_1803">
<rect width="20" height="20" fill="white"/>
</clipPath>
</defs>
</svg>
