<svg width="130" height="80" viewBox="0 0 130 80" fill="none" xmlns="http://www.w3.org/2000/svg">
<rect x="0.5" y="0.5" width="129" height="79" rx="4.5" stroke="#9747FF" stroke-dasharray="10 5"/>
<g filter="url(#filter0_b_307_8525)">
<rect x="70" y="20" width="40" height="40" rx="20" fill="#4B4DED"/>
</g>
<path d="M90 43.5C92.21 43.5 94 41.71 94 39.5V34C94 31.79 92.21 30 90 30C87.79 30 86 31.79 86 34V39.5C86 41.71 87.79 43.5 90 43.5Z" stroke="white" stroke-width="1.5" stroke-linecap="round" stroke-linejoin="round"/>
<path d="M82.35 37.65V39.35C82.35 43.57 85.78 47 90 47C94.22 47 97.65 43.57 97.65 39.35V37.65" stroke="white" stroke-width="1.5" stroke-linecap="round" stroke-linejoin="round"/>
<path d="M88.61 34.43C89.51 34.1 90.49 34.1 91.39 34.43" stroke="white" stroke-width="1.5" stroke-linecap="round" stroke-linejoin="round"/>
<path d="M89.2 36.55C89.73 36.41 90.28 36.41 90.81 36.55" stroke="white" stroke-width="1.5" stroke-linecap="round" stroke-linejoin="round"/>
<path d="M90 47V50" stroke="white" stroke-width="1.5" stroke-linecap="round" stroke-linejoin="round"/>
<g filter="url(#filter1_b_307_8525)">
<rect x="20" y="20" width="40" height="40" rx="20" fill="#E54242"/>
</g>
<path d="M44 34.3V34C44 31.79 42.21 30 40 30C37.79 30 36 31.79 36 34V39" stroke="white" stroke-width="1.5" stroke-linecap="round" stroke-linejoin="round"/>
<path d="M37.04 42.19C37.77 43 38.83 43.5 40 43.5C42.21 43.5 44 41.71 44 39.5V39" stroke="white" stroke-width="1.5" stroke-linecap="round" stroke-linejoin="round"/>
<path d="M34.78 44.95C36.15 46.22 37.98 47 40 47C44.22 47 47.65 43.57 47.65 39.35V37.65" stroke="white" stroke-width="1.5" stroke-linecap="round" stroke-linejoin="round"/>
<path d="M32.35 37.65V39.35C32.35 40.41 32.56 41.41 32.95 42.33" stroke="white" stroke-width="1.5" stroke-linecap="round" stroke-linejoin="round"/>
<path d="M48.07 30.84L31.93 46.99" stroke="white" stroke-width="1.5" stroke-linecap="round" stroke-linejoin="round"/>
<path d="M39 31V34" stroke="white" stroke-width="1.5" stroke-linecap="round" stroke-linejoin="round"/>
<path d="M40 47V50" stroke="white" stroke-width="1.5" stroke-linecap="round" stroke-linejoin="round"/>
<defs>
<filter id="filter0_b_307_8525" x="63" y="13" width="54" height="54" filterUnits="userSpaceOnUse" color-interpolation-filters="sRGB">
<feFlood flood-opacity="0" result="BackgroundImageFix"/>
<feGaussianBlur in="BackgroundImageFix" stdDeviation="3.5"/>
<feComposite in2="SourceAlpha" operator="in" result="effect1_backgroundBlur_307_8525"/>
<feBlend mode="normal" in="SourceGraphic" in2="effect1_backgroundBlur_307_8525" result="shape"/>
</filter>
<filter id="filter1_b_307_8525" x="13" y="13" width="54" height="54" filterUnits="userSpaceOnUse" color-interpolation-filters="sRGB">
<feFlood flood-opacity="0" result="BackgroundImageFix"/>
<feGaussianBlur in="BackgroundImageFix" stdDeviation="3.5"/>
<feComposite in2="SourceAlpha" operator="in" result="effect1_backgroundBlur_307_8525"/>
<feBlend mode="normal" in="SourceGraphic" in2="effect1_backgroundBlur_307_8525" result="shape"/>
</filter>
</defs>
</svg>
