<svg width="20" height="20" viewBox="0 0 20 20" fill="none" xmlns="http://www.w3.org/2000/svg">
<g clip-path="url(#clip0_283_1798)">
<path d="M17.5312 7.93129C17.4972 7.96996 17.4648 8.01058 17.4284 8.04691C13.896 11.5801 10.3636 15.1129 6.83079 18.6454C6.79876 18.6774 6.76321 18.7055 6.72922 18.7356C6.67805 18.677 6.63079 18.6149 6.57571 18.5602C4.89094 16.8735 3.20579 15.1871 1.51985 13.5016C1.46516 13.4469 1.40344 13.3989 1.34485 13.3477C1.63313 13.0571 1.92024 12.7649 2.20969 12.4754C5.47063 9.21527 8.73196 5.95511 11.9937 2.69535C12.0484 2.64066 12.1089 2.59144 12.1667 2.53949C12.1976 2.58051 12.2238 2.6266 12.2597 2.66254C14.0163 4.41918 15.7734 6.17504 17.5308 7.9309L17.5312 7.93129ZM13.3585 7.04574C13.3577 6.7891 13.1038 6.63402 12.8773 6.75863C12.7991 6.8016 12.7292 6.86488 12.6656 6.92855C10.3601 9.23207 8.05579 11.5364 5.75188 13.8418C5.69251 13.9012 5.63469 13.9661 5.59329 14.0379C5.50891 14.1844 5.52454 14.3336 5.64954 14.4465C5.77219 14.5571 5.91985 14.5731 6.05969 14.4676C6.14758 14.4012 6.23274 14.3297 6.31047 14.252C8.57883 11.9852 10.8468 9.71762 13.1136 7.44926C13.1824 7.38051 13.2429 7.30394 13.3042 7.22855C13.3468 7.17621 13.3628 7.11332 13.3585 7.04574Z" fill="#F3AB37"/>
<path d="M17.5312 7.93128C15.7741 6.17542 14.0167 4.41956 12.2601 2.66292C12.2241 2.62698 12.198 2.58128 12.1671 2.53987C12.6136 2.08596 13.0601 1.63206 13.507 1.17893C13.6441 1.03987 13.7796 0.899635 13.9206 0.76487C14.4757 0.234791 15.223 0.237526 15.7675 0.779323C16.9105 1.91682 18.0491 3.05901 19.1894 4.19924C19.2308 4.24065 19.2726 4.28167 19.3132 4.32385C19.8359 4.86721 19.8417 5.61721 19.3144 6.15862C18.8382 6.64807 18.3507 7.1262 17.8671 7.60823C17.757 7.71799 17.6429 7.82385 17.5308 7.93128H17.5312Z" fill="#E12B42"/>
<path d="M1.34525 13.3481C1.40385 13.3993 1.46517 13.4473 1.52025 13.502C3.20619 15.1875 4.89135 16.8739 6.57611 18.5606C6.6308 18.6153 6.67846 18.6774 6.72963 18.736C6.46088 19.0375 6.09096 19.084 5.72221 19.1364C4.45463 19.3168 3.18744 19.4989 1.92025 19.6801C0.96283 19.8172 0.273377 19.1727 0.396424 18.2157C0.575721 16.8235 0.784705 15.4348 0.986658 14.0457C1.02572 13.7766 1.14096 13.5371 1.34525 13.3481Z" fill="#E9CEA3"/>
<path d="M13.3586 7.04574C13.3629 7.11332 13.3473 7.17621 13.3043 7.22856C13.243 7.30395 13.182 7.38051 13.1137 7.44926C10.8469 9.71762 8.5793 11.9852 6.31055 14.252C6.23281 14.3297 6.14766 14.4012 6.05977 14.4676C5.91992 14.5731 5.77227 14.5571 5.64961 14.4465C5.52461 14.334 5.50898 14.1848 5.59336 14.0379C5.63477 13.9661 5.69258 13.9008 5.75195 13.8418C8.05547 11.5364 10.3602 9.23207 12.6656 6.92856C12.7293 6.86488 12.7992 6.8016 12.8773 6.75864C13.1039 6.63403 13.3582 6.7891 13.3586 7.04574Z" fill="#D38F2D"/>
</g>
<defs>
<clipPath id="clip0_283_1798">
<rect width="20" height="20" fill="white"/>
</clipPath>
</defs>
</svg>
