<svg width="20" height="20" viewBox="0 0 20 20" fill="none" xmlns="http://www.w3.org/2000/svg">
<g clip-path="url(#clip0_283_1802)">
<path d="M12.0731 17.5842C8.51919 17.585 4.96525 17.5887 1.41131 17.5842C0.591921 17.5834 0.0117189 16.9906 0.00444616 16.1608C-0.00363465 15.2784 0.00242596 14.3957 0.00242596 13.5133C0.00242596 10.812 0.00242596 8.11032 0.00242596 5.40904C0.00242596 5.32817 0.00565828 5.24769 0.00767848 5.16682C0.0682845 5.16601 0.128891 5.16479 0.189497 5.16479C6.0994 5.16479 12.0093 5.16479 17.9192 5.16479C17.9216 5.5619 17.9261 5.959 17.9261 6.35611C17.9253 8.32222 17.9236 10.2883 17.922 12.2544C17.3644 11.9584 16.7741 11.772 16.1434 11.7211C16.1475 11.7013 16.1511 11.6814 16.1564 11.662C16.2747 11.1929 16.1374 10.8059 15.7467 10.5095C15.4812 10.3081 14.9632 10.2912 14.6533 10.4739C14.2808 10.6931 14.1111 11.0801 14.1552 11.5367C14.1721 11.7142 14.2921 11.842 14.3232 12.007C14.0279 12.1384 13.7426 12.2864 13.4776 12.4736C12.7935 12.9569 12.3131 13.5998 11.9899 14.3665C11.804 14.0944 11.5814 13.8764 11.24 13.8065C10.8234 13.7211 10.3968 13.91 10.1434 14.3079C9.93253 14.6395 9.95556 15.1114 10.1976 15.4232C10.4812 15.7888 10.9196 15.9432 11.3192 15.8118C11.4574 15.7665 11.5903 15.7063 11.7257 15.6529C11.7422 15.9012 11.7285 16.1495 11.758 16.3986C11.8069 16.8102 11.9552 17.1924 12.0731 17.5838V17.5842ZM6.88121 8.94093C7.51394 8.9846 7.92323 8.44111 7.93576 7.9328C7.9499 7.36383 7.45374 6.87615 6.88485 6.87857C6.32889 6.881 5.9002 7.33714 5.87192 7.89641C5.84121 8.49328 6.41738 9.00401 6.88121 8.94133V8.94093ZM6.90182 10.3551C6.37455 10.2742 5.85818 10.8549 5.86707 11.3753C5.87637 11.9431 6.32566 12.4113 6.88243 12.4085C7.50182 12.4053 7.92323 11.9774 7.93172 11.364C7.93899 10.852 7.51152 10.3195 6.90182 10.3547V10.3551ZM3.77818 11.3652C3.8501 10.8816 3.27435 10.3239 2.76323 10.3417C2.14384 10.3635 1.72849 10.8391 1.72121 11.3955C1.71394 11.9338 2.20808 12.4227 2.74344 12.415C3.31233 12.4069 3.82182 11.9528 3.77818 11.3652ZM11.0121 8.94093C11.5964 8.98622 12.0537 8.45769 12.0675 7.95181C12.0828 7.38526 11.5758 6.88423 11.0537 6.87898C10.4776 6.87332 9.99919 7.35251 9.9996 7.92997C9.9996 8.49328 10.4473 8.93972 11.0121 8.94093ZM3.77778 14.8279C3.77778 14.2371 3.34748 13.7935 2.77374 13.7927C2.20041 13.7923 1.71111 14.2557 1.72041 14.8182C1.73051 15.4212 2.22222 15.8575 2.74424 15.8559C3.3398 15.8539 3.77738 15.4208 3.77738 14.8279H3.77778ZM5.87798 14.8102C5.82586 15.3197 6.30222 15.8607 6.89495 15.8587C7.42748 15.8567 7.92849 15.4208 7.93536 14.815C7.94182 14.2687 7.45697 13.7943 6.9196 13.7931C6.31637 13.7915 5.87879 14.2185 5.87839 14.8106L5.87798 14.8102ZM15.1523 8.94093C15.7297 8.98379 16.215 8.49975 16.2053 7.91218C16.1964 7.36828 15.8287 6.89475 15.1806 6.88545C14.5673 6.87655 14.1531 7.3424 14.1345 7.9142C14.1164 8.48034 14.5956 8.94052 15.1523 8.94093ZM11.0323 10.3551C10.5253 10.3138 10.0024 10.7627 10 11.364C9.99758 11.9273 10.4808 12.4291 11.0319 12.4146C11.6364 12.3988 12.0727 11.8954 12.0626 11.3632C12.0517 10.7853 11.6218 10.3551 11.0323 10.3551Z" fill="#E6E5FB"/>
<path d="M17.9193 5.1652C12.0094 5.1652 6.09945 5.1652 0.189553 5.1652C0.128947 5.1652 0.0683408 5.16682 0.00773471 5.16722C0.00773471 4.45551 -0.00681075 3.74339 0.0117751 3.03208C0.030765 2.29489 0.608139 1.73603 1.34794 1.70974C1.58955 1.70125 1.83157 1.71055 2.07359 1.71136C2.074 2.04093 2.07279 2.37051 2.07521 2.70008C2.07844 3.13196 2.36329 3.43646 2.76167 3.43687C3.15117 3.43727 3.44652 3.12145 3.45137 2.69604C3.45501 2.36646 3.45541 2.03689 3.45703 1.70732C4.37097 1.70732 5.28531 1.70732 6.19925 1.70732C6.20127 2.04377 6.20006 2.37981 6.20531 2.71625C6.21178 3.1263 6.51198 3.43727 6.8942 3.43687C7.28652 3.43606 7.57582 3.13681 7.58066 2.7203C7.5847 2.38385 7.58228 2.04781 7.58268 1.71136C8.50592 1.71257 9.42955 1.71338 10.3528 1.7146C10.352 2.05064 10.3516 2.38709 10.3504 2.72313C10.35 2.85294 10.3714 2.97627 10.438 3.09071C10.5896 3.34952 10.8954 3.4862 11.1774 3.41786C11.5148 3.33617 11.7176 3.08263 11.7269 2.71464C11.7354 2.37859 11.7342 2.04255 11.7374 1.70651C12.6518 1.70732 13.5657 1.70813 14.4801 1.70894C14.4813 2.04538 14.4801 2.38183 14.4837 2.71787C14.4881 3.1259 14.7871 3.43606 15.171 3.43606C15.5548 3.43606 15.8538 3.1259 15.8586 2.71787C15.8623 2.38143 15.8615 2.04538 15.8623 1.70894C16.1714 1.715 16.4817 1.67982 16.7891 1.73441C17.438 1.84966 17.9116 2.38466 17.9209 3.04259C17.931 3.74986 17.9205 4.45753 17.9188 5.1648L17.9193 5.1652Z" fill="#E73A58"/>
<path d="M12.0732 17.5843C11.9552 17.1928 11.8069 16.8103 11.758 16.399C11.7285 16.1503 11.7423 15.9016 11.7257 15.6533C11.7487 15.2113 11.8526 14.7855 11.9895 14.367C12.3128 13.6003 12.7932 12.9573 13.4772 12.4741C13.7423 12.2868 14.0275 12.1388 14.3229 12.0074C14.9087 11.7785 15.518 11.6993 16.1435 11.7219C16.7742 11.7729 17.3645 11.9593 17.9221 12.2553C18.6235 12.69 19.1839 13.2565 19.5584 13.9994C20.8477 16.5559 19.1766 19.6527 16.3334 19.9742C14.6328 20.1667 12.9819 19.2883 12.1895 17.7707C12.1556 17.706 12.137 17.6312 12.0732 17.5847V17.5843ZM16.2118 14.7835H16.2106C16.2106 14.5748 16.2178 14.3654 16.2085 14.1571C16.1984 13.9303 16.0566 13.7903 15.859 13.7911C15.6679 13.7915 15.5394 13.9214 15.5164 14.1409C15.51 14.2012 15.5112 14.2618 15.5112 14.3225C15.5108 14.6323 15.4986 14.9428 15.5152 15.2518C15.5257 15.4524 15.4728 15.5231 15.2611 15.5122C14.9055 15.4936 14.5475 15.5017 14.1912 15.5102C13.9342 15.5162 13.7879 15.6586 13.796 15.8705C13.8037 16.0735 13.9504 16.2033 14.1968 16.2069C14.5669 16.2122 14.9374 16.2154 15.3075 16.2053C15.4631 16.2013 15.5196 16.2425 15.5148 16.4067C15.5031 16.7767 15.5063 17.1475 15.5136 17.5179C15.5184 17.7743 15.6409 17.9138 15.8437 17.9219C16.0675 17.9308 16.2065 17.7812 16.2102 17.5119C16.215 17.1415 16.2178 16.7706 16.2085 16.4002C16.2049 16.2522 16.2441 16.2001 16.3992 16.2045C16.7758 16.215 17.1532 16.213 17.5297 16.2061C17.8053 16.2009 17.9641 16.0213 17.9188 15.7843C17.8857 15.6101 17.7475 15.5118 17.5051 15.5086C17.1281 15.5033 16.7512 15.5033 16.3742 15.5086C16.2546 15.5102 16.2041 15.4746 16.2093 15.3484C16.2174 15.16 16.2114 14.9711 16.2114 14.7827L16.2118 14.7835Z" fill="#59D279"/>
<path d="M15.8626 1.70933C15.8614 2.04578 15.8626 2.38222 15.8589 2.71827C15.8545 3.12629 15.5555 3.43645 15.1713 3.43645C14.7874 3.43645 14.4884 3.12588 14.484 2.71827C14.4803 2.38182 14.4812 2.04578 14.4803 1.70933C14.4816 1.36641 14.482 1.02349 14.4848 0.680578C14.4884 0.272959 14.7644 0 15.1704 0C15.5692 0 15.8545 0.281047 15.8577 0.680578C15.8605 1.02349 15.861 1.36641 15.8622 1.70933H15.8626Z" fill="#1B254C"/>
<path d="M11.7378 1.70653C11.7346 2.04257 11.7358 2.37861 11.7273 2.71465C11.718 3.08264 11.5156 3.33619 11.1778 3.41788C10.8954 3.48622 10.5899 3.34954 10.4384 3.09073C10.3713 2.97629 10.3503 2.85295 10.3507 2.72315C10.3519 2.3871 10.3523 2.05066 10.3531 1.71461C10.3552 1.38545 10.3584 1.05587 10.3596 0.726705C10.3616 0.285927 10.6162 0.00326338 11.015 2.83158e-05C11.4461 -0.00320675 11.7245 0.270965 11.7333 0.718213C11.7398 1.04738 11.7366 1.37695 11.7378 1.70653Z" fill="#1C254B"/>
<path d="M3.45655 1.70751C3.45453 2.03708 3.45413 2.36666 3.4509 2.69623C3.44605 3.12164 3.1507 3.43746 2.7612 3.43706C2.36282 3.43666 2.07797 3.13216 2.07474 2.70027C2.07231 2.3707 2.07352 2.04113 2.07312 1.71156C2.07474 1.36904 2.07554 1.02613 2.07878 0.683613C2.08282 0.27923 2.3507 0.00303586 2.73857 0.000205173C3.15635 -0.00262551 3.44363 0.267098 3.45171 0.679569C3.45857 1.02208 3.45534 1.365 3.45655 1.70751Z" fill="#1C254C"/>
<path d="M7.58265 1.71156C7.58225 2.048 7.58427 2.38405 7.58063 2.72049C7.57578 3.13701 7.28649 3.43625 6.89417 3.43706C6.51195 3.43787 6.21174 3.12649 6.20528 2.71645C6.20003 2.38041 6.20083 2.04396 6.19922 1.70751C6.20043 1.37834 6.20043 1.04918 6.20326 0.720007C6.2069 0.276398 6.48447 -0.00262624 6.9172 0.000204442C7.31881 0.00303513 7.57498 0.284082 7.5774 0.724051C7.57902 1.05322 7.58104 1.38239 7.58265 1.71156Z" fill="#1C254C"/>
<path d="M6.88117 8.94094C6.41733 9.00362 5.84157 8.49329 5.87188 7.89602C5.90056 7.33675 6.32884 6.88061 6.8848 6.87818C7.45369 6.87576 7.94986 7.36344 7.93571 7.93241C7.92319 8.44072 7.51349 8.98421 6.88117 8.94054V8.94094Z" fill="#CACAF3"/>
<path d="M6.90179 10.3551C7.51149 10.3199 7.93897 10.8521 7.93169 11.3644C7.9228 11.9775 7.50179 12.4057 6.8824 12.4089C6.32563 12.4118 5.87634 11.9435 5.86705 11.3757C5.85856 10.8553 6.37452 10.2746 6.90179 10.3555V10.3551Z" fill="#CACAF3"/>
<path d="M3.77824 11.3652C3.82188 11.9528 3.31238 12.4065 2.74349 12.415C2.20774 12.4227 1.714 11.9338 1.72127 11.3955C1.72854 10.8391 2.1439 10.3636 2.76329 10.3417C3.2744 10.3239 3.85016 10.8816 3.77824 11.3652Z" fill="#CACAF3"/>
<path d="M11.0122 8.94097C10.4473 8.93976 10 8.49332 9.99963 7.93001C9.99963 7.35255 10.4776 6.87336 11.0538 6.87902C11.5754 6.88387 12.0829 7.38531 12.0675 7.95185C12.0538 8.45773 11.5964 8.98626 11.0122 8.94097Z" fill="#CACAF3"/>
<path d="M3.7778 14.8279C3.7778 15.4208 3.33982 15.8539 2.74467 15.8559C2.22225 15.8575 1.73053 15.4216 1.72083 14.8182C1.71154 14.2557 2.20083 13.7923 2.77417 13.7927C3.3479 13.7931 3.77861 14.2371 3.77821 14.8279H3.7778Z" fill="#CACAF3"/>
<path d="M5.87796 14.8102C5.87877 14.2181 6.31594 13.7911 6.91918 13.7927C7.45655 13.7943 7.9414 14.2687 7.93493 14.8146C7.92766 15.4204 7.42706 15.8563 6.89453 15.8583C6.30221 15.8603 5.82544 15.3193 5.87756 14.8098L5.87796 14.8102Z" fill="#CACAF3"/>
<path d="M15.1523 8.94092C14.5952 8.94092 14.116 8.47992 14.1346 7.91419C14.1531 7.34239 14.5677 6.87654 15.1806 6.88544C15.8283 6.89474 16.1964 7.36868 16.2053 7.91217C16.215 8.49974 15.7297 8.98379 15.1523 8.94092Z" fill="#CACAF3"/>
<path d="M11.0323 10.355C11.6214 10.355 12.0517 10.7853 12.0626 11.3632C12.0727 11.8953 11.636 12.3988 11.0319 12.4146C10.4812 12.4291 9.99758 11.9277 10 11.364C10.0024 10.7623 10.5253 10.3138 11.0323 10.355Z" fill="#CACAF3"/>
<path d="M11.9891 14.367C11.8521 14.7855 11.7483 15.2113 11.7253 15.6533C11.5899 15.7067 11.4566 15.7669 11.3188 15.8122C10.9196 15.9437 10.4808 15.7892 10.1972 15.4236C9.95515 15.1118 9.93212 14.6399 10.143 14.3083C10.3964 13.91 10.823 13.7212 11.2396 13.8069C11.581 13.8768 11.8032 14.0948 11.9895 14.367H11.9891Z" fill="#CACBF3"/>
<path d="M16.1434 11.7215C15.518 11.6989 14.9087 11.7785 14.3228 12.007C14.2917 11.842 14.1717 11.7146 14.1548 11.5367C14.1107 11.0806 14.2808 10.6936 14.6529 10.474C14.9628 10.2912 15.4808 10.3082 15.7463 10.5096C16.137 10.806 16.2744 11.193 16.156 11.6621C16.1511 11.6815 16.1475 11.7013 16.143 11.7211L16.1434 11.7215Z" fill="#CACAF3"/>
<path d="M16.2117 14.7835C16.2117 14.9719 16.2178 15.1612 16.2097 15.3492C16.204 15.4754 16.2545 15.511 16.3745 15.5093C16.7515 15.5041 17.1285 15.5041 17.5054 15.5093C17.7479 15.5126 17.886 15.6113 17.9192 15.7851C17.964 16.0221 17.8056 16.2017 17.5301 16.2069C17.1531 16.2138 16.7761 16.2162 16.3996 16.2053C16.2448 16.2008 16.2052 16.2534 16.2089 16.401C16.2182 16.7714 16.2157 17.1418 16.2105 17.5127C16.2068 17.782 16.0679 17.9316 15.844 17.9227C15.6408 17.9146 15.5188 17.7751 15.5139 17.5187C15.5066 17.1483 15.5034 16.7775 15.5151 16.4075C15.5204 16.2433 15.4638 16.2017 15.3079 16.2061C14.9378 16.2162 14.5677 16.213 14.1971 16.2077C13.9507 16.2041 13.804 16.0747 13.7963 15.8713C13.7883 15.6594 13.9345 15.517 14.1915 15.511C14.5479 15.5029 14.9058 15.4944 15.2614 15.513C15.4731 15.5239 15.526 15.4531 15.5155 15.2526C15.499 14.9436 15.5111 14.6331 15.5115 14.3233C15.5115 14.2626 15.5103 14.2016 15.5167 14.1417C15.5398 13.9217 15.6683 13.7923 15.8594 13.7919C16.0573 13.7915 16.1988 13.931 16.2089 14.1579C16.2182 14.3662 16.2109 14.5756 16.2109 14.7843H16.2121L16.2117 14.7835Z" fill="#FBFDFB"/>
</g>
<defs>
<clipPath id="clip0_283_1802">
<rect width="20" height="20" fill="white"/>
</clipPath>
</defs>
</svg>
