<svg width="20" height="20" viewBox="0 0 20 20" fill="none" xmlns="http://www.w3.org/2000/svg">
<path d="M18.4444 20L11.4444 13.35C10.8889 13.7722 10.25 14.1065 9.52778 14.3528C8.80556 14.5991 8.03704 14.7222 7.22222 14.7222C5.2037 14.7222 3.49556 14.0579 2.09778 12.7293C0.700001 11.4007 0.000741329 9.778 5.8789e-07 7.86111C-0.000740153 5.94422 0.698519 4.32148 2.09778 2.99289C3.49704 1.6643 5.20519 1 7.22222 1C9.23926 1 10.9478 1.6643 12.3478 2.99289C13.7478 4.32148 14.4467 5.94422 14.4444 7.86111C14.4444 8.63519 14.3148 9.36528 14.0556 10.0514C13.7963 10.7375 13.4444 11.3444 13 11.8722L20 18.5222L18.4444 20ZM7.22222 12.6111C8.61111 12.6111 9.79185 12.1495 10.7644 11.2262C11.737 10.303 12.223 9.18126 12.2222 7.86111C12.2215 6.54096 11.7356 5.41961 10.7644 4.49706C9.79333 3.5745 8.61259 3.11252 7.22222 3.11111C5.83185 3.1097 4.65148 3.57169 3.68111 4.49706C2.71074 5.42243 2.22445 6.54378 2.22222 7.86111C2.22 9.17844 2.7063 10.3001 3.68111 11.2262C4.65593 12.1523 5.8363 12.6139 7.22222 12.6111Z" fill="#9C9C9C"/>
</svg>
