<svg width="20" height="20" viewBox="0 0 20 20" fill="none" xmlns="http://www.w3.org/2000/svg">
<path d="M4.8711 11.959C3.91876 11.3625 2.96642 10.766 2.01446 10.1688C1.56837 9.88908 1.12501 9.60588 0.677354 9.32892C0.470713 9.20119 0.353135 9.03127 0.38126 8.78205C0.409776 8.53009 0.571885 8.40041 0.798838 8.32189C6.76564 6.25939 12.7317 4.19572 18.6977 2.13205C18.8445 2.08127 18.9895 2.01877 19.1516 2.04533C19.566 2.11291 19.7867 2.48127 19.6598 2.909C19.3258 4.03517 18.9879 5.16017 18.6512 6.28556C17.5371 10.0102 16.4223 13.7348 15.309 17.4594C15.2524 17.6492 15.1879 17.8317 15.0067 17.9418C14.7613 18.0906 14.5281 18.0563 14.2934 17.9078C13.0746 17.136 11.8539 16.3672 10.6336 15.5985C10.3973 15.4496 10.1594 15.3043 9.92189 15.157C9.90782 15.1438 9.89532 15.1281 9.87931 15.118C9.15275 14.6625 8.4254 14.2086 7.70001 13.7516C7.46212 13.6016 7.46329 13.5961 7.67501 13.4012C7.95196 13.1465 8.23829 12.9012 8.5086 12.6399C9.1297 12.0395 9.76446 11.4535 10.3988 10.8672C11.0524 10.2633 11.7012 9.65431 12.3438 9.03908C12.7567 8.64377 13.1742 8.25353 13.5942 7.86603C14.2481 7.26252 14.8934 6.64963 15.5406 6.03947C15.7234 5.86681 15.7563 5.66447 15.6344 5.50353C15.5082 5.33634 15.3266 5.32306 15.102 5.46603C13.8192 6.28166 12.5348 7.09533 11.2543 7.91408C9.25079 9.19494 7.2504 10.4801 5.24689 11.7606C5.12814 11.8367 5.01642 11.9324 4.87032 11.9598L4.8711 11.959Z" fill="#DBE4E2"/>
<path d="M4.87109 11.959C5.0168 11.9313 5.12852 11.8356 5.24766 11.7598C7.25117 10.4793 9.25156 9.19418 11.2551 7.91332C12.5359 7.09457 13.8199 6.28089 15.1027 5.46527C15.3273 5.3223 15.509 5.33597 15.6352 5.50277C15.757 5.66371 15.7246 5.86644 15.5414 6.03871C14.8941 6.64925 14.2488 7.26215 13.5949 7.86527C13.1746 8.25277 12.7574 8.643 12.3445 9.03832C11.7016 9.65355 11.0527 10.2625 10.3996 10.8664C9.76523 11.4528 9.13047 12.0387 8.50938 12.6391C8.23906 12.9004 7.95273 13.1457 7.67578 13.4004C7.46406 13.5953 7.46289 13.6008 7.70078 13.7508C8.42617 14.2078 9.15391 14.6618 9.88008 15.1172C9.89609 15.1274 9.90859 15.143 9.92266 15.1563C9.09023 15.7504 8.25781 16.345 7.425 16.9391C7.30313 17.0258 7.17461 17.0735 7.02773 17.0012C7.09453 16.4887 7.16133 15.9766 7.22812 15.4641C7.29922 14.9196 7.36211 14.3739 7.44648 13.8317C7.47148 13.6715 7.4375 13.5789 7.30195 13.4957C6.80547 13.1891 6.31875 12.8668 5.81875 12.5664C5.51992 12.3868 5.24453 12.1672 4.91875 12.0332C4.90313 12.0086 4.88789 11.9836 4.87227 11.959H4.87109Z" fill="#BFCDCA"/>
<path d="M4.9176 12.0332C5.24338 12.1672 5.51877 12.3867 5.8176 12.5664C6.3176 12.8668 6.80432 13.1895 7.30081 13.4957C7.43596 13.5793 7.46995 13.6715 7.44534 13.8317C7.36096 14.3739 7.29807 14.9196 7.22698 15.4641C7.16018 15.9766 7.09338 16.4887 7.02659 17.0012C6.90159 16.9781 6.84456 16.8813 6.80354 16.7789C6.17581 15.2168 5.55002 13.6535 4.92463 12.0906C4.9176 12.0731 4.91956 12.0524 4.9176 12.0328V12.0332Z" fill="#A8B6B2"/>
</svg>
