<svg width="20" height="20" viewBox="0 0 20 20" fill="none" xmlns="http://www.w3.org/2000/svg">
<g clip-path="url(#clip0_299_4189)">
<path d="M4.6522 12.4008C3.66627 11.6552 2.68034 10.9095 1.69482 10.1629C1.233 9.81325 0.774003 9.45922 0.310561 9.11301C0.096633 8.95333 -0.0250914 8.74091 0.00402542 8.42936C0.0335466 8.1144 0.201373 7.95228 0.436329 7.85413C6.61354 5.2763 12.7899 2.69603 18.9667 0.116255C19.1188 0.0527735 19.2688 -0.0253572 19.4367 0.00784836C19.8657 0.0923272 20.0942 0.55281 19.9628 1.08752C19.617 2.49534 19.2672 3.90169 18.9186 5.30853C17.7653 9.96463 16.6111 14.6207 15.4586 19.2768C15.3999 19.5142 15.3332 19.7422 15.1456 19.8799C14.8916 20.066 14.6502 20.023 14.4071 19.8374C13.1454 18.8725 11.8817 17.9115 10.6183 16.9505C10.3736 16.7644 10.1274 16.5828 9.88149 16.3987C9.86693 16.3821 9.85399 16.3626 9.83741 16.3499C9.08523 15.7805 8.33224 15.2131 7.58127 14.6417C7.33499 14.4542 7.3362 14.4474 7.55539 14.2037C7.8421 13.8853 8.13853 13.5787 8.41837 13.252C9.06137 12.5014 9.71852 11.769 10.3753 11.036C11.0518 10.2811 11.7235 9.51978 12.3888 8.75068C12.8162 8.2565 13.2485 7.76867 13.6833 7.28426C14.3602 6.52981 15.0283 5.76364 15.6984 5.00089C15.8876 4.78505 15.9216 4.53211 15.7954 4.33092C15.6648 4.12192 15.4768 4.10532 15.2442 4.28404C13.9162 5.30365 12.5865 6.32081 11.2609 7.34432C9.18673 8.94551 7.1158 10.5521 5.04164 12.1528C4.9187 12.248 4.80304 12.3676 4.65179 12.4018L4.6522 12.4008Z" fill="#4B4DED"/>
<path d="M4.65222 12.4008C4.80306 12.3662 4.91872 12.2465 5.04206 12.1518C7.11623 10.5511 9.18716 8.94452 11.2613 7.34333C12.5874 6.31981 13.9166 5.30265 15.2447 4.28304C15.4772 4.10432 15.6652 4.12141 15.7959 4.32992C15.922 4.53111 15.8885 4.78454 15.6988 4.99989C15.0287 5.76313 14.3606 6.5293 13.6837 7.28326C13.2485 7.76767 12.8166 8.2555 12.3892 8.74968C11.7236 9.51878 11.0518 10.2801 10.3757 11.035C9.71895 11.768 9.0618 12.5004 8.4188 13.251C8.13896 13.5777 7.84253 13.8843 7.55581 14.2027C7.33663 14.4464 7.33541 14.4532 7.58169 14.6407C8.33266 15.2121 9.08606 15.7795 9.83784 16.3489C9.85442 16.3616 9.86736 16.3811 9.88192 16.3977C9.02014 17.1404 8.15837 17.8836 7.29619 18.6264C7.17002 18.7348 7.03697 18.7944 6.88491 18.704C6.95407 18.0633 7.02322 17.4232 7.09237 16.7825C7.16597 16.1018 7.23108 15.4196 7.31843 14.7418C7.34431 14.5416 7.30913 14.4259 7.1688 14.3219C6.65481 13.9385 6.15093 13.5357 5.6333 13.1602C5.32393 12.9355 5.03883 12.6611 4.70156 12.4936C4.68538 12.4628 4.66961 12.4316 4.65343 12.4008H4.65222Z" fill="white"/>
<path d="M4.70032 12.4941C5.03759 12.6616 5.32269 12.936 5.63205 13.1606C6.14969 13.5361 6.65357 13.9395 7.16756 14.3223C7.30748 14.4268 7.34267 14.5421 7.31719 14.7423C7.22984 15.4201 7.16473 16.1023 7.09113 16.783C7.02198 17.4236 6.95282 18.0638 6.88367 18.7045C6.75426 18.6757 6.69522 18.5546 6.65276 18.4266C6.00289 16.4739 5.35504 14.5196 4.7076 12.5659C4.70032 12.5439 4.70234 12.518 4.70032 12.4936V12.4941Z" fill="#DDDDDD"/>
</g>
<defs>
<clipPath id="clip0_299_4189">
<rect width="20" height="20" fill="white"/>
</clipPath>
</defs>
</svg>
