<svg width="20" height="20" viewBox="0 0 20 20" fill="none" xmlns="http://www.w3.org/2000/svg">
<g clip-path="url(#clip0_283_1797)">
<path d="M19.6579 8.12265C19.6623 8.45591 19.5201 8.72251 19.2846 8.94913C18.0716 10.14 16.8585 11.3397 15.641 12.5261C15.5032 12.6594 15.4677 12.7794 15.5032 12.966C15.7965 14.6456 16.0809 16.3297 16.3653 18.0093C16.4808 18.6892 16.1209 19.2357 15.4766 19.3557C15.2233 19.4046 14.9878 19.3379 14.7656 19.218C13.246 18.4093 11.7263 17.6094 10.2111 16.7963C10.0733 16.7252 9.97559 16.7207 9.83784 16.7963C8.31373 17.6094 6.78963 18.4181 5.26552 19.2224C4.72342 19.5068 4.13244 19.3557 3.81696 18.858C3.64366 18.5914 3.62589 18.2982 3.67921 17.996C3.97248 16.2808 4.26574 14.5701 4.55901 12.8549C4.58123 12.7261 4.52791 12.6505 4.44348 12.5705C3.2082 11.3619 1.97736 10.1489 0.746526 8.9358C0.431041 8.6292 0.306624 8.26039 0.41771 7.83826C0.542127 7.36281 0.870943 7.09621 1.35528 7.02511C3.06157 6.77184 4.76786 6.523 6.47859 6.27861C6.62078 6.25639 6.69187 6.19863 6.74964 6.07421C7.51391 4.50567 8.27819 2.93713 9.0469 1.36859C9.34462 0.768725 10.02 0.559882 10.5755 0.888698C10.7932 1.01756 10.9265 1.20863 11.0331 1.4308C11.7841 2.96824 12.5395 4.51012 13.286 6.04755C13.3571 6.18974 13.4326 6.25639 13.6014 6.27861C15.1478 6.49634 16.6941 6.7274 18.2404 6.95846C18.4182 6.98512 18.6003 7.00734 18.7781 7.04289C19.3157 7.14953 19.6623 7.5761 19.6623 8.1182L19.6579 8.12265ZM6.36306 11.1531C6.46526 11.162 6.54524 11.1264 6.61633 11.0642C7.24286 10.5043 7.87383 9.94002 8.50036 9.38015C8.9136 9.01578 9.32684 8.65142 9.74008 8.28705C10.02 8.03822 10.3044 7.78939 10.5755 7.53167C10.7265 7.38948 10.7221 7.20285 10.5932 7.0651C10.4644 6.92291 10.2822 6.91847 10.1267 7.05177C9.6601 7.46501 9.19798 7.87826 8.73142 8.2915C8.31818 8.65586 7.90494 9.01578 7.49169 9.38459C7.03846 9.78894 6.58967 10.2022 6.13644 10.611C6.02091 10.7132 6.01647 10.8465 6.0609 10.9665C6.10978 11.0909 6.21198 11.1753 6.36306 11.1575V11.1531ZM6.03868 8.86026C6.0298 9.00245 6.09645 9.09576 6.22975 9.16242C6.37639 9.22907 6.49192 9.18908 6.603 9.09132C6.90516 8.82471 7.20731 8.56255 7.50947 8.29594C7.79385 8.04266 8.08267 7.78939 8.35817 7.52722C8.5048 7.38948 8.50036 7.19841 8.36706 7.06066C8.24708 6.9318 8.0649 6.90958 7.9316 7.02956C7.33617 7.54944 6.74964 8.07821 6.15866 8.60254C6.08312 8.66919 6.03424 8.75362 6.04313 8.8647L6.03868 8.86026Z" fill="#F3C711"/>
<path d="M6.36304 11.1531C6.21197 11.1709 6.10977 11.0909 6.06089 10.962C6.01645 10.842 6.0209 10.7087 6.13643 10.6065C6.58966 10.1977 7.03845 9.78894 7.49168 9.38014C7.90048 9.01134 8.31816 8.65142 8.73141 8.28705C9.19797 7.87381 9.66009 7.46057 10.1267 7.04733C10.2822 6.90958 10.4644 6.91847 10.5932 7.06066C10.7221 7.19841 10.7265 7.38948 10.5754 7.52722C10.3044 7.78494 10.02 8.03378 9.74007 8.28261C9.32683 8.64697 8.91359 9.01134 8.50035 9.3757C7.86937 9.93558 7.24285 10.4999 6.61632 11.0598C6.54522 11.122 6.46524 11.1575 6.36304 11.1486V11.1531Z" fill="#FEE371"/>
<path d="M6.03868 8.86026C6.03423 8.74918 6.07867 8.66475 6.15421 8.5981C6.74519 8.07377 7.33172 7.545 7.92715 7.02512C8.06045 6.90514 8.24263 6.92736 8.3626 7.05622C8.49591 7.19397 8.50035 7.38504 8.35372 7.52278C8.07822 7.78495 7.7894 8.03822 7.50502 8.2915C7.20731 8.55811 6.90071 8.82027 6.59855 9.08688C6.48747 9.18464 6.37194 9.22463 6.2253 9.15797C6.092 9.09577 6.02535 8.99801 6.03423 8.85582L6.03868 8.86026Z" fill="#FEE371"/>
</g>
<defs>
<clipPath id="clip0_283_1797">
<rect width="20" height="20" fill="white"/>
</clipPath>
</defs>
</svg>
