<svg width="20" height="20" viewBox="0 0 20 20" fill="none" xmlns="http://www.w3.org/2000/svg">
<path d="M4.36304 11.1531C4.21197 11.1709 4.10977 11.0909 4.06089 10.962C4.01645 10.842 4.0209 10.7087 4.13643 10.6065C4.58966 10.1977 5.03845 9.78894 5.49168 9.38014C5.90048 9.01134 6.31816 8.65142 6.73141 8.28705C7.19797 7.87381 7.66009 7.46057 8.12665 7.04733C8.28217 6.90958 8.46435 6.91847 8.59321 7.06066C8.72207 7.19841 8.72652 7.38948 8.57544 7.52722C8.30439 7.78494 8.02001 8.03378 7.74007 8.28261C7.32683 8.64697 6.91359 9.01134 6.50035 9.3757C5.86937 9.93558 5.24285 10.4999 4.61632 11.0598C4.54522 11.122 4.46524 11.1575 4.36304 11.1486V11.1531Z" fill="#FEE371"/>
<path d="M5.88735 19.4725C7.41145 18.6682 8.93556 17.8595 10.4597 17.0464V8.45038V7.55813V1.00012C10.1344 1.05929 9.83945 1.2747 9.66873 1.61869C8.90001 3.18723 8.13574 4.75577 7.37146 6.32431C7.3137 6.44873 7.2426 6.5065 7.10041 6.52871C5.38968 6.7731 3.68339 7.02194 1.97711 7.27521C1.49277 7.34631 1.16395 7.61292 1.03954 8.08837C0.92845 8.51049 1.05287 8.8793 1.36835 9.1859L1.36838 9.18592C2.59921 10.399 3.83004 11.612 5.06531 12.8207C5.14973 12.9006 5.20306 12.9762 5.18084 13.105C4.88757 14.8202 4.5943 16.5309 4.30103 18.2461C4.24771 18.5483 4.26549 18.8415 4.43878 19.1081C4.75427 19.6058 5.34525 19.7569 5.88735 19.4725Z" fill="#F3C711"/>
</svg>
