<svg width="20" height="20" viewBox="0 0 20 20" fill="none" xmlns="http://www.w3.org/2000/svg">
<g clip-path="url(#clip0_283_1800)">
<path d="M12.8416 8.4237C13.2631 8.32237 13.6911 8.26827 14.1243 8.25858C14.1352 8.32479 14.1461 8.391 14.1566 8.45721C14.2322 8.93519 14.6031 9.26381 15.1022 9.29409C15.5997 9.32437 16.026 9.045 16.1581 8.59406C16.1901 8.48547 16.2006 8.37041 16.2212 8.25818C16.9482 8.27715 17.6529 8.39584 18.3068 8.73253C19.3485 9.26906 19.8791 10.1451 19.9773 11.2928C20.0076 11.6469 20.0004 12.0054 19.9959 12.3614C19.9907 12.8092 19.7062 13.0865 19.2548 13.0865C17.0605 13.0877 14.8658 13.0857 12.6715 13.0849C12.6982 12.8923 12.7269 12.7002 12.7499 12.5072C12.7568 12.4486 12.7709 12.4155 12.834 12.3913C13.3751 12.1818 13.4599 12.0526 13.4345 11.5016C13.4369 11.0914 13.4421 10.6812 13.4413 10.2711C13.4401 9.66913 13.2591 9.1213 12.9334 8.61788C12.8946 8.55773 12.8287 8.50888 12.8416 8.4241V8.4237Z" fill="#27A1DA"/>
<path d="M13.4341 11.5015C13.4596 12.0526 13.3747 12.1818 12.8336 12.3913C12.7706 12.4159 12.7564 12.4486 12.7495 12.5072C12.7265 12.7001 12.6978 12.8923 12.6711 13.0849C12.6016 13.2803 12.5451 13.4813 12.4602 13.6694C12.1741 14.3049 11.713 14.7582 11.0458 14.9884C10.3483 15.2088 9.65086 15.2088 8.95338 14.9884C8.10395 14.6876 7.62104 14.0598 7.37373 13.2217C7.36039 13.1769 7.34544 13.1325 7.33089 13.0881C7.30422 12.9093 7.26704 12.7312 7.25492 12.5516C7.24765 12.4426 7.20319 12.4034 7.1058 12.376C6.65806 12.2496 6.48671 11.946 6.59421 11.4834C6.67988 11.2319 6.85647 11.0793 7.1151 11.0345C7.21653 11.0171 7.24037 10.9755 7.25492 10.881C7.3317 10.3805 7.70711 10.0518 8.22599 10.026C8.85073 9.99451 9.40799 9.78781 9.88646 9.38491C9.98142 9.30498 10.0323 9.31871 10.12 9.39097C10.6017 9.78862 11.1578 9.99653 11.7829 10.0272C12.2978 10.0522 12.661 10.3813 12.7475 10.8907C12.7576 10.9501 12.7479 11.0167 12.8344 11.0248C13.1375 11.0534 13.3072 11.2504 13.4341 11.5007V11.5015Z" fill="#FDB99B"/>
<path d="M18.603 4.26232C18.6495 4.7936 18.5226 4.99222 18.0143 5.14967C17.9088 5.18237 17.9286 5.2514 17.9217 5.32044C17.8688 5.86221 17.7184 6.37169 17.4174 6.82989C17.1232 7.2776 16.7155 7.58038 16.2136 7.76124C15.5197 7.9744 14.8263 7.974 14.1324 7.76124C13.0155 7.33977 12.5617 6.45162 12.4247 5.34022C12.4158 5.26836 12.4501 5.18641 12.3313 5.15007C11.8254 4.99505 11.6961 4.79279 11.7429 4.26192C11.8634 4.01445 12.0343 3.82834 12.3244 3.79281C12.4162 3.78151 12.4154 3.71893 12.4263 3.6495C12.5067 3.15334 12.8732 2.82392 13.3763 2.79768C14.0063 2.76457 14.5717 2.56151 15.0566 2.15579C15.1475 2.07948 15.1988 2.07868 15.2898 2.15538C15.763 2.55182 16.315 2.75731 16.9296 2.79526C17.4816 2.82917 17.8203 3.12347 17.9197 3.6713C17.9322 3.73952 17.9468 3.78353 18.0215 3.79322C18.3113 3.83076 18.483 4.01525 18.6026 4.26313L18.603 4.26232Z" fill="#FDB99B"/>
<path d="M6.59509 11.4842C6.4876 11.9468 6.65894 12.2504 7.10669 12.3768C7.20408 12.4042 7.24853 12.4434 7.2558 12.5524C7.26792 12.732 7.3051 12.9101 7.33177 13.0889C5.17021 13.0889 3.00865 13.0885 0.846685 13.0881C0.250629 13.0881 0.00452845 12.8394 0.00250792 12.2403C0.0012956 11.816 0.0158434 11.3929 0.113637 10.9775C0.300334 10.1826 0.716563 9.548 1.41567 9.10918C2.04728 8.74907 2.73265 8.60656 3.45357 8.60898C3.46044 9.23231 3.85283 9.6235 4.47272 9.62471C5.10758 9.62592 5.50602 9.23796 5.51532 8.60979C5.99742 8.59162 6.46295 8.68892 6.92363 8.8173C6.92201 8.83062 6.92443 8.84596 6.91837 8.85686C6.46456 9.65539 6.56195 10.5318 6.56034 11.3937C6.56034 11.424 6.58297 11.4543 6.59509 11.4846V11.4842Z" fill="#DB5151"/>
<path d="M1.04264 5.01282C1.02728 4.88202 1.02486 4.75162 1.04507 4.62123C1.15135 4.41251 1.28187 4.21954 1.52514 4.16625C1.67587 4.13314 1.72073 4.05079 1.75508 3.91474C1.85974 3.49892 2.12564 3.2458 2.55238 3.15779C2.85142 3.09602 3.1545 3.12065 3.45556 3.09118C4.15547 3.02295 4.83679 2.90225 5.48619 2.61925C5.7727 2.4945 6.06729 2.50823 6.32754 2.70564C6.76437 3.03668 7.13777 3.41536 7.23718 3.98741C7.24688 4.04191 7.23718 4.1178 7.32244 4.1287C7.6041 4.16504 7.76615 4.3572 7.9092 4.5748C7.9387 4.71973 7.94638 4.86547 7.92092 5.01201C7.8001 5.21588 7.6821 5.43227 7.42226 5.47506C7.25415 5.50292 7.19313 5.60788 7.13656 5.74272C6.94622 6.19729 6.69446 6.61715 6.40916 7.01924C6.15337 7.37894 5.83049 7.67082 5.5072 7.96351C5.43487 7.95947 5.38395 8.0059 5.32576 8.03739C4.88043 8.27638 4.41571 8.31473 3.93159 8.17303C3.76389 8.12418 3.63538 7.99177 3.46 7.96351C3.38443 7.83876 3.24946 7.78023 3.14682 7.68414C2.5641 7.13914 2.15555 6.47747 1.83146 5.75645C1.78781 5.65956 1.78337 5.52472 1.63668 5.50171C1.34249 5.45569 1.16913 5.26231 1.04224 5.01242L1.04264 5.01282Z" fill="#9D5F4A"/>
<path d="M7.90957 4.57439C7.76652 4.35679 7.60447 4.16422 7.32281 4.12829C7.23795 4.11739 7.24724 4.0419 7.23755 3.987C7.13773 3.41494 6.76474 3.03627 6.3279 2.70523C6.06766 2.50782 5.77307 2.49409 5.48656 2.61884C4.83716 2.90183 4.15584 3.02254 3.45592 3.09077C3.15487 3.12024 2.85138 3.09561 2.55275 3.15738C2.12601 3.24539 1.86011 3.49892 1.75545 3.91433C1.7211 4.05038 1.67624 4.13273 1.52551 4.16584C1.28224 4.21913 1.15171 4.4121 1.04543 4.62081C1.01674 3.67493 0.940367 2.71936 1.42691 1.84735C2.07712 0.681855 3.06475 0.0589365 4.41123 0.00564732C6.07332 -0.0601567 7.60447 1.16227 7.8829 2.87115C7.97464 3.43432 7.9609 4.00557 7.90957 4.57439Z" fill="#493732"/>
<path d="M18.603 4.26231C18.4834 4.01444 18.3117 3.82954 18.0219 3.7924C17.9472 3.78271 17.9326 3.7387 17.9201 3.67048C17.8207 3.12265 17.4821 2.82835 16.93 2.79444C16.3154 2.75649 15.7634 2.55141 15.2902 2.15456C15.1989 2.07826 15.1479 2.07867 15.057 2.15497C14.5721 2.56109 14.0067 2.76416 13.3767 2.79686C12.874 2.8231 12.5075 3.15252 12.4267 3.64868C12.4154 3.71812 12.4166 3.78069 12.3249 3.79199C12.0347 3.82752 11.8634 4.01363 11.7433 4.2611C11.7559 3.57197 11.6674 2.88002 11.8557 2.19655C12.185 0.998752 13.4163 0.019765 14.6582 0.012902C15.2077 0.010076 15.7602 -0.0440206 16.3057 0.0920283C17.6134 0.41903 18.601 1.66285 18.6095 3.01123C18.6119 3.42785 18.6055 3.84488 18.603 4.26191V4.26231Z" fill="#242C4C"/>
<path d="M6.59502 11.4842C6.58289 11.4539 6.56026 11.4236 6.56026 11.3934C6.56188 10.5315 6.46489 9.65501 6.9183 8.85648C6.92436 8.84558 6.92194 8.83024 6.92355 8.81691C7.08681 8.63202 7.2032 8.4124 7.36969 8.22831C7.69984 7.86376 8.1193 7.63325 8.54402 7.40758C9.11704 7.22672 9.70744 7.23519 10.2999 7.23318C11.2608 7.22995 12.0484 7.5957 12.6918 8.29573C12.7366 8.34458 12.7689 8.40796 12.8421 8.4237C12.8292 8.50889 12.895 8.55774 12.9338 8.61748C13.2591 9.12091 13.4406 9.66873 13.4418 10.2707C13.4426 10.6808 13.4373 11.091 13.4349 11.5012C13.308 11.2509 13.1383 11.0538 12.8352 11.0252C12.7491 11.0171 12.7584 10.9505 12.7483 10.8912C12.6619 10.3817 12.299 10.0527 11.7837 10.0276C11.1586 9.99695 10.6025 9.78904 10.1208 9.39139C10.0336 9.31912 9.98223 9.3054 9.88727 9.38533C9.4088 9.78863 8.85154 9.99533 8.2268 10.0264C7.70792 10.0523 7.33251 10.3809 7.25573 10.8815C7.24118 10.9759 7.21734 11.0171 7.11591 11.0349C6.85728 11.0797 6.68069 11.2323 6.59502 11.4838V11.4842Z" fill="#242C4C"/>
<path d="M12.1822 15.6371C13.4373 15.8947 14.6585 16.753 14.8064 18.5168C14.8262 18.7509 14.8266 18.9867 14.825 19.222C14.8214 19.7004 14.5514 19.9709 14.0722 19.9721C13.0563 19.9753 12.0403 19.9725 11.0244 19.9721C10.9104 19.4017 10.7965 18.8312 10.6821 18.2604C10.75 18.0178 10.8179 17.7747 10.8858 17.5321C11.0487 17.5878 11.2236 17.6084 11.3129 17.436C11.6112 16.8612 11.892 16.2774 12.1781 15.6965C12.1862 15.6799 12.181 15.6569 12.1822 15.6367V15.6371Z" fill="#D4DDE1"/>
<path d="M8.98693 19.9709C7.96535 19.9717 6.94377 19.9754 5.92219 19.9722C5.44575 19.9705 5.18106 19.6972 5.17379 19.2176C5.16571 18.692 5.19116 18.1704 5.36695 17.6682C5.74358 16.5923 6.54613 15.9936 7.60287 15.6816C7.67278 15.661 7.74632 15.6525 7.81826 15.6384C7.81098 15.7244 7.85665 15.793 7.89221 15.8648C8.13265 16.3457 8.37309 16.8269 8.61394 17.3073C8.74204 17.5624 8.83377 17.6028 9.11382 17.5326C9.18171 17.7752 9.2496 18.0182 9.31749 18.2608C9.29445 18.3581 9.26617 18.455 9.24919 18.5535C9.16797 19.0271 9.03381 19.4909 8.98652 19.9709H8.98693Z" fill="#D4DDE1"/>
<path d="M1.04262 5.01282C1.1691 5.26271 1.34246 5.45609 1.63706 5.50211C1.78375 5.52512 1.78819 5.65996 1.83183 5.75685C2.15593 6.47787 2.56448 7.13914 3.1472 7.68454C3.24944 7.78022 3.38481 7.83876 3.46038 7.96391C3.45796 8.17908 3.45594 8.39426 3.45392 8.60903C2.73299 8.60701 2.04763 8.74912 1.41601 9.10922C1.23295 8.99255 1.01433 8.96954 0.81955 8.87992C0.610223 8.78343 0.415848 8.66716 0.237638 8.52425C-0.0605921 8.28485 -0.0779687 7.96552 0.187933 7.68939C0.650634 7.20898 0.853899 6.6123 0.946439 5.97122C0.992507 5.6539 1.0119 5.33255 1.04342 5.01322L1.04262 5.01282Z" fill="#493732"/>
<path d="M8.54361 7.40755C8.1189 7.63323 7.69903 7.86374 7.36928 8.22829C7.20239 8.41238 7.08641 8.63199 6.92315 8.81689C6.46247 8.68892 5.99694 8.59162 5.51484 8.60979C5.51242 8.39421 5.50999 8.17904 5.50757 7.96346C5.83085 7.67037 6.15373 7.37889 6.40953 7.01919C6.69524 6.6171 6.94659 6.19765 7.13692 5.74267C7.1935 5.60743 7.25452 5.50247 7.42263 5.47501C7.68247 5.43222 7.80046 5.21583 7.92129 5.01196C7.94998 5.40517 7.97302 5.79838 8.05545 6.18594C8.148 6.62235 8.28377 7.03937 8.54361 7.40796V7.40755Z" fill="#493732"/>
<path d="M8.98694 19.9709C9.03422 19.4909 9.16838 19.0274 9.24961 18.5535C9.26658 18.455 9.29487 18.3585 9.3179 18.2608C9.77292 18.2608 10.2275 18.2608 10.6826 18.2608C10.7965 18.8312 10.9105 19.4017 11.0248 19.9725C10.5585 20.0185 10.091 19.9862 9.62381 19.9907C9.41206 19.9927 9.19788 20.0198 8.98694 19.9709Z" fill="#BA4C4C"/>
<path d="M12.1822 15.6372C12.1814 15.6573 12.1866 15.6804 12.1781 15.6969C11.892 16.2778 11.6112 16.8616 11.3129 17.4365C11.2232 17.6093 11.0483 17.5883 10.8858 17.5326C10.6272 17.2831 10.3095 17.1127 10.0299 16.8915C10.3213 16.3913 10.6934 15.9504 11.0531 15.5003C11.4342 15.5072 11.8136 15.5286 12.1822 15.6372Z" fill="#E7EBED"/>
<path d="M9.11421 17.5329C8.83417 17.6032 8.74243 17.5624 8.61433 17.3077C8.37308 16.8272 8.13304 16.346 7.8926 15.8652C7.85663 15.7934 7.81137 15.7247 7.81865 15.6387C8.18719 15.5281 8.56665 15.5075 8.94772 15.5007C9.22009 15.7994 9.44154 16.1377 9.6844 16.4591C9.78826 16.5967 9.92444 16.7154 9.97092 16.8922C9.69249 17.1155 9.37446 17.2859 9.11462 17.5337L9.11421 17.5329Z" fill="#E7EBED"/>
<path d="M14.1319 7.7608C14.8258 7.97356 15.5192 7.97396 16.2131 7.7608C16.2159 7.92673 16.2183 8.09265 16.2212 8.25857C16.2006 8.3708 16.1901 8.48546 16.1581 8.59446C16.0256 9.0454 15.5997 9.32476 15.1022 9.29448C14.6031 9.2642 14.2322 8.93559 14.1566 8.4576C14.1461 8.39139 14.1352 8.32518 14.1243 8.25898C14.1267 8.09305 14.1295 7.92713 14.1319 7.76121V7.7608Z" fill="#F8A98A"/>
<path d="M9.97058 16.8915C9.92411 16.7151 9.78833 16.5964 9.68407 16.4583C9.4412 16.1365 9.21975 15.7986 8.94739 15.4999C8.97446 15.3299 8.96557 15.1592 8.95385 14.9884C9.65134 15.2088 10.3488 15.2088 11.0463 14.9884C11.0354 15.1592 11.0253 15.3295 11.0532 15.4999C10.6931 15.95 10.3209 16.3909 10.03 16.8911C10.0102 16.8911 9.99038 16.8911 9.97058 16.8911V16.8915Z" fill="#F8A98A"/>
<path d="M5.5076 7.9635C5.51002 8.17908 5.51245 8.39426 5.51487 8.60983C5.50598 9.238 5.10753 9.62596 4.47228 9.62475C3.85238 9.62354 3.45999 9.23235 3.45312 8.60903C3.45515 8.39385 3.45757 8.17868 3.45959 7.96391C3.63538 7.99216 3.76348 8.12418 3.93159 8.17343C4.4157 8.31513 4.88043 8.27678 5.32575 8.03778C5.38435 8.00629 5.43486 7.95987 5.50719 7.96391L5.5076 7.9635Z" fill="#895342"/>
<path d="M9.97047 16.8915C9.99027 16.8915 10.0101 16.8915 10.0299 16.8915C10.3095 17.1131 10.6271 17.2831 10.8858 17.5325C10.8179 17.7752 10.75 18.0182 10.6821 18.2608C10.2271 18.2608 9.77246 18.2608 9.31744 18.2608C9.24955 18.0182 9.18166 17.7752 9.11377 17.5325C9.37361 17.2847 9.69204 17.1143 9.97007 16.8911L9.97047 16.8915Z" fill="#DC5353"/>
</g>
<defs>
<clipPath id="clip0_283_1800">
<rect width="20" height="20" fill="white"/>
</clipPath>
</defs>
</svg>
