<svg width="20" height="20" viewBox="0 0 20 20" fill="none" xmlns="http://www.w3.org/2000/svg">
<g clip-path="url(#clip0_283_1801)">
<path d="M9.54855 0.0008213C10.3488 0.0008213 11.1488 -0.00119947 11.9491 0.00162961C12.3736 0.00324623 12.6757 0.294642 12.769 0.786498C12.8167 1.03788 12.7787 1.27795 12.7124 1.51721C12.139 3.58002 11.5675 5.64363 10.9956 7.70724C10.9536 7.85894 10.9955 7.93478 11.1213 7.93478C12.4717 7.93478 13.8224 7.93357 15.1729 7.93559C15.5891 7.936 15.8952 8.23911 15.9793 8.73946C16.0456 9.13391 15.9475 9.46491 15.7362 9.74984C15.1512 10.5388 14.5683 11.3305 13.9851 12.1214C12.1356 14.6296 10.2861 17.1378 8.43727 19.6468C8.32596 19.7979 8.2125 19.9406 8.04829 19.983C7.58928 20.1019 7.22966 19.5797 7.35503 18.967C7.4532 18.4869 7.56176 18.0104 7.66512 17.5322C8.16816 15.2059 8.66968 12.8788 9.1767 10.5537C9.21523 10.3767 9.18893 10.3431 9.05438 10.3435C7.65808 10.3496 6.26149 10.348 4.86519 10.3468C4.42637 10.3464 4.12454 10.0639 4.02607 9.56636C3.98387 9.35215 3.99641 9.14038 4.05421 8.93183C4.81504 6.18681 5.57496 3.44139 6.33763 0.69718C6.46454 0.241293 6.7419 0.00243792 7.13302 0.00162961C7.9382 -0.000795319 8.74307 0.0008213 9.54855 0.0008213ZM8.22963 2.12142C8.23941 1.98765 8.21434 1.8466 8.14676 1.7201C7.88468 1.22703 7.33026 1.27593 7.14862 1.82922C6.98868 2.31582 6.85841 2.82061 6.72814 3.32338C6.61683 3.75259 6.76636 4.15351 7.07706 4.3083C7.36207 4.45016 7.68561 4.25091 7.80793 3.84029C7.94584 3.37673 8.07092 2.9071 8.20211 2.4403C8.22932 2.3433 8.23024 2.24226 8.22963 2.12142ZM6.59879 6.88923C6.89266 6.89247 7.12262 6.60471 7.12629 6.22965C7.12996 5.84247 6.90122 5.52238 6.61622 5.51551C6.33304 5.50864 6.08565 5.83156 6.08718 6.20621C6.08871 6.58935 6.31041 6.886 6.59879 6.88923Z" fill="#E1AB4D"/>
<path d="M8.22967 2.12165C8.23029 2.2425 8.22937 2.34313 8.20215 2.44013C8.07096 2.90693 7.94589 3.37696 7.80797 3.84012C7.68596 4.25074 7.36211 4.45039 7.07711 4.30813C6.76641 4.15334 6.61687 3.75282 6.72819 3.32321C6.85846 2.82044 6.98873 2.31565 7.14866 1.82905C7.33031 1.27616 7.88473 1.22685 8.1468 1.71992C8.21408 1.84683 8.23946 1.98788 8.22967 2.12125V2.12165Z" fill="#F8C677"/>
<path d="M6.59901 6.88909C6.31064 6.88586 6.08863 6.58961 6.08741 6.20607C6.08618 5.83142 6.33327 5.5085 6.61644 5.51537C6.90145 5.52224 7.12989 5.84233 7.12652 6.22951C7.12316 6.60497 6.89289 6.89273 6.59901 6.88909Z" fill="#F8C677"/>
</g>
<defs>
<clipPath id="clip0_283_1801">
<rect width="20" height="20" fill="white"/>
</clipPath>
</defs>
</svg>
