<svg width="20" height="20" viewBox="0 0 20 20" fill="none" xmlns="http://www.w3.org/2000/svg">
<path d="M13.5235 10.8289C14.2387 11.0215 14.9571 11.2043 15.6692 11.4094C16.8602 11.7524 17.6766 12.8149 17.6969 14.0551C17.7117 14.9594 17.7106 15.8645 17.6989 16.7692C17.6828 18.0371 16.8313 19.0254 15.5852 19.2563C13.5672 19.6297 11.5297 19.7192 9.48323 19.6973C7.80823 19.6793 6.14455 19.5508 4.49377 19.2574C3.28401 19.0426 2.4008 18.0418 2.38127 16.8078C2.36721 15.9293 2.37307 15.0504 2.37815 14.1719C2.38557 12.809 3.1926 11.7477 4.50315 11.3805C5.18518 11.1895 5.87151 11.0125 6.55549 10.8293C6.83401 11.359 7.26916 11.7274 7.80979 11.9481C9.22229 12.5246 10.6598 12.5242 12.0906 12.025C12.7063 11.8102 13.2082 11.4223 13.5235 10.8293V10.8289Z" fill="#1F3CB3"/>
<path d="M7.93595 9.0621C7.71994 8.8664 7.48517 8.69218 7.2922 8.46992C6.7258 7.81796 6.42111 7.06093 6.37658 6.20078C6.37033 6.0789 6.33595 6.03788 6.21603 6.01913C5.71955 5.94062 5.37931 5.54062 5.37541 5.04687C5.37111 4.5457 5.71291 4.13749 6.21916 4.0582C6.34338 4.03867 6.36955 3.99062 6.3758 3.87343C6.47384 2.05312 7.87462 0.557416 9.62853 0.393354C11.527 0.21601 13.1738 1.3832 13.611 3.2164C13.6641 3.43867 13.6942 3.66445 13.7016 3.89179C13.7047 3.99335 13.7301 4.03554 13.8375 4.05468C14.3707 4.14843 14.7055 4.53828 14.7016 5.04609C14.6977 5.54687 14.3625 5.93085 13.8426 6.02382C13.7578 6.03906 13.7078 6.05312 13.7024 6.16171C13.6406 7.35039 13.134 8.30468 12.1785 9.01796C12.1637 9.0289 12.1543 9.04726 12.1422 9.0621C12.0965 9.08554 12.0485 9.10585 12.0051 9.1332C11.1231 9.69296 10.1695 9.81249 9.16173 9.5957C8.71759 9.49999 8.32345 9.28828 7.93556 9.0621H7.93595Z" fill="#ECA47F"/>
<path d="M7.93595 9.06213C8.32345 9.28831 8.71798 9.50002 9.16212 9.59573C10.1699 9.81252 11.1234 9.69299 12.0055 9.13323C12.0488 9.10588 12.0969 9.08557 12.1426 9.06213C12.1758 9.19417 12.2039 9.32776 12.2426 9.45862C12.4406 10.1285 12.8766 10.5778 13.5234 10.8289C13.2082 11.4223 12.7063 11.8098 12.0906 12.0246C10.6594 12.5239 9.22228 12.5246 7.80978 11.9477C7.26915 11.727 6.83361 11.3586 6.55548 10.8289C7.309 10.5344 7.75314 9.98674 7.89689 9.1926C7.90509 9.14807 7.92306 9.10549 7.93634 9.06213H7.93595Z" fill="#E3997A"/>
</svg>
