<svg width="20" height="20" viewBox="0 0 20 20" fill="none" xmlns="http://www.w3.org/2000/svg">
<path d="M10.4463 0.00891113C10.7438 0.0666504 11.0503 0.102182 11.339 0.18657C13.2444 0.75508 14.4081 2.05199 14.8344 3.95739C15.3275 6.18257 14.7767 8.17236 13.2311 9.869C13.2089 9.89121 13.1867 9.91342 13.1644 9.94007C13.1556 9.94895 13.1556 9.96228 13.1556 9.96228C13.6797 10.2021 14.226 10.4064 14.7279 10.6862C15.5584 11.1482 16.3801 11.6367 17.1751 12.1608C17.8946 12.6316 18.281 13.3511 18.4365 14.1906C18.6275 15.2343 18.8229 16.2825 18.9739 17.3351C19.1116 18.2723 18.623 18.9874 17.717 19.2627C16.7621 19.5514 15.776 19.6802 14.79 19.7735C12.4183 19.9911 10.0465 20.0134 7.66589 19.929C6.08472 19.8712 4.50356 19.7691 2.94904 19.4271C2.73585 19.3782 2.51821 19.3249 2.30946 19.2583C1.45226 18.9963 0.972576 18.3256 1.06141 17.4373C1.18577 16.2026 1.38563 14.9812 1.71875 13.782C1.90973 13.0935 2.31835 12.5517 2.89574 12.1386C4.09494 11.2858 5.37409 10.5796 6.75095 10.0511C6.7998 10.0333 6.84422 10.0111 6.87087 9.99781C6.58661 9.62028 6.26238 9.26496 6.02698 8.86079C4.89885 6.93318 4.64568 4.91231 5.59172 2.84702C6.34233 1.20811 7.66145 0.270959 9.46025 0.0400015C9.50467 0.03556 9.54908 0.0177941 9.58905 0.00891113C9.87331 0.00891113 10.162 0.00891113 10.4463 0.00891113ZM10.0243 19.3516C11.6144 19.2672 13.2044 19.2006 14.79 19.094C15.7094 19.0318 16.6199 18.8852 17.5082 18.6232C18.1211 18.4411 18.4098 18.0369 18.3121 17.4106C18.1389 16.3047 17.939 15.1988 17.7259 14.0973C17.6104 13.5155 17.2861 13.0491 16.802 12.6982C15.5406 11.7922 14.186 11.0638 12.7247 10.5352C12.5826 10.4819 12.476 10.4997 12.3472 10.5796C10.7927 11.5612 9.23374 11.5612 7.68366 10.5796C7.5593 10.5041 7.46158 10.4864 7.3239 10.5352C5.85377 11.0638 4.49467 11.7966 3.22885 12.7071C2.79803 13.018 2.49601 13.4266 2.35388 13.9374C2.02965 15.11 1.83867 16.3092 1.7143 17.5172C1.66101 18.0502 1.94526 18.4411 2.46047 18.6054C3.37098 18.8897 4.30813 19.0318 5.25417 19.0984C6.83978 19.2094 8.42983 19.2716 10.0199 19.356L10.0243 19.3516ZM5.68943 5.35202C5.73385 6.95095 6.24906 8.37222 7.42161 9.51813C8.89174 10.9572 10.8149 11.0282 12.3916 9.72244C14.1815 8.24342 14.8567 5.36534 13.9106 3.24231C12.7603 0.675134 9.6157 -0.150982 7.43493 1.55899C6.21797 2.51391 5.73385 3.82415 5.68943 5.35202Z" fill="black"/>
<path d="M10.0243 19.3515C8.43429 19.2671 6.84424 19.2049 5.25863 19.0939C4.31259 19.0273 3.37544 18.8851 2.46494 18.6009C1.94972 18.441 1.66547 18.0501 1.71877 17.5127C1.84313 16.3046 2.03411 15.1054 2.35834 13.9329C2.50047 13.4221 2.80249 13.0135 3.23331 12.7026C4.49914 11.7965 5.85823 11.0592 7.32836 10.5307C7.46605 10.4819 7.56376 10.4996 7.68812 10.5751C9.2382 11.5611 10.7972 11.5611 12.3517 10.5751C12.4805 10.4952 12.5826 10.4774 12.7292 10.5307C14.1905 11.0592 15.5451 11.7876 16.8065 12.6937C17.2906 13.0401 17.6148 13.5109 17.7303 14.0928C17.9435 15.1943 18.1434 16.2958 18.3166 17.4061C18.4143 18.0324 18.1256 18.4366 17.5127 18.6187C16.6244 18.8807 15.7139 19.0273 14.7945 19.0894C13.2089 19.196 11.6188 19.2627 10.0288 19.3471L10.0243 19.3515Z" fill="white"/>
<path d="M5.68945 5.35199C5.73387 3.82412 6.21799 2.51388 7.43496 1.55896C9.61572 -0.151012 12.7647 0.675103 13.9106 3.24228C14.8611 5.36087 14.186 8.23895 12.3917 9.72241C10.8105 11.0282 8.89176 10.9527 7.42163 9.5181C6.24908 8.37219 5.72943 6.95092 5.68945 5.35199Z" fill="white"/>
</svg>
