<svg width="20" height="20" viewBox="0 0 20 20" fill="none" xmlns="http://www.w3.org/2000/svg">
<g clip-path="url(#clip0_307_4058)">
<path d="M0.000488281 1.71992C0.0328415 1.60929 0.0625856 1.49814 0.0980697 1.38856C0.368897 0.556245 1.12502 0.00571879 2.01995 0.00258783C3.45184 -0.0021086 4.88321 0.00102235 6.3151 0.00102235C10.1871 0.00102235 14.0595 -2.12989e-05 17.9315 0.00154418C18.9235 0.00154418 19.7125 0.600078 19.9363 1.52997C19.9843 1.72983 19.9969 1.94169 19.9969 2.14834C20 6.27441 19.9995 10.4005 19.9995 14.526C19.9995 15.828 19.1546 16.6697 17.8459 16.6697C15.3406 16.6702 12.8348 16.6697 10.3295 16.6697C9.87396 16.6697 9.4184 16.6629 8.96285 16.6749C8.8564 16.6775 8.73168 16.7182 8.64975 16.7845C7.51426 17.6982 6.38294 18.6166 5.25528 19.5403C5.01158 19.7401 4.76215 19.9196 4.45323 20H4.02377C4.00811 19.9896 3.99402 19.9739 3.9768 19.9687C3.31982 19.772 3.00464 19.3508 3.0036 18.6636C3.00255 18.0713 3.0036 17.4796 3.0036 16.8873C3.0036 16.8189 3.0036 16.7506 3.0036 16.6697C2.66702 16.6697 2.36175 16.6739 2.05648 16.6687C1.25757 16.6556 0.637638 16.318 0.248356 15.6141C0.131467 15.4022 0.0813713 15.1533 0.00101011 14.9216C0.000488281 10.5216 0.000488281 6.12047 0.000488281 1.71992ZM10.0159 0.66635C7.37284 0.66635 4.7298 0.665829 2.08727 0.66635C1.23043 0.66635 0.666338 1.22888 0.666338 2.08415C0.665295 6.25041 0.665295 10.4167 0.666338 14.5829C0.666338 15.4293 1.22365 15.9924 2.06796 16.0018C2.44524 16.0059 2.82304 16.0018 3.20085 16.0028C3.57343 16.0033 3.66892 16.1014 3.66945 16.4813C3.66945 17.2301 3.66736 17.9784 3.67101 18.7273C3.67258 19.0367 3.85 19.2554 4.13752 19.3169C4.3473 19.3618 4.51689 19.2794 4.675 19.1505C5.88616 18.1642 7.10097 17.1827 8.30796 16.1912C8.47546 16.054 8.64401 15.9992 8.85796 15.9992C11.859 16.0044 14.86 16.0028 17.861 16.0023C18.7857 16.0023 19.3347 15.4554 19.3347 14.537C19.3347 10.4031 19.3347 6.26972 19.3347 2.13581C19.3347 1.2127 18.7888 0.665829 17.8673 0.665829C15.2503 0.665829 12.6334 0.665829 10.0164 0.665829L10.0159 0.66635Z" fill="black"/>
<path d="M9.99914 9.33545C12.3875 9.33545 14.7754 9.33545 17.1638 9.33545C17.229 9.33545 17.2943 9.3318 17.359 9.33859C17.538 9.35685 17.6585 9.48835 17.6606 9.66212C17.6632 9.83536 17.5458 9.97313 17.3699 9.99661C17.3125 10.0044 17.253 10.0008 17.1946 10.0008C12.3985 10.0008 7.6024 10.0008 2.8063 10.0008C2.74785 10.0008 2.68836 10.0044 2.63096 9.99661C2.45458 9.97313 2.33717 9.83641 2.33926 9.66316C2.34135 9.48939 2.46085 9.35737 2.63931 9.33859C2.7035 9.3318 2.76925 9.33545 2.83447 9.33545C5.22287 9.33545 7.61075 9.33545 9.99914 9.33545Z" fill="black"/>
<path d="M9.99237 6.99763C7.61076 6.99763 5.22914 6.99763 2.84701 6.99763C2.77552 6.99763 2.70298 7.00181 2.63254 6.99294C2.46294 6.97154 2.35962 6.87448 2.34188 6.70333C2.3231 6.5233 2.40972 6.40067 2.58088 6.35005C2.65341 6.32865 2.73534 6.33231 2.81257 6.33231C7.60189 6.33178 12.3917 6.33178 17.181 6.33231C17.2463 6.33231 17.312 6.32813 17.3757 6.33857C17.5526 6.36727 17.6653 6.50607 17.6596 6.67932C17.6543 6.85413 17.5343 6.97885 17.3517 6.99503C17.287 7.00077 17.2217 6.99816 17.1565 6.99816C14.7681 6.99816 12.3802 6.99816 9.99185 6.99816L9.99237 6.99763Z" fill="black"/>
<path d="M10.0028 3.99818C7.62122 3.99818 5.23961 3.99818 2.85799 3.99818C2.78024 3.99818 2.70092 4.00132 2.62422 3.99088C2.4541 3.96792 2.35652 3.86564 2.34086 3.69448C2.32521 3.52593 2.42331 3.38869 2.59082 3.34903C2.65918 3.33286 2.73276 3.33181 2.80372 3.33181C7.5993 3.33129 12.3949 3.33129 17.1905 3.33181C17.2677 3.33181 17.3486 3.33286 17.4222 3.35373C17.5871 3.39965 17.67 3.51758 17.6591 3.68874C17.6481 3.8599 17.5516 3.96427 17.3815 3.99036C17.3047 4.00184 17.2259 3.99871 17.1477 3.99871C14.7661 3.99871 12.3844 3.99871 10.0034 3.99871L10.0028 3.99818Z" fill="black"/>
<path d="M8.51877 12.337C10.3989 12.337 12.2791 12.337 14.1587 12.337C14.2302 12.337 14.3027 12.3328 14.3731 12.3422C14.5339 12.3631 14.6341 12.457 14.6554 12.6182C14.6779 12.7863 14.6116 12.9162 14.4478 12.9715C14.3643 12.9997 14.2693 13.0018 14.1795 13.0018C10.3937 13.0034 6.60733 13.0028 2.82148 13.0023C2.74373 13.0023 2.66284 13.006 2.58927 12.9856C2.41811 12.9381 2.32992 12.8197 2.34088 12.6381C2.35079 12.4732 2.47029 12.3558 2.64458 12.3401C2.70929 12.3344 2.77451 12.337 2.83974 12.337C4.73293 12.337 6.62559 12.337 8.51877 12.337Z" fill="black"/>
</g>
<defs>
<clipPath id="clip0_307_4058">
<rect width="20" height="20" fill="white"/>
</clipPath>
</defs>
</svg>
