<svg width="20" height="20" viewBox="0 0 20 20" fill="none" xmlns="http://www.w3.org/2000/svg">
<path d="M15.0433 12.3914C15.0418 13.1332 15.0406 13.875 15.039 14.6168C15.0371 15.6656 14.3379 16.3692 13.2902 16.3695C9.56756 16.3707 5.84529 16.3707 2.12263 16.3695C1.08279 16.3695 0.37771 15.675 0.376147 14.6363C0.371851 11.5711 0.371851 8.50587 0.376147 5.44064C0.37771 4.40197 1.08279 3.70861 2.12302 3.70822C5.84568 3.70704 9.56795 3.70704 13.2906 3.70822C14.3383 3.70822 15.0371 4.41173 15.039 5.46095C15.0406 6.20275 15.0418 6.94454 15.0433 7.68634C15.0433 9.2547 15.0433 10.8227 15.0433 12.391V12.3914ZM9.79529 14.3738C10.025 14.3781 10.2523 14.3539 10.4719 14.2926C11.2398 14.0785 11.7836 13.6192 12.0094 12.8352C12.0941 12.5414 12.0043 12.3445 11.7441 12.1918C11.2898 11.9254 10.8336 11.6617 10.3765 11.4004C10.0871 11.2348 9.8992 11.2629 9.65818 11.5004C9.47732 11.6789 9.2992 11.8594 9.11912 12.0387C8.84334 12.3133 8.67927 12.3414 8.33709 12.1617C7.70701 11.8309 7.18279 11.3645 6.68982 10.8598C6.24685 10.4067 5.84138 9.92423 5.55427 9.35392C5.41209 9.0715 5.44334 8.89025 5.66326 8.66642C5.86404 8.46212 6.0699 8.2629 6.26951 8.05743C6.46951 7.85118 6.50154 7.64845 6.36169 7.40157C6.09255 6.92618 5.81873 6.45353 5.54177 5.98282C5.40193 5.74532 5.21521 5.67072 4.94646 5.72579C4.16169 5.88712 3.49294 6.68595 3.39529 7.56017C3.31052 8.31798 3.4824 9.02657 3.81677 9.69298C4.66287 11.3793 5.94607 12.666 7.53513 13.6547C8.22302 14.0828 8.97224 14.3527 9.7949 14.3742L9.79529 14.3738Z" fill="#17A1FE"/>
<path d="M15.0433 12.3914C15.0433 10.8231 15.0433 9.25509 15.0433 7.68673C15.0961 7.63985 15.1515 7.59493 15.2015 7.54532C16.2922 6.45548 17.3808 5.36368 18.473 4.27579C18.8687 3.88165 19.4844 4.00665 19.6644 4.51055C19.7 4.61055 19.7054 4.71407 19.7054 4.81798C19.7058 8.29805 19.7062 11.7785 19.7054 15.2586C19.7054 15.627 19.5515 15.8766 19.2574 15.9856C18.941 16.1027 18.6777 16.0109 18.4441 15.7762C17.3656 14.6926 16.2836 13.6129 15.2019 12.5324C15.1519 12.4824 15.0965 12.4379 15.0437 12.391L15.0433 12.3914Z" fill="#117FEE"/>
<path d="M9.79526 14.3739C8.9726 14.352 8.22338 14.0825 7.53549 13.6543C5.94643 12.6653 4.66323 11.3786 3.81713 9.69262C3.48276 9.02582 3.31088 8.31723 3.39565 7.5598C3.49331 6.68559 4.16206 5.88676 4.94682 5.72543C5.21557 5.67035 5.40229 5.74496 5.54213 5.98246C5.81948 6.45316 6.0933 6.92582 6.36205 7.40121C6.50151 7.64809 6.46987 7.85121 6.26987 8.05707C6.07026 8.26254 5.8644 8.46176 5.66362 8.66605C5.44331 8.88988 5.41206 9.07113 5.55463 9.35355C5.84174 9.92387 6.24721 10.4063 6.69018 10.8594C7.18315 11.3641 7.70737 11.8305 8.33745 12.1614C8.67963 12.3411 8.8437 12.3129 9.11948 12.0383C9.29955 11.859 9.47768 11.6786 9.65854 11.5C9.89916 11.2621 10.0874 11.2344 10.3769 11.4C10.8343 11.6614 11.2902 11.925 11.7445 12.1914C12.005 12.3442 12.0945 12.5407 12.0097 12.8348C11.7839 13.6188 11.2398 14.0782 10.4722 14.2922C10.2527 14.3536 10.0249 14.3778 9.79565 14.3735L9.79526 14.3739Z" fill="#FDFEFE"/>
</svg>
